<svg width="30" height="36" viewBox="0 0 30 36" fill="none" xmlns="http://www.w3.org/2000/svg">
<mask id="mask0_1742_8347" style="mask-type:luminance" maskUnits="userSpaceOnUse" x="0" y="0" width="30" height="36">
<path d="M30 0H0V36H30V0Z" fill="white"/>
</mask>
<g mask="url(#mask0_1742_8347)">
<path fill-rule="evenodd" clip-rule="evenodd" d="M16.3013 35.9201C13.8712 35.6922 11.5929 35.0088 9.46655 33.8697C5.44168 31.6674 2.3281 27.9463 0.88522 23.2379C-0.481717 18.5296 0.201751 13.6694 2.40404 9.72044C5.2898 4.40457 10.8335 0.759409 16.7569 0H16.9088L18.4276 3.79705C18.3517 3.79705 18.2757 3.79705 18.2757 3.79705C13.2636 4.10081 8.25149 7.06251 5.82138 11.543C4.07474 14.6566 3.6191 18.4536 4.68227 22.0988C5.74544 25.8199 8.25149 28.7057 11.3651 30.3764C13.0358 31.2877 14.8584 31.8192 16.7569 32.0471C20.9337 32.4268 24.8067 31.0598 27.8443 28.6297C27.9962 28.4778 28.1481 28.4019 28.2999 28.25L29.8188 32.0471C26.0977 34.8569 21.3134 36.3757 16.3013 35.9201ZM20.4021 8.88509H15.6178L9.31467 24.453H13.4155L18.0479 12.3784L22.6803 24.453H26.7811L20.4021 8.88509Z" fill="#39B980"/>
</g>
</svg>
