<svg width="39" height="17" viewBox="0 0 39 17" fill="none" xmlns="http://www.w3.org/2000/svg">
<g clip-path="url(#clip0_1742_8364)">
<mask id="mask0_1742_8364" style="mask-type:luminance" maskUnits="userSpaceOnUse" x="0" y="0" width="39" height="17">
<path d="M38.5502 0.25H0.450195V16.75H38.5502V0.25Z" fill="white"/>
</mask>
<g mask="url(#mask0_1742_8364)">
<path fill-rule="evenodd" clip-rule="evenodd" d="M8.09942 10.2276H8.10506L8.59004 6.67391L9.26738 1.6851H5.08937L3.92948 10.2276L3.75005 11.548H3.76379L3.66113 12.3038C4.60136 11.8072 5.64734 11.5478 6.70916 11.548H7.93211L8.08163 10.4464H8.06951L8.09942 10.2276ZM9.8162 5.78222H13.0324C14.4064 5.78222 15.3764 6.91229 15.1864 8.29373L14.9367 10.1348C14.7492 11.5179 13.4729 12.6463 12.1004 12.6463H13.1269C14.4664 12.6423 15.7732 12.2298 16.8752 11.4632C17.9771 10.6967 18.8225 9.61205 19.2998 8.35229C19.32 4.78235 16.39 1.68103 12.6719 1.68103H10.3731L9.8162 5.78222Z" fill="#0456A2"/>
<path fill-rule="evenodd" clip-rule="evenodd" d="M2.1395 14.3557C1.40611 15.017 0.828927 15.8351 0.450195 16.75H12.4596C14.0487 16.7471 15.5835 16.1679 16.783 15.1187C17.9824 14.0696 18.7661 12.6205 18.9906 11.0371L19.2403 9.19926C19.2786 8.92047 19.2986 8.63943 19.3002 8.35803C18.8228 9.61776 17.9775 10.7024 16.8756 11.4689C15.7736 12.2355 14.4668 12.648 13.1273 12.6521H6.54707C4.91867 12.654 3.34859 13.2626 2.1395 14.3605" fill="#F07F1C"/>
<path fill-rule="evenodd" clip-rule="evenodd" d="M27.2749 8.00985H24.2139C23.244 8.00985 22.557 7.20927 22.6895 6.2322L22.8665 4.93047C22.9991 3.95418 23.9019 3.15283 24.8735 3.15283H24.1461C23.1987 3.15611 22.2745 3.44823 21.4954 3.99066C20.7162 4.53309 20.1186 5.30043 19.7813 6.19152C19.7668 8.71764 21.84 10.9102 24.4694 10.9102H27.8747L28.2691 8.0082L27.2749 8.00985ZM28.6595 10.9118H29.4621L29.8566 8.00985H29.0539L28.6595 10.9118Z" fill="#0456A2"/>
<path fill-rule="evenodd" clip-rule="evenodd" d="M30.7014 1.94466C31.2201 1.47623 31.6284 0.897298 31.8966 0.25H24.6181C23.4936 0.251962 22.4074 0.661708 21.5586 1.40417C20.7098 2.14662 20.1552 3.17207 19.9964 4.29262L19.8194 5.59435C19.7922 5.79142 19.7782 5.99008 19.7773 6.18907C20.1146 5.29798 20.7122 4.53064 21.4914 3.98821C22.2706 3.44575 23.1947 3.15365 24.1421 3.15038H27.5765C28.7287 3.14948 29.8397 2.71942 30.6957 1.94304" fill="#F07F1C"/>
<path d="M33.3784 10.6076C33.3799 10.648 33.373 10.6883 33.3583 10.726C33.3436 10.7636 33.3211 10.7978 33.2926 10.8264C33.2641 10.8545 33.2302 10.8765 33.193 10.8912C33.1558 10.9059 33.1162 10.9129 33.076 10.9118H32.0488C32.0086 10.9137 31.9684 10.9071 31.9309 10.8924C31.8934 10.8778 31.8595 10.8555 31.831 10.8268C31.8025 10.7982 31.7803 10.7639 31.7656 10.7262C31.7512 10.6884 31.7446 10.648 31.7464 10.6076V7.1149C31.7446 7.07446 31.7512 7.03405 31.7656 6.99631C31.7803 6.95854 31.8025 6.92425 31.831 6.89563C31.8595 6.86701 31.8934 6.84466 31.9309 6.83002C31.9684 6.81538 32.0086 6.80878 32.0488 6.81064H33.076C33.1162 6.80914 33.1561 6.81601 33.1936 6.83077C33.2308 6.84553 33.2647 6.86791 33.2932 6.89644C33.3214 6.925 33.3436 6.95914 33.3583 6.99673C33.373 7.03432 33.3799 7.07455 33.3784 7.1149V8.06026H33.0154V7.13281H32.1094V10.5897H33.0154V9.58084H33.3784V10.6076ZM34.3978 10.9118H34.0348V6.81064H34.3978V10.9118ZM36.4765 7.13281H35.8468V10.9118H35.4841V7.13281H34.8502V6.80737H36.4765V7.13281ZM38.5498 6.83422L38.0518 8.49229C37.9888 8.65879 37.906 8.93593 37.8031 9.32374V10.9118H37.4407V9.32374C37.414 9.18109 37.3759 9.04075 37.3276 8.90395C37.2469 8.65255 37.1992 8.51587 37.192 8.49229L36.694 6.83422V6.81064H37.0651L37.6309 8.86246L38.1925 6.81064H38.5555V6.83422" fill="#0456A2"/>
<path d="M22.9637 16.0105C22.9668 16.109 22.9495 16.2071 22.9131 16.2985C22.8766 16.3899 22.8218 16.4728 22.7519 16.5418C22.6813 16.6109 22.5976 16.6649 22.5058 16.7007C22.414 16.7365 22.316 16.7533 22.2176 16.7501H21.2881V12.6602H22.2176C22.3164 12.6566 22.4148 12.6733 22.507 12.7093C22.5991 12.7452 22.683 12.7997 22.7535 12.8693C22.823 12.9384 22.8775 13.0211 22.9137 13.1124C22.9498 13.2037 22.9669 13.3016 22.9637 13.3998V16.0105ZM22.6015 15.9739V13.4299C22.6041 13.3698 22.5942 13.3098 22.5725 13.2538C22.5508 13.1978 22.5178 13.1469 22.4755 13.1045C22.4325 13.0631 22.3818 13.0308 22.3263 13.0096C22.2707 12.9884 22.2115 12.9786 22.1521 12.9808H21.651V16.4287H22.1311C22.2562 16.4339 22.3784 16.3901 22.4722 16.3067C22.5168 16.2639 22.5516 16.212 22.5742 16.1544C22.5968 16.0968 22.6067 16.0349 22.6032 15.9731L22.6015 15.9739ZM25.2826 16.4466C25.2842 16.487 25.2774 16.5274 25.2626 16.5651C25.2479 16.6028 25.2255 16.6369 25.1969 16.6654C25.1683 16.693 25.1344 16.7144 25.0973 16.7283C25.0602 16.7423 25.0207 16.7486 24.9811 16.7468H23.898C23.8579 16.7488 23.8178 16.7423 23.7804 16.7277C23.7429 16.7132 23.7089 16.6909 23.6805 16.6623C23.6521 16.6337 23.6299 16.5995 23.6155 16.5618C23.601 16.524 23.5946 16.4837 23.5966 16.4433V12.6602H23.9578V16.4295H24.9205V12.6602H25.2826V16.4466ZM27.5159 16.4466C27.518 16.487 27.5116 16.5274 27.4972 16.5652C27.4828 16.6029 27.4607 16.6372 27.4323 16.6658C27.4038 16.6945 27.3697 16.7167 27.3322 16.7312C27.2947 16.7457 27.2546 16.7522 27.2144 16.7501H26.217C26.1769 16.7518 26.137 16.7451 26.0996 16.7305C26.0623 16.7158 26.0284 16.6935 26 16.665C25.9717 16.6365 25.9495 16.6023 25.935 16.5647C25.9204 16.5271 25.9138 16.4869 25.9155 16.4466V15.4223H26.2768V16.4295H27.1546V15.4532L26.0319 14.0905C25.9573 14.0049 25.916 13.8951 25.9155 13.7813V12.9678C25.9138 12.9275 25.9204 12.8872 25.935 12.8496C25.9495 12.812 25.9717 12.7779 26 12.7493C26.0284 12.7208 26.0623 12.6985 26.0996 12.6839C26.137 12.6692 26.1769 12.6626 26.217 12.6643H27.2144C27.2546 12.6622 27.2947 12.6686 27.3322 12.6831C27.3697 12.6976 27.4038 12.7199 27.4323 12.7485C27.4607 12.7771 27.4828 12.8114 27.4972 12.8492C27.5116 12.887 27.518 12.9274 27.5159 12.9678V13.9066H27.1546V12.9816H26.2768V13.8464L27.4084 15.2067C27.4806 15.2918 27.5201 15.4 27.52 15.5118L27.5159 16.4466ZM29.8559 16.7501H29.4946V14.7853H28.5157V16.7501H28.1545V12.6602H28.5157V14.459H29.4946V12.6602H29.8559V16.7501ZM32.1426 16.7501H31.7862L31.6431 15.8454H30.8346L30.6918 16.7501H30.3457V16.7395L31.0692 12.6497H31.4256L32.1426 16.7501ZM31.596 15.524L31.2396 13.3046L30.8799 15.524H31.596ZM34.3062 16.7501H34.0572L32.9718 13.7399V16.7501H32.6307V12.6602H32.9016L33.966 15.6159V12.6602H34.3062V16.7501ZM36.5799 16.4466C36.582 16.487 36.5754 16.5273 36.561 16.565C36.5466 16.6027 36.5244 16.637 36.4962 16.6656C36.4677 16.6941 36.4335 16.7164 36.3963 16.731C36.3588 16.7455 36.3186 16.752 36.2784 16.7501H34.9554V12.6602H36.2703C36.3102 12.6583 36.3501 12.6645 36.3873 12.6785C36.4248 12.6925 36.459 12.7139 36.4878 12.7416C36.5154 12.7706 36.537 12.8049 36.5508 12.8426C36.5646 12.8802 36.5709 12.9203 36.5688 12.9605V14.2996C36.5688 14.3736 36.5211 14.4354 36.4239 14.4851L36.1395 14.603L36.4449 14.734C36.483 14.7444 36.5163 14.7668 36.5406 14.7978C36.5646 14.8289 36.5784 14.867 36.5793 14.9065L36.5799 16.4466ZM36.2082 14.2085V12.9816H35.3166V14.4533H35.8524L36.2082 14.2085ZM36.2187 16.4295V15.0106L35.8524 14.7666H35.3142V16.4262L36.2187 16.4295ZM38.5473 16.7501H37.2144V12.6602H38.5335V12.9857H37.5765V14.5111H38.4486V14.8365H37.5765V16.4319H38.5464L38.5473 16.7501Z" fill="#0456A2"/>
</g>
</g>
<defs>
<clipPath id="clip0_1742_8364">
<rect width="38.1" height="16.5" fill="white" transform="translate(0.450195 0.25)"/>
</clipPath>
</defs>
</svg>
