<svg width="240" height="103" viewBox="0 0 240 103" fill="none" xmlns="http://www.w3.org/2000/svg">
<path fill-rule="evenodd" clip-rule="evenodd" d="M47.7196 55.559H47.7561L50.909 32.4577L55.3121 0.0264469H28.1519L20.6117 55.559L19.4453 64.143H19.5346L18.8672 69.056C24.9794 65.8274 31.779 64.1414 38.6817 64.143H46.6319L47.6039 56.9819H47.5252L47.7196 55.559ZM58.8799 26.6608H79.7874C88.72 26.6608 95.0254 34.0073 93.7905 42.9875L92.1668 54.956C90.9481 63.947 82.651 71.2827 73.7291 71.2827H80.4021C89.1099 71.2562 97.6054 68.5747 104.769 63.5917C111.932 58.6086 117.428 51.5578 120.53 43.3683C120.662 20.1609 101.615 0 77.4441 0H62.5004L58.8799 26.6608Z" fill="#01B766"/>
<path fill-rule="evenodd" clip-rule="evenodd" d="M10.9818 87.2578C6.21421 91.5571 2.46205 96.8753 0 102.823H78.0707C88.401 102.804 98.3785 99.0389 106.176 92.2184C113.973 85.3978 119.068 75.9782 120.527 65.6846L122.151 53.7373C122.399 51.9249 122.529 50.0981 122.539 48.2686C119.436 56.4577 113.941 63.5089 106.777 68.4919C99.614 73.4749 91.1188 76.1565 82.4111 76.183H39.6344C29.0485 76.1957 18.8418 80.152 10.9818 87.2893" fill="#01B763"/>
<path fill-rule="evenodd" clip-rule="evenodd" d="M228.084 82.5192C232.257 85.0023 235.541 88.0739 237.696 91.5089L203.527 91.5089H186.443H169.359C160.316 91.4978 151.583 89.3235 144.757 85.3843C137.932 81.445 133.473 76.0045 132.195 70.0594L130.774 63.159C130.556 62.1122 130.443 61.0571 130.434 60.0005C133.15 64.7302 137.96 68.8027 144.231 71.6807C150.501 74.5587 157.937 76.1075 165.559 76.1228L203.003 76.1228C212.269 76.1302 221.203 78.4152 228.084 82.5374" fill="#01B763"/>
<g clip-path="url(#clip0_1786_8424)">
<path d="M160.52 44.191C162.084 44.191 163.243 44.8089 163.996 46.0445C164.749 47.2802 165.125 48.7668 165.125 50.5045C165.125 52.2228 164.903 54.8293 164.459 58.3239H159.391L158.754 51.605C158.638 50.4466 158.484 49.6743 158.29 49.2881C158.097 48.902 157.769 48.7089 157.306 48.7089C156.205 48.7089 155.587 49.6839 155.452 51.634L154.96 58.3239H149.805L149.168 51.605C149.052 50.4466 148.897 49.6743 148.704 49.2881C148.511 48.902 148.183 48.7089 147.72 48.7089C146.581 48.7089 145.963 49.6839 145.866 51.634L145.577 58.3239H140.248L139.64 44.5965H146.185L146.069 47.3478C146.108 47.2705 146.156 47.1643 146.214 47.0292C146.291 46.8747 146.465 46.6141 146.735 46.2473C147.025 45.8804 147.343 45.5618 147.691 45.2915C148.038 45.0212 148.511 44.7702 149.11 44.5386C149.728 44.3069 150.384 44.191 151.079 44.191C152.199 44.191 153.106 44.5482 153.802 45.2626C154.516 45.9769 154.979 46.7685 155.192 47.6374C155.481 47.1547 155.732 46.7685 155.945 46.4789C156.157 46.1893 156.476 45.8418 156.9 45.4363C157.769 44.6061 158.976 44.191 160.52 44.191ZM171.828 58.6136C170.341 58.6136 169.115 58.1791 168.15 57.3103C167.204 56.4415 166.731 55.2155 166.731 53.6323C166.731 52.0298 167.271 50.8713 168.352 50.157C169.434 49.4233 170.737 49.0565 172.262 49.0565C173.787 49.0565 175.11 49.2978 176.23 49.7805C175.979 48.178 174.965 47.3767 173.189 47.3767C172.378 47.3767 171.374 47.5408 170.177 47.8691L169.453 45.2626C171.191 44.5482 172.957 44.191 174.753 44.191C179.927 44.191 182.514 46.3921 182.514 50.7941C182.514 52.3001 182.34 54.3853 181.993 57.0497L181.848 58.3239H177.07L176.896 56.7311C175.583 57.9861 173.894 58.6136 171.828 58.6136ZM174.434 55.0224C175.303 55.0224 176.046 54.7811 176.664 54.2984L176.49 52.387C176.008 52.0587 175.467 51.8946 174.869 51.8946C174.289 51.8946 173.807 52.0394 173.421 52.329C173.054 52.6186 172.87 52.9758 172.87 53.4006C172.87 53.8254 173.015 54.2018 173.305 54.5301C173.594 54.8583 173.971 55.0224 174.434 55.0224ZM190.67 46.4789C191.693 44.9537 192.958 44.191 194.464 44.191C195.178 44.191 195.835 44.3648 196.433 44.7123L195.738 49.4619C194.966 48.9213 194.097 48.651 193.132 48.651C192.205 48.651 191.577 49.0372 191.249 49.8094C191.056 50.2921 190.931 50.7555 190.873 51.1996L190.322 58.3239H185.109L184.241 44.5965H189.946L190.67 46.4789ZM208.486 58.3239C206.188 56.1036 204.566 54.5301 203.62 53.6033L203.418 58.3239H198.089L197.307 39.5283H204.2L203.852 48.4483L206.777 44.5965H212.627L208.544 50.3307L213.206 58.3239H208.486ZM221.354 58.6136C219.172 58.6136 217.338 57.9861 215.852 56.7311C214.384 55.4568 213.651 53.5937 213.651 51.1416C213.651 49.5971 214.027 48.2842 214.78 47.203C216.151 45.195 218.275 44.191 221.151 44.191C223.353 44.191 225.032 44.6351 226.19 45.5232C227.349 46.3921 227.928 47.5988 227.928 49.1433C227.928 50.3404 227.445 51.3154 226.48 52.0684C225.534 52.8021 224.144 53.1689 222.31 53.1689C221.557 53.1689 220.881 53.111 220.282 52.9951L219.964 52.9372C220.06 53.6323 220.36 54.1536 220.862 54.5011C221.383 54.8293 222.001 54.9934 222.715 54.9934C223.893 54.9934 224.897 54.6363 225.727 53.9219L227.523 56.094C227.214 56.4608 226.847 56.8083 226.422 57.1365C225.997 57.4455 225.322 57.7737 224.395 58.1212C223.468 58.4494 222.454 58.6136 221.354 58.6136ZM223.7 48.8827C223.7 48.4965 223.546 48.178 223.237 47.927C222.947 47.676 222.542 47.5505 222.02 47.5505C221.499 47.5505 221.006 47.7822 220.543 48.2456C220.099 48.7089 219.877 49.2592 219.877 49.8963C220.302 50.0894 220.852 50.1859 221.528 50.1859C222.223 50.1859 222.754 50.0701 223.121 49.8384C223.507 49.5874 223.7 49.2688 223.7 48.8827ZM237.195 53.1689C237.176 54.2887 237.571 54.8486 238.382 54.8486C238.614 54.8486 238.894 54.7424 239.222 54.5301L239.83 57.3393C239.714 57.4358 239.55 57.5613 239.338 57.7158C239.145 57.8509 238.711 58.0343 238.035 58.266C237.378 58.4977 236.693 58.6136 235.978 58.6136C234.666 58.6136 233.594 58.1695 232.764 57.2814C231.934 56.3739 231.489 55.2251 231.432 53.835L231.171 48.3614H228.941L229.288 44.5965H231.026L230.91 41.7583L237.774 40.3682L237.571 44.5965H239.251L239.598 48.3614H237.397L237.195 53.1689Z" fill="#01B763"/>
</g>
<path d="M195.846 15.7225C195.707 15.8571 195.643 16.0518 195.675 16.2427L196.152 18.8814C196.192 19.105 196.098 19.3314 195.91 19.4606C195.727 19.5947 195.483 19.6108 195.283 19.5035L192.908 18.2646C192.825 18.2207 192.733 18.1971 192.639 18.1944H192.494C192.444 18.2019 192.394 18.218 192.349 18.2427L189.973 19.4874C189.856 19.5464 189.723 19.5673 189.593 19.5464C189.275 19.4864 189.063 19.1839 189.115 18.8648L189.593 16.2261C189.624 16.0336 189.561 15.8378 189.422 15.7011L187.485 13.824C187.323 13.6668 187.267 13.4309 187.341 13.2179C187.413 13.0056 187.596 12.8506 187.817 12.8157L190.483 12.429C190.686 12.4081 190.864 12.2848 190.955 12.1024L192.129 9.69436C192.157 9.64073 192.193 9.59139 192.237 9.54956L192.285 9.51202C192.31 9.48413 192.339 9.46107 192.371 9.4423L192.43 9.42084L192.521 9.3833H192.747C192.948 9.40422 193.126 9.52489 193.219 9.70509L194.409 12.1024C194.495 12.2778 194.661 12.3995 194.854 12.429L197.519 12.8157C197.745 12.8479 197.933 13.0034 198.007 13.2179C198.078 13.433 198.017 13.669 197.852 13.824L195.846 15.7225Z" fill="#01B763"/>
<path d="M173.862 31.1417C173.723 31.2763 173.659 31.471 173.691 31.6619L174.167 34.3006C174.208 34.5242 174.113 34.7506 173.926 34.8798C173.743 35.0139 173.499 35.03 173.299 34.9227L170.923 33.6838C170.841 33.6399 170.749 33.6163 170.655 33.6136H170.51C170.459 33.6211 170.41 33.6372 170.365 33.6618L167.989 34.9066C167.872 34.9656 167.739 34.9865 167.608 34.9656C167.291 34.9056 167.079 34.6031 167.131 34.284L167.608 31.6453C167.64 31.4528 167.576 31.257 167.437 31.1203L165.501 29.2432C165.339 29.086 165.282 28.85 165.356 28.6371C165.428 28.4247 165.612 28.2698 165.833 28.2349L168.499 27.8482C168.701 27.8273 168.879 27.7039 168.971 27.5216L170.145 25.1136C170.173 25.0599 170.209 25.0106 170.252 24.9687L170.301 24.9312C170.326 24.9033 170.355 24.8803 170.387 24.8615L170.445 24.84L170.537 24.8025H170.762C170.964 24.8234 171.142 24.9441 171.234 25.1243L172.424 27.5216C172.51 27.697 172.677 27.8187 172.87 27.8482L175.535 28.2349C175.76 28.2671 175.949 28.4226 176.023 28.6371C176.093 28.8522 176.033 29.0882 175.868 29.2432L173.862 31.1417Z" fill="#01B763"/>
<path d="M216.766 31.0082C216.627 31.1428 216.563 31.3375 216.595 31.5284L217.072 34.167C217.112 34.3907 217.018 34.617 216.83 34.7463C216.647 34.8803 216.403 34.8964 216.203 34.7892L213.828 33.5503C213.745 33.5063 213.653 33.4827 213.559 33.48H213.414C213.364 33.4875 213.314 33.5036 213.269 33.5283L210.893 34.7731C210.776 34.8321 210.643 34.853 210.513 34.8321C210.195 34.772 209.983 34.4695 210.035 34.1504L210.513 31.5118C210.544 31.3192 210.48 31.1235 210.342 30.9867L208.405 29.1096C208.243 28.9525 208.187 28.7165 208.261 28.5036C208.332 28.2912 208.516 28.1362 208.737 28.1013L211.403 27.7147C211.606 27.6937 211.784 27.5704 211.875 27.3881L213.049 24.98C213.077 24.9264 213.113 24.877 213.157 24.8352L213.205 24.7977C213.23 24.7698 213.259 24.7467 213.291 24.7279L213.35 24.7065L213.441 24.6689H213.667C213.868 24.6899 214.046 24.8105 214.139 24.9907L215.329 27.3881C215.415 27.5634 215.581 27.6852 215.774 27.7147L218.439 28.1013C218.665 28.1335 218.853 28.2891 218.927 28.5036C218.998 28.7186 218.937 28.9546 218.772 29.1096L216.766 31.0082Z" fill="#01B763"/>
<defs>
<clipPath id="clip0_1786_8424">
<rect width="100.559" height="20.1117" fill="white" transform="translate(139.441 38.8826)"/>
</clipPath>
</defs>
</svg>
