<svg fill="currentColor" height="24" width="24" version="1.1" id="Layer_1" xmlns="http://www.w3.org/2000/svg" xmlns:xlink="http://www.w3.org/1999/xlink" 
	 viewBox="0 0 511.997 511.997" xml:space="preserve">
<g>
	<g>
		<path d="M508.4,340.149l-85.3-128c-5.2-7.8-14.9-11.3-23.9-8.6c-9,2.7-15.1,11-15.1,20.4v42.7h-21.3v-42.7
			c0-11.8-9.5-21.3-21.3-21.3H320v-85.3c0-11.8-9.5-21.3-21.3-21.3s-21.3,9.6-21.3,21.3v85.3h-42.7v-128H256
			c11.8,0,21.3-9.6,21.3-21.3s-9.5-21.3-21.3-21.3h-42.7H64H21.3c-11.8-0.1-21.3,9.4-21.3,21.2s9.5,21.3,21.3,21.3h21.3v128
			c-11.8,0-21.3,9.6-21.3,21.3v144.6c-13,11.9-21.3,28.7-21.3,47.5c0,35.3,28.7,64,64,64c27.8,0,51.2-17.9,60.1-42.7h7.9
			c8.8,24.8,32.3,42.7,60.1,42.7c27.8,0,51.2-17.9,60.1-42.7h7.9c8.8,24.8,32.3,42.7,60.1,42.7c35.3,0,64-28.7,64-64
			c0-18.8-8.3-35.6-21.3-47.4v-59.3H384v42.7c0,11.8,9.5,21.3,21.3,21.3h85.3c7.9,0,15.1-4.3,18.8-11.3
			C513.2,355.049,512.8,346.649,508.4,340.149z M64,437.249c-11.8,0-21.3-9.6-21.3-21.3c0-11.8,9.6-21.3,21.3-21.3
			s21.3,9.6,21.3,21.3S75.8,437.249,64,437.249z M85.3,74.649H192v128H85.3V74.649z M192,437.249c-11.8,0-21.3-9.6-21.3-21.3
			c0-11.8,9.6-21.3,21.3-21.3s21.3,9.6,21.3,21.3S203.8,437.249,192,437.249z M256,330.649H128c-11.8,0-21.3-9.6-21.3-21.3
			c0-11.7,9.5-21.3,21.3-21.3h128c11.8,0,21.3,9.6,21.3,21.3C277.3,321.049,267.8,330.649,256,330.649z M320,437.249
			c-11.8,0-21.3-9.6-21.3-21.3c0-11.8,9.6-21.3,21.3-21.3c11.7,0,21.3,9.6,21.3,21.3S331.8,437.249,320,437.249z"/>
	</g>
</g>
</svg>