<svg width="0" height="0"><symbol xmlns="http://www.w3.org/2000/svg" id="2user" fill="none" viewBox="0 0 24 24"><path stroke="currentColor" stroke-linecap="round" stroke-linejoin="round" stroke-width="1.5" d="M9.592 15.207c3.688 0 6.841.559 6.841 2.792 0 2.233-3.131 2.808-6.841 2.808-3.69 0-6.842-.554-6.842-2.788s3.13-2.812 6.842-2.812Zm0-3.187a4.386 4.386 0 1 1 4.385-4.385 4.37 4.37 0 0 1-4.354 4.385h-.031Z" clip-rule="evenodd"/><path stroke="currentColor" stroke-linecap="round" stroke-linejoin="round" stroke-width="1.5" d="M16.483 10.882A3.301 3.301 0 0 0 19.32 7.62a3.3 3.3 0 0 0-2.762-3.256m2.038 10.368c1.55.231 2.634.775 2.634 1.895 0 .771-.51 1.271-1.335 1.584"/></symbol><symbol xmlns="http://www.w3.org/2000/svg" id="3user" fill="none" viewBox="0 0 24 24"><path stroke="currentColor" stroke-linecap="round" stroke-linejoin="round" stroke-width="1.5" d="M17.888 10.897a2.875 2.875 0 0 0 2.472-2.841 2.875 2.875 0 0 0-2.406-2.836m1.775 9.03c1.35.202 2.294.675 2.294 1.65 0 .671-.445 1.107-1.163 1.381"/><path stroke="currentColor" stroke-linecap="round" stroke-linejoin="round" stroke-width="1.5" d="M11.887 14.664c-3.214 0-5.96.487-5.96 2.432 0 1.944 2.729 2.445 5.96 2.445 3.214 0 5.958-.482 5.958-2.428s-2.727-2.45-5.958-2.45Zm0-2.776a3.819 3.819 0 1 0-3.82-3.82 3.804 3.804 0 0 0 3.792 3.82h.028Z" clip-rule="evenodd"/><path stroke="currentColor" stroke-linecap="round" stroke-linejoin="round" stroke-width="1.5" d="M5.885 10.897a2.875 2.875 0 0 1-2.472-2.841A2.875 2.875 0 0 1 5.819 5.22m-1.775 9.03c-1.351.202-2.294.675-2.294 1.65 0 .671.444 1.107 1.162 1.381"/></symbol><symbol xmlns="http://www.w3.org/2000/svg" xml:space="preserve" id="abc-toy" fill="currentColor" viewBox="0 0 512 512"><path d="M451.702 243.311h-72.539c7.032-9.862 11.188-21.911 11.188-34.92V60.298C390.351 27.049 363.302 0 330.053 0c-7.008 0-12.689 5.681-12.689 12.689s5.681 12.689 12.689 12.689c19.256 0 34.92 15.665 34.92 34.92v148.093c0 19.255-15.664 34.92-34.92 34.92H181.947c-19.248 0-34.907-15.665-34.907-34.92V60.298c0-19.255 15.659-34.92 34.907-34.92h68.977c7.008 0 12.689-5.681 12.689-12.689S257.933 0 250.924 0h-68.977c-33.241 0-60.285 27.049-60.285 60.298v148.093c0 13.009 4.154 25.058 11.185 34.92H60.298C27.049 243.311 0 270.36 0 303.609v148.093C0 484.951 27.049 512 60.298 512h148.093c19.338 0 36.566-9.16 47.608-23.359C267.038 502.839 284.262 512 303.596 512h148.106C484.951 512 512 484.951 512 451.702V303.609c0-33.249-27.049-60.298-60.298-60.298zM243.311 451.702c0 19.255-15.665 34.92-34.92 34.92H60.298c-19.255 0-34.92-15.665-34.92-34.92V303.609c0-19.255 15.665-34.92 34.92-34.92h148.093c19.255 0 34.92 15.665 34.92 34.92v148.093zm243.311 0c0 19.255-15.665 34.92-34.92 34.92H303.596c-19.248 0-34.907-15.665-34.907-34.92V303.609c0-19.255 15.659-34.92 34.907-34.92h148.105c19.256 0 34.92 15.665 34.92 34.92v148.093z"/><path d="M292.481 0h-5.076c-7.008 0-12.689 5.681-12.689 12.689s5.681 12.689 12.689 12.689h5.076c7.008 0 12.689-5.681 12.689-12.689S299.489 0 292.481 0zm25.675 194.346L267.819 65.134c-.032-.081-.072-.155-.105-.235-.086-.208-.18-.414-.277-.617a11.751 11.751 0 0 0-.268-.539c-.096-.18-.201-.355-.306-.53-.11-.185-.222-.371-.341-.548-.107-.16-.222-.313-.336-.468-.131-.176-.261-.354-.4-.523-.124-.151-.256-.294-.388-.44-.142-.157-.283-.315-.433-.464a9.177 9.177 0 0 0-.453-.426c-.148-.133-.294-.269-.448-.395-.166-.137-.34-.265-.514-.393-.159-.117-.315-.234-.478-.344-.175-.117-.357-.226-.538-.335a14.563 14.563 0 0 0-.541-.312c-.173-.093-.35-.178-.529-.263a14.197 14.197 0 0 0-.629-.283c-.077-.032-.15-.072-.228-.103-.098-.038-.197-.062-.294-.098a12.467 12.467 0 0 0-4.318-.759c-.204 0-.407.003-.61.013a13.385 13.385 0 0 0-1.843.229 13.67 13.67 0 0 0-.631.141 11.943 11.943 0 0 0-1.224.377c-.098.036-.197.06-.294.098-.079.03-.151.07-.228.103-.213.088-.423.184-.631.283-.178.085-.355.17-.528.263-.184.099-.363.204-.542.312-.181.109-.363.218-.538.335-.162.109-.32.226-.477.344-.174.129-.348.256-.514.393-.154.126-.301.261-.448.395-.155.141-.311.279-.458.426-.148.148-.289.306-.431.463-.132.146-.264.289-.388.442-.14.169-.269.346-.4.523-.114.155-.23.308-.336.468-.119.178-.23.362-.34.547-.105.176-.211.352-.307.532-.094.176-.181.357-.268.538-.098.204-.19.409-.278.618-.033.08-.074.154-.105.235l-50.337 129.212c-2.544 6.53.688 13.885 7.218 16.43a12.65 12.65 0 0 0 4.602.869c5.077 0 9.872-3.069 11.826-8.087l11.972-30.733h53.082l11.972 30.733c1.954 5.017 6.748 8.087 11.826 8.087 1.532 0 3.09-.279 4.602-.869 6.529-2.548 9.761-9.904 7.217-16.433zm-78.81-46.9L256 104.694l16.654 42.752h-33.308zm-71.249 230.225c.175-.169.355-.33.527-.502 8.502-8.5 13.183-19.799 13.183-31.813 0-24.811-20.184-44.995-44.995-44.995H99.57c-7.008 0-12.689 5.681-12.689 12.689v129.212c0 7.008 5.681 12.689 12.689 12.689h37.242c12.014 0 23.312-4.681 31.802-13.172 8.508-8.489 13.193-19.79 13.193-31.823.001-12.658-5.264-24.103-13.71-32.285zm-17.417 46.152a19.484 19.484 0 0 1-13.868 5.749h-24.553V390.35h24.553c10.816 0 19.617 8.795 19.617 19.604.001 5.244-2.037 10.166-5.749 13.869zm0-64.599a19.484 19.484 0 0 1-13.868 5.749h-24.553v-39.234h24.553c10.816 0 19.617 8.801 19.617 19.617.001 5.235-2.041 10.16-5.749 13.868zm262.6 34.731c-7.008 0-12.689 5.681-12.689 12.689 0 12.643-10.286 22.929-22.929 22.929-12.65 0-22.942-10.286-22.942-22.929v-57.976c0-12.643 10.292-22.929 22.942-22.929 12.643 0 22.929 10.286 22.929 22.929 0 7.008 5.681 12.689 12.689 12.689s12.689-5.681 12.689-12.689c0-26.637-21.67-48.307-48.307-48.307-26.644 0-48.32 21.67-48.32 48.307v57.976c0 26.637 21.677 48.307 48.32 48.307 26.637 0 48.307-21.67 48.307-48.307 0-7.009-5.681-12.689-12.689-12.689z"/></symbol><symbol xmlns="http://www.w3.org/2000/svg" id="activity" fill="none" viewBox="0 0 24 24"><path stroke="currentColor" stroke-linecap="round" stroke-linejoin="round" stroke-width="1.5" d="m7.245 14.781 2.993-3.89 3.414 2.682 2.93-3.78"/><circle cx="19.995" cy="4.2" r="1.922" stroke="currentColor" stroke-linecap="round" stroke-linejoin="round" stroke-width="1.5"/><path stroke="currentColor" stroke-linecap="round" stroke-linejoin="round" stroke-width="1.5" d="M14.925 3.12H7.657c-3.012 0-4.879 2.133-4.879 5.144v8.083c0 3.011 1.83 5.135 4.879 5.135h8.604c3.011 0 4.879-2.124 4.879-5.135v-7.04"/></symbol><symbol xmlns="http://www.w3.org/2000/svg" id="addUser" fill="none" viewBox="0 0 24 24"><path stroke="currentColor" stroke-linecap="round" stroke-linejoin="round" stroke-width="1.5" d="M9.877 15.206c-3.844 0-7.127.581-7.127 2.91 0 2.327 3.263 2.93 7.127 2.93 3.845 0 7.126-.583 7.126-2.91s-3.261-2.93-7.126-2.93Zm0-3.32A4.568 4.568 0 1 0 5.31 7.318a4.551 4.551 0 0 0 4.536 4.568h.03Z" clip-rule="evenodd"/><path stroke="currentColor" stroke-linecap="round" stroke-linejoin="round" stroke-width="1.5" d="M19.204 8.67v4.01m2.046-2.006h-4.09"/></symbol><symbol xmlns="http://www.w3.org/2000/svg" id="airpods" fill="none" viewBox="0 0 24 24"><path stroke="currentColor" stroke-linecap="round" stroke-linejoin="round" stroke-width="2" d="M6 6v1m12-1v1m.375 3.273c1.933 0 2.625-1.794 2.625-3.744C21 4.58 19.433 3 17.5 3S14 4.58 14 6.53V21h3.5v-9.927c0-.28 0-.42.055-.527a.5.5 0 0 1 .218-.219c.107-.054.247-.054.527-.054h.075Zm-12.75 0C3.692 10.273 3 8.479 3 6.529 3 4.58 4.567 3 6.5 3S10 4.58 10 6.53V21H6.5v-9.927c0-.28 0-.42-.054-.527a.5.5 0 0 0-.219-.219c-.107-.054-.247-.054-.527-.054h-.075Z"/></symbol><symbol xmlns="http://www.w3.org/2000/svg" id="arrowDown" fill="none" viewBox="0 0 24 24"><path stroke="currentColor" stroke-linecap="round" stroke-linejoin="round" stroke-width="1.5" d="M12.274 19.75v-15m6.025 8.95-6.024 6.05L6.25 13.7"/></symbol><symbol xmlns="http://www.w3.org/2000/svg" id="arrowDown2" fill="none" viewBox="0 0 24 24"><path stroke="currentColor" stroke-linecap="round" stroke-linejoin="round" stroke-width="1.5" d="m19 8.5-7 7-7-7"/></symbol><symbol xmlns="http://www.w3.org/2000/svg" id="arrowDown3" fill="none" viewBox="0 0 24 24"><path stroke="currentColor" stroke-linecap="round" stroke-linejoin="round" stroke-width="1.5" d="M12.251 12.7V3.75"/><path stroke="currentColor" stroke-linecap="round" stroke-linejoin="round" stroke-width="1.5" d="m7.25 12.7 5.001 7.937 5.001-7.937H7.25Z" clip-rule="evenodd"/></symbol><symbol xmlns="http://www.w3.org/2000/svg" id="arrowDownCircle" fill="none" viewBox="0 0 24 24"><path stroke="currentColor" stroke-linecap="round" stroke-linejoin="round" stroke-width="1.5" d="M2.75 12a9.25 9.25 0 1 0 18.5 0 9.25 9.25 0 0 0-18.5 0Z" clip-rule="evenodd"/><path stroke="currentColor" stroke-linecap="round" stroke-linejoin="round" stroke-width="1.5" d="M8.53 10.558 12 14.044l3.471-3.486"/></symbol><symbol xmlns="http://www.w3.org/2000/svg" id="arrowDownSquare" fill="none" viewBox="0 0 24 24"><path stroke="currentColor" stroke-linecap="round" stroke-linejoin="round" stroke-width="1.5" d="M7.666 21.25h8.669c3.02 0 4.915-2.139 4.915-5.166V7.916c0-3.027-1.885-5.166-4.915-5.166H7.666c-3.03 0-4.916 2.139-4.916 5.166v8.168c0 3.027 1.886 5.166 4.916 5.166Z" clip-rule="evenodd"/><path stroke="currentColor" stroke-linecap="round" stroke-linejoin="round" stroke-width="1.5" d="M12 16.086V7.914m3.748 4.408L12 16.086l-3.748-3.764"/></symbol><symbol xmlns="http://www.w3.org/2000/svg" id="arrowLeft" fill="none" viewBox="0 0 24 24"><path stroke="currentColor" stroke-linecap="round" stroke-linejoin="round" stroke-width="1.5" d="M4.25 12.274h15m-8.95 6.025-6.05-6.024L10.3 6.25"/></symbol><symbol xmlns="http://www.w3.org/2000/svg" id="arrowLeft2" fill="none" viewBox="0 0 24 24"><path stroke="currentColor" stroke-linecap="round" stroke-linejoin="round" stroke-width="1.5" d="m15.5 19-7-7 7-7"/></symbol><symbol xmlns="http://www.w3.org/2000/svg" id="arrowLeft3" fill="none" viewBox="0 0 24 24"><path stroke="currentColor" stroke-linecap="round" stroke-linejoin="round" stroke-width="1.5" d="M11.3 12.251h8.95"/><path stroke="currentColor" stroke-linecap="round" stroke-linejoin="round" stroke-width="1.5" d="m11.3 7.25-7.937 5.001 7.937 5.001V7.25Z" clip-rule="evenodd"/></symbol><symbol xmlns="http://www.w3.org/2000/svg" id="arrowLeftCircle" fill="none" viewBox="0 0 24 24"><path stroke="currentColor" stroke-linecap="round" stroke-linejoin="round" stroke-width="1.5" d="M12 2.75a9.25 9.25 0 1 0 0 18.5 9.25 9.25 0 0 0 0-18.5Z" clip-rule="evenodd"/><path stroke="currentColor" stroke-linecap="round" stroke-linejoin="round" stroke-width="1.5" d="M13.442 8.53 9.956 12l3.486 3.471"/></symbol><symbol xmlns="http://www.w3.org/2000/svg" id="arrowLeftSquare" fill="none" viewBox="0 0 24 24"><path stroke="currentColor" stroke-linecap="round" stroke-linejoin="round" stroke-width="1.5" d="M2.75 7.666v8.669c0 3.02 2.139 4.915 5.166 4.915h8.168c3.027 0 5.166-1.885 5.166-4.915v-8.67c0-3.03-2.139-4.915-5.166-4.915H7.916c-3.027 0-5.166 1.886-5.166 4.916Z" clip-rule="evenodd"/><path stroke="currentColor" stroke-linecap="round" stroke-linejoin="round" stroke-width="1.5" d="M7.914 12h8.172m-4.408 3.748L7.914 12l3.764-3.748"/></symbol><symbol xmlns="http://www.w3.org/2000/svg" id="arrowRight" fill="none" viewBox="0 0 24 24"><path stroke="currentColor" stroke-linecap="round" stroke-linejoin="round" stroke-width="1.5" d="M19.75 11.726h-15m8.95-6.025 6.05 6.024-6.05 6.025"/></symbol><symbol xmlns="http://www.w3.org/2000/svg" id="arrowRight2" fill="none" viewBox="0 0 24 24"><path stroke="currentColor" stroke-linecap="round" stroke-linejoin="round" stroke-width="1.5" d="m8.5 5 7 7-7 7"/></symbol><symbol xmlns="http://www.w3.org/2000/svg" id="arrowRight3" fill="none" viewBox="0 0 24 24"><path stroke="currentColor" stroke-linecap="round" stroke-linejoin="round" stroke-width="1.5" d="M12.7 11.749H3.75"/><path stroke="currentColor" stroke-linecap="round" stroke-linejoin="round" stroke-width="1.5" d="m12.7 16.75 7.937-5.001L12.7 6.748V16.75Z" clip-rule="evenodd"/></symbol><symbol xmlns="http://www.w3.org/2000/svg" id="arrowRightCircle" fill="none" viewBox="0 0 24 24"><path stroke="currentColor" stroke-linecap="round" stroke-linejoin="round" stroke-width="1.5" d="M12 21.25a9.25 9.25 0 1 0 0-18.5 9.25 9.25 0 0 0 0 18.5Z" clip-rule="evenodd"/><path stroke="currentColor" stroke-linecap="round" stroke-linejoin="round" stroke-width="1.5" d="M10.558 15.47 14.044 12l-3.486-3.471"/></symbol><symbol xmlns="http://www.w3.org/2000/svg" id="arrowRightSquare" fill="none" viewBox="0 0 24 24"><path stroke="currentColor" stroke-linecap="round" stroke-linejoin="round" stroke-width="1.5" d="M21.25 16.334V7.665c0-3.02-2.139-4.915-5.166-4.915H7.916c-3.027 0-5.166 1.885-5.166 4.915v8.67c0 3.03 2.139 4.915 5.166 4.915h8.168c3.027 0 5.166-1.886 5.166-4.916Z" clip-rule="evenodd"/><path stroke="currentColor" stroke-linecap="round" stroke-linejoin="round" stroke-width="1.5" d="M16.086 12H7.914m4.408-3.748L16.086 12l-3.764 3.748"/></symbol><symbol xmlns="http://www.w3.org/2000/svg" id="arrowUp" fill="none" viewBox="0 0 24 24"><path stroke="currentColor" stroke-linecap="round" stroke-linejoin="round" stroke-width="1.5" d="M11.726 4.25v15M5.701 10.3l6.024-6.05 6.025 6.05"/></symbol><symbol xmlns="http://www.w3.org/2000/svg" id="arrowUp2" fill="none" viewBox="0 0 24 24"><path stroke="currentColor" stroke-linecap="round" stroke-linejoin="round" stroke-width="1.5" d="m5 15.5 7-7 7 7"/></symbol><symbol xmlns="http://www.w3.org/2000/svg" id="arrowUp3" fill="none" viewBox="0 0 24 24"><path stroke="currentColor" stroke-linecap="round" stroke-linejoin="round" stroke-width="1.5" d="M11.749 11.3v8.95"/><path stroke="currentColor" stroke-linecap="round" stroke-linejoin="round" stroke-width="1.5" d="m16.75 11.3-5.001-7.937L6.748 11.3H16.75Z" clip-rule="evenodd"/></symbol><symbol xmlns="http://www.w3.org/2000/svg" id="arrowUpCircle" fill="none" viewBox="0 0 24 24"><path stroke="currentColor" stroke-linecap="round" stroke-linejoin="round" stroke-width="1.5" d="M21.25 12a9.25 9.25 0 1 0-18.5 0 9.25 9.25 0 0 0 18.5 0Z" clip-rule="evenodd"/><path stroke="currentColor" stroke-linecap="round" stroke-linejoin="round" stroke-width="1.5" d="M15.47 13.442 12 9.956l-3.471 3.486"/></symbol><symbol xmlns="http://www.w3.org/2000/svg" id="arrowUpSquare" fill="none" viewBox="0 0 24 24"><path stroke="currentColor" stroke-linecap="round" stroke-linejoin="round" stroke-width="1.5" d="M16.334 2.75H7.665c-3.02 0-4.915 2.139-4.915 5.166v8.168c0 3.027 1.885 5.166 4.915 5.166h8.669c3.03 0 4.916-2.139 4.916-5.166V7.916c0-3.027-1.886-5.166-4.916-5.166Z" clip-rule="evenodd"/><path stroke="currentColor" stroke-linecap="round" stroke-linejoin="round" stroke-width="1.5" d="M12 7.914v8.172m-3.748-4.408L12 7.914l3.748 3.764"/></symbol><symbol xmlns="http://www.w3.org/2000/svg" id="bag" fill="none" viewBox="0 0 24 24"><path stroke="currentColor" stroke-linecap="round" stroke-linejoin="round" stroke-width="1.5" d="M16.514 21.5H8.166c-3.067 0-5.419-1.108-4.75-5.565l.777-6.041c.412-2.225 1.83-3.076 3.076-3.076h10.178c1.263 0 2.6.915 3.076 3.076l.778 6.04c.567 3.955-1.721 5.566-4.787 5.566Z" clip-rule="evenodd"/><path stroke="currentColor" stroke-linecap="round" stroke-linejoin="round" stroke-width="1.5" d="M16.651 6.598a4.32 4.32 0 0 0-4.32-4.32v0a4.32 4.32 0 0 0-4.34 4.32h0m7.305 4.504h-.045m-5.785 0H9.42"/></symbol><symbol xmlns="http://www.w3.org/2000/svg" id="bag3" fill="none" viewBox="0 0 24 24"><path stroke="currentColor" stroke-linecap="round" stroke-linejoin="round" stroke-width="1.5" d="M15.773 9.305V6.273A3.772 3.772 0 0 0 12 2.5a3.773 3.773 0 0 0-3.79 3.756v3.049"/><path stroke="currentColor" stroke-linecap="round" stroke-linejoin="round" stroke-width="1.5" d="M16.742 21H7.258A4.256 4.256 0 0 1 3 16.745V11.23a4.256 4.256 0 0 1 4.258-4.255h9.484A4.256 4.256 0 0 1 21 11.23v5.516A4.256 4.256 0 0 1 16.742 21Z" clip-rule="evenodd"/></symbol><symbol xmlns="http://www.w3.org/2000/svg" xml:space="preserve" id="bear-toy" fill="currentColor" viewBox="0 0 512 512"><path d="M109.866 191.705c13.164-15.171 29.068-28.085 47.265-38.381 14.946-8.453 31.135-14.926 48.112-19.239 16.44-4.17 33.518-6.283 50.757-6.283 17.239 0 34.317 2.114 50.752 6.282 16.982 4.314 33.171 10.788 48.114 19.24 18.199 10.297 34.101 23.211 47.267 38.384 11.419 13.156 20.478 27.688 26.923 43.192.196.471.428.915.676 1.346.064.111.131.219.198.327.254.41.525.803.823 1.172.033.041.061.086.095.125a11.631 11.631 0 0 0 1.334 1.354c.373.323.757.629 1.163.902.019.012.035.027.053.039.424.281.869.524 1.325.746.11.054.22.105.332.156.462.209.933.398 1.418.546l.036.009c.475.143.96.245 1.451.327a11.629 11.629 0 0 0 1.891.169l.029.002c.296 0 .594-.019.893-.042.063-.005.127-.003.19-.009.375-.035.751-.089 1.126-.162.093-.018.184-.047.276-.067.281-.061.561-.125.84-.207.134-.04.266-.094.398-.138.212-.071.426-.136.636-.22.036-.014.071-.03.108-.046l.027-.009c.012-.005.021-.011.033-.015C485.473 224.641 512 185.361 512 141.076c0-59.507-48.412-107.918-107.918-107.918-47.548 0-89.082 31.183-102.978 75.659A231.166 231.166 0 0 0 256 104.369a231.02 231.02 0 0 0-45.104 4.448C197 64.34 155.466 33.158 107.918 33.158 48.412 33.158 0 81.569 0 141.076c0 40.476 22.167 76.765 57.336 95.354-6.09 17.817-9.182 36.326-9.182 55.177 0 33.054 9.687 65.544 28.011 93.956 17.658 27.38 42.935 50.458 73.098 66.74 32.137 17.362 69.046 26.54 106.739 26.54s74.602-9.177 106.735-26.537c56.895-30.713 94.381-84.468 100.276-143.794.64-6.439-4.062-12.178-10.501-12.818-6.438-.635-12.178 4.062-12.816 10.5-4.541 45.706-30.939 87.743-71.72 115.52v-70.133c0-45.035-40.639-81.674-90.59-81.674H234.62c-49.952 0-90.59 36.639-90.59 81.674v70.174c-45.688-30.893-72.444-78.37-72.444-130.149 0-19.49 3.822-38.57 11.357-56.708 6.446-15.502 15.504-30.035 26.923-43.193zm305.09-20.754c-12.313-13.162-26.503-24.679-42.328-34.351 2.182-15.415 15.451-27.312 31.453-27.312 17.527 0 31.786 14.259 31.786 31.786 0 13.661-8.506 25.414-20.911 29.877zM404.08 56.59c46.586 0 84.486 37.901 84.486 84.486.001 30.96-16.568 58.787-43.007 73.626a181.677 181.677 0 0 0-15.177-25.027c17.454-9.379 28.917-27.705 28.917-48.599 0-30.448-24.772-55.219-55.219-55.219-24.909 0-46.007 16.589-52.858 39.297a219.322 219.322 0 0 0-27.383-10.558C335.081 80.43 367.284 56.59 404.08 56.59zM256 379.287l-22.882-24.728h45.765L256 379.287zm-88.54-27.705c0-32.114 30.127-58.241 67.158-58.241h42.764c37.03 0 67.158 26.127 67.158 58.241v83.709c-23.62 11.511-49.84 18.262-76.823 19.779v-53.944l30.851-33.341c5.991-6.459 7.524-15.488 4-23.563a21.828 21.828 0 0 0-20.007-13.098H229.44a21.827 21.827 0 0 0-20.007 13.098c-3.524 8.075-1.991 17.105 3.991 23.553l30.861 33.351v53.944c-26.984-1.517-53.202-8.268-76.823-19.781v-83.707zM97.041 170.955c-12.403-4.457-20.909-16.211-20.909-29.879 0-17.527 14.259-31.786 31.786-31.786 16.002 0 29.272 11.896 31.453 27.311-15.823 9.671-30.016 21.189-42.33 34.354zm-30.602 43.747c-26.438-14.839-43.007-42.666-43.007-73.626 0-46.586 37.901-84.486 84.486-84.486 36.796 0 68.999 23.84 80.241 58.007a219.593 219.593 0 0 0-27.383 10.557c-6.851-22.71-27.949-39.297-52.858-39.297-30.447 0-55.219 24.772-55.219 55.219 0 20.901 11.461 39.227 28.913 48.603a181.707 181.707 0 0 0-15.173 25.023z"/><path d="M462.307 268.726a171.21 171.21 0 0 0-1.44-8.867c-1.206-6.357-7.336-10.527-13.695-9.326-6.357 1.207-10.532 7.339-9.325 13.696.478 2.52.896 5.091 1.242 7.64.795 5.879 5.823 10.145 11.594 10.145.524 0 1.053-.035 1.586-.107 6.413-.868 10.907-6.769 10.038-13.181zm-251.133-82.308c-6.47 0-11.716 5.245-11.716 11.716v25.377c0 6.471 5.247 11.716 11.716 11.716s11.716-5.245 11.716-11.716v-25.377c0-6.471-5.247-11.716-11.716-11.716zm89.652 0c-6.47 0-11.716 5.245-11.716 11.716v25.377c0 6.471 5.247 11.716 11.716 11.716 6.47 0 11.716-5.245 11.716-11.716v-25.377c.001-6.471-5.246-11.716-11.716-11.716z"/></symbol><symbol xmlns="http://www.w3.org/2000/svg" id="bookmark" fill="none" viewBox="0 0 24 24"><path stroke="currentColor" stroke-linecap="round" stroke-linejoin="round" stroke-width="1.5" d="M19.739 6.154c0-2.751-1.88-3.854-4.589-3.854H8.791C6.167 2.3 4.2 3.328 4.2 5.97v14.724a.95.95 0 0 0 1.413.828l6.382-3.58 6.327 3.574a.95.95 0 0 0 1.417-.827V6.154Z" clip-rule="evenodd"/><path stroke="currentColor" stroke-linecap="round" stroke-linejoin="round" stroke-width="1.5" d="M8.271 9.028h7.318"/></symbol><symbol xmlns="http://www.w3.org/2000/svg" id="buy" fill="none" viewBox="0 0 24 24"><path stroke="currentColor" stroke-linecap="round" stroke-linejoin="round" stroke-width="1.5" d="m2.75 3.25 2.08.36.963 11.473a1.8 1.8 0 0 0 1.8 1.653h10.909a1.8 1.8 0 0 0 1.785-1.546l.949-6.558a1.341 1.341 0 0 0-1.135-1.52C20.037 7.105 5.164 7.1 5.164 7.1m8.961 3.695h2.773"/><path fill="currentColor" fill-rule="evenodd" stroke="currentColor" stroke-linecap="round" stroke-linejoin="round" stroke-width="1.5" d="M7.154 20.203a.544.544 0 1 1 0 1.087.544.544 0 0 1 0-1.087Zm11.281 0a.545.545 0 1 1 0 1.09.545.545 0 0 1 0-1.09Z" clip-rule="evenodd"/></symbol><symbol xmlns="http://www.w3.org/2000/svg" id="calendar" fill="none" viewBox="0 0 24 24"><path stroke="currentColor" stroke-linecap="round" stroke-linejoin="round" stroke-width="1.5" d="M3.093 9.404h17.823m-4.474 3.906h.01m-4.447 0h.009m-4.456 0h.01m8.874 3.886h.01m-4.447 0h.009m-4.456 0h.01M16.044 2v3.29M7.965 2v3.29"/><path stroke="currentColor" stroke-linecap="round" stroke-linejoin="round" stroke-width="1.5" d="M16.238 3.58H7.771C4.834 3.58 3 5.214 3 8.221v9.05C3 20.326 4.834 22 7.771 22h8.458C19.175 22 21 20.355 21 17.348V8.222c.01-3.007-1.816-4.643-4.762-4.643Z" clip-rule="evenodd"/></symbol><symbol xmlns="http://www.w3.org/2000/svg" id="call" fill="none" viewBox="0 0 24 24"><path stroke="currentColor" stroke-linecap="round" stroke-linejoin="round" stroke-width="1.5" d="M11.532 12.472c3.989 3.988 4.894-.625 7.434 1.913 2.448 2.448 3.856 2.938.753 6.04-.388.312-2.857 4.07-11.534-4.605C-.493 7.144 3.262 4.672 3.574 4.284c3.11-3.11 3.592-1.695 6.04.753 2.54 2.54-2.071 3.447 1.918 7.435Z" clip-rule="evenodd"/></symbol><symbol xmlns="http://www.w3.org/2000/svg" id="calling" fill="none" viewBox="0 0 24 24"><path stroke="currentColor" stroke-linecap="round" stroke-linejoin="round" stroke-width="1.5" d="M14.353 2.5a7.97 7.97 0 0 1 7.04 7.032m-7.04-3.489a4.426 4.426 0 0 1 3.5 3.5"/><path stroke="currentColor" stroke-linecap="round" stroke-linejoin="round" stroke-width="1.5" d="M11.031 12.472c3.99 3.988 4.894-.625 7.434 1.913 2.449 2.448 3.857 2.938.754 6.04-.389.312-2.858 4.07-11.535-4.605C-.993 7.144 2.762 4.672 3.074 4.284c3.11-3.11 3.593-1.695 6.041.753 2.54 2.54-2.072 3.447 1.916 7.435Z" clip-rule="evenodd"/></symbol><symbol xmlns="http://www.w3.org/2000/svg" id="callMissed" fill="none" viewBox="0 0 24 24"><path stroke="currentColor" stroke-linecap="round" stroke-linejoin="round" stroke-width="1.5" d="m21.315 3.75-6 6m0-6 6 6"/><path stroke="currentColor" stroke-linecap="round" stroke-linejoin="round" stroke-width="1.5" d="M11.031 12.472c3.99 3.988 4.894-.625 7.434 1.913 2.449 2.448 3.857 2.938.754 6.04-.389.312-2.858 4.07-11.535-4.605C-.993 7.144 2.762 4.672 3.074 4.284c3.11-3.11 3.593-1.695 6.041.753 2.54 2.54-2.072 3.447 1.916 7.435Z" clip-rule="evenodd"/></symbol><symbol xmlns="http://www.w3.org/2000/svg" id="callSilent" fill="none" viewBox="0 0 24 24"><path stroke="currentColor" stroke-linecap="round" stroke-linejoin="round" stroke-width="1.5" d="M6.585 14.205C.154 6.918 3.37 4.74 3.655 4.385c3.068-3.112 3.544-1.695 5.955.752 2.03 2.07-.602 3.058.477 5.516m2.403 2.729c3.28 2.694 4.206-1.159 6.53 1.202 2.396 2.447 3.774 2.941.735 6.043-.357.31-2.66 3.842-10.555-3.885M4.5 21.5l15-16"/></symbol><symbol xmlns="http://www.w3.org/2000/svg" id="camera" fill="none" viewBox="0 0 24 24"><path stroke="currentColor" stroke-linecap="round" stroke-linejoin="round" stroke-width="1.5" d="M15.04 4.051c1.01.402 1.32 1.802 1.732 2.252.413.45 1.004.603 1.331.603a3.147 3.147 0 0 1 3.147 3.146v5.795a4.22 4.22 0 0 1-4.22 4.22H6.97a4.22 4.22 0 0 1-4.22-4.22v-5.795a3.147 3.147 0 0 1 3.147-3.146c.326 0 .917-.153 1.331-.603.413-.45.721-1.85 1.731-2.252 1.011-.402 5.071-.402 6.081 0Z" clip-rule="evenodd"/><path stroke="currentColor" stroke-linecap="round" stroke-linejoin="round" stroke-width="2" d="M17.495 9.5h.01"/><path stroke="currentColor" stroke-linecap="round" stroke-linejoin="round" stroke-width="1.5" d="M15.179 13.128a3.179 3.179 0 1 0-6.357 0 3.179 3.179 0 0 0 6.357 0Z" clip-rule="evenodd"/></symbol><symbol xmlns="http://www.w3.org/2000/svg" id="category" fill="none" viewBox="0 0 24 24"><path stroke="currentColor" stroke-linecap="round" stroke-linejoin="round" stroke-width="1.5" d="M3 6.5C3 3.875 3.028 3 6.5 3s3.5.875 3.5 3.5.011 3.5-3.5 3.5S3 9.125 3 6.5Zm11 0c0-2.625.028-3.5 3.5-3.5s3.5.875 3.5 3.5.011 3.5-3.5 3.5S14 9.125 14 6.5Zm-11 11c0-2.625.028-3.5 3.5-3.5s3.5.875 3.5 3.5.011 3.5-3.5 3.5S3 20.125 3 17.5Zm11 0c0-2.625.028-3.5 3.5-3.5s3.5.875 3.5 3.5.011 3.5-3.5 3.5-3.5-.875-3.5-3.5Z" clip-rule="evenodd"/></symbol><symbol xmlns="http://www.w3.org/2000/svg" id="chart" fill="none" viewBox="0 0 24 24"><path stroke="currentColor" stroke-linecap="round" stroke-linejoin="round" stroke-width="1.5" d="M7.371 10.202v6.86M12.038 6.92v10.142m4.59-3.235v3.235"/><path stroke="currentColor" stroke-linecap="round" stroke-linejoin="round" stroke-width="1.5" d="M16.686 2H7.314C4.048 2 2 4.312 2 7.585v8.83C2 19.688 4.038 22 7.314 22h9.372C19.962 22 22 19.688 22 16.415v-8.83C22 4.312 19.962 2 16.686 2Z" clip-rule="evenodd"/></symbol><symbol xmlns="http://www.w3.org/2000/svg" id="chat" fill="none" viewBox="0 0 24 24"><path stroke="currentColor" stroke-linecap="round" stroke-linejoin="round" stroke-width="1.5" d="M19.071 19.07c-3.056 3.056-7.581 3.717-11.285 2.004-.546-.22-.995-.398-1.42-.398-1.188.007-2.665 1.158-3.433.391-.767-.768.384-2.246.384-3.44 0-.427-.17-.867-.39-1.415C1.212 12.51 1.873 7.982 4.93 4.927c3.902-3.903 10.24-3.903 14.141 0 3.909 3.908 3.902 10.241 0 14.143Z" clip-rule="evenodd"/><path stroke="currentColor" stroke-linecap="round" stroke-linejoin="round" stroke-width="2" d="M15.94 12.413h.008m-4.018 0h.01m-4.019 0h.01"/></symbol><symbol xmlns="http://www.w3.org/2000/svg" id="closeSquare" fill="none" viewBox="0 0 24 24"><path stroke="currentColor" stroke-linecap="round" stroke-linejoin="round" stroke-width="1.5" d="m14.396 9.595-4.792 4.792m4.793.003L9.601 9.593"/><path stroke="currentColor" stroke-linecap="round" stroke-linejoin="round" stroke-width="1.5" d="M16.334 2.75H7.665c-3.02 0-4.915 2.14-4.915 5.166v8.168c0 3.027 1.885 5.166 4.915 5.166h8.669c3.03 0 4.916-2.139 4.916-5.166V7.916c0-3.027-1.886-5.166-4.916-5.166Z" clip-rule="evenodd"/></symbol><symbol xmlns="http://www.w3.org/2000/svg" id="dangerCircle" fill="none" viewBox="0 0 24 24"><path stroke="currentColor" stroke-linecap="round" stroke-linejoin="round" stroke-width="1.5" d="M12 2.75a9.25 9.25 0 1 1 0 18.5 9.25 9.25 0 0 1 0-18.5Z" clip-rule="evenodd"/><path stroke="currentColor" stroke-linecap="round" stroke-linejoin="round" stroke-width="1.5" d="M11.995 8.204v4.42"/><path stroke="currentColor" stroke-linecap="round" stroke-linejoin="round" stroke-width="2" d="M11.995 15.796h.01"/></symbol><symbol xmlns="http://www.w3.org/2000/svg" id="dangerTriangle" fill="none" viewBox="0 0 24 24"><path stroke="currentColor" stroke-linecap="round" stroke-linejoin="round" stroke-width="1.5" d="M4.814 20.437h14.383c1.582 0 2.575-1.71 1.79-3.084L13.8 4.788c-.79-1.383-2.785-1.384-3.577-.001L3.025 17.352c-.786 1.374.206 3.085 1.79 3.085Z" clip-rule="evenodd"/><path stroke="currentColor" stroke-linecap="round" stroke-linejoin="round" stroke-width="1.5" d="M12.003 13.415v-3.1"/><path stroke="currentColor" stroke-linecap="round" stroke-linejoin="round" stroke-width="2" d="M11.995 16.5h.01"/></symbol><symbol xmlns="http://www.w3.org/2000/svg" id="delete" fill="none" viewBox="0 0 24 24"><path stroke="currentColor" stroke-linecap="round" stroke-linejoin="round" stroke-width="1.5" d="M19.325 9.468s-.543 6.735-.858 9.572c-.15 1.355-.987 2.15-2.358 2.174-2.609.047-5.221.05-7.829-.005-1.319-.027-2.142-.83-2.289-2.162-.317-2.862-.857-9.579-.857-9.579M20.708 6.24H3.75m13.69 0a1.648 1.648 0 0 1-1.614-1.324L15.583 3.7a1.28 1.28 0 0 0-1.237-.95h-4.233a1.28 1.28 0 0 0-1.237.95l-.243 1.216A1.648 1.648 0 0 1 7.018 6.24"/></symbol><symbol xmlns="http://www.w3.org/2000/svg" id="discount" fill="none" viewBox="0 0 24 24"><path stroke="currentColor" stroke-linecap="round" stroke-linejoin="round" stroke-width="1.5" d="M4.795 7.056a2.262 2.262 0 0 1 2.261-2.262h1.029c.597 0 1.169-.237 1.593-.657l.719-.72a2.262 2.262 0 0 1 3.199-.009l.001.001.009.008.72.72a2.26 2.26 0 0 0 1.593.657h1.028a2.262 2.262 0 0 1 2.262 2.262v1.027c0 .597.236 1.17.657 1.594l.72.72c.886.881.891 2.313.01 3.199l-.001.001-.009.009-.72.72a2.256 2.256 0 0 0-.657 1.592v1.029a2.26 2.26 0 0 1-2.261 2.261h-1.031a2.26 2.26 0 0 0-1.593.658l-.72.719a2.261 2.261 0 0 1-3.2.009l-.009-.009-.719-.719a2.263 2.263 0 0 0-1.593-.658H7.056a2.26 2.26 0 0 1-2.261-2.261v-1.031c0-.597-.237-1.169-.658-1.592l-.719-.72a2.26 2.26 0 0 1-.009-3.2l.009-.009.719-.72c.421-.424.658-.996.658-1.594V7.056m4.637 7.516 5.14-5.14"/><path stroke="currentColor" stroke-linecap="round" stroke-linejoin="round" stroke-width="2" d="M14.495 14.5h.01m-5.01-5h.01"/></symbol><symbol xmlns="http://www.w3.org/2000/svg" id="discovery" fill="none" viewBox="0 0 24 24"><path stroke="currentColor" stroke-linecap="round" stroke-linejoin="round" stroke-width="1.5" d="m8.27 14.952 1.593-5.09 5.089-1.592-1.593 5.09-5.089 1.592Z" clip-rule="evenodd"/><circle cx="11.611" cy="11.611" r="9.611" stroke="currentColor" stroke-linecap="round" stroke-linejoin="round" stroke-width="1.5"/></symbol><symbol xmlns="http://www.w3.org/2000/svg" id="document" fill="none" viewBox="0 0 24 24"><path stroke="currentColor" stroke-linecap="round" stroke-linejoin="round" stroke-width="1.5" d="M15.716 16.223h-7.22m7.22-4.186h-7.22m2.755-4.177H8.496"/><path stroke="currentColor" stroke-linecap="round" stroke-linejoin="round" stroke-width="1.5" d="m15.909 2.75-7.69.004C5.46 2.77 3.75 4.587 3.75 7.357v9.196c0 2.784 1.722 4.607 4.506 4.607l7.69-.003c2.76-.017 4.47-1.834 4.47-4.604V7.357c0-2.784-1.724-4.607-4.508-4.607Z" clip-rule="evenodd"/></symbol><symbol xmlns="http://www.w3.org/2000/svg" id="download" fill="none" viewBox="0 0 24 24"><path stroke="currentColor" stroke-linecap="round" stroke-linejoin="round" stroke-width="1.5" d="M12.122 15.436V3.396m2.916 9.112-2.916 2.928-2.916-2.928"/><path stroke="currentColor" stroke-linecap="round" stroke-linejoin="round" stroke-width="1.5" d="M16.755 8.128h.933a3.684 3.684 0 0 1 3.684 3.685v4.884a3.675 3.675 0 0 1-3.675 3.675H6.557a3.685 3.685 0 0 1-3.685-3.685v-4.885a3.675 3.675 0 0 1 3.675-3.674h.942"/></symbol><symbol xmlns="http://www.w3.org/2000/svg" xml:space="preserve" id="duck" fill="currentColor" viewBox="0 0 512.001 512.001"><path d="M492.977 219.06c-11.854-6.513-25.73-6.081-37.119 1.151-32.916 20.896-79.957 30.239-136.975 27.373 12.867-20.341 19.778-43.956 19.778-68.435 0-70.739-57.551-128.291-128.29-128.291-67.26.002-122.524 51.371-127.858 117.721-10.914 10.909-37.836 34.276-71.473 38.288a12.521 12.521 0 0 0-7.725 20.921c1.592 1.727 37.457 39.74 105.634 39.738 2.705 0 5.468-.068 8.276-.192.526.556 1.044 1.121 1.58 1.667-19.416 20.845-30.445 48.099-30.664 76.66-.224 30.788 11.594 59.774 33.278 81.615 21.682 21.84 50.568 33.867 81.338 33.867h155.517c50.332 0 91.082-19.931 117.84-57.636C499.591 370.425 512 324.207 512 269.846v-18.648a36.671 36.671 0 0 0-19.023-32.138zM41.04 225.209c17.138-6.245 31.695-15.589 42.887-24.412a128.208 128.208 0 0 0 14.704 41.344c-25.533-1.704-44.748-9.525-57.591-16.932zm445.914 44.638c0 49.136-10.812 90.342-31.265 119.164-22.173 31.244-54.948 47.086-97.414 47.086H202.757c-24.045 0-46.62-9.399-63.563-26.467-16.946-17.07-26.182-39.723-26.006-63.781.199-25.927 11.87-50.51 32.015-67.442a12.528 12.528 0 0 0 4.465-9.678 12.516 12.516 0 0 0-4.605-9.612 103.705 103.705 0 0 1-13.091-12.79l-.005-.006c-16.028-18.66-24.854-42.515-24.854-67.17 0-1.628.035-3.11.113-4.625 2.423-55.299 47.73-98.618 103.148-98.618 56.928 0 103.243 46.315 103.243 103.244 0 26.306-9.92 51.373-27.934 70.583a12.521 12.521 0 0 0 7.868 21.026c72.976 7.425 133.734-2.74 175.735-29.401 5.133-3.261 9.843-1.328 11.629-.346 1.816.998 6.039 3.989 6.039 10.187v18.646z"/><path d="M302.82 374.732h-10.432c-6.915 0-12.523 5.607-12.523 12.524s5.607 12.524 12.523 12.524h10.432c6.916 0 12.524-5.607 12.524-12.524s-5.609-12.524-12.524-12.524zm122.757-50.682c-5.768-3.817-13.538-2.238-17.355 3.53-13.842 20.912-34.649 36.216-58.586 43.091-6.649 1.91-10.488 8.847-8.58 15.494 1.576 5.494 6.585 9.07 12.029 9.07 1.145 0 2.309-.158 3.464-.49 29.662-8.52 55.429-27.463 72.559-53.34 3.816-5.767 2.236-13.538-3.531-17.355zm-246.49-197.685c-6.916 0-12.524 5.607-12.524 12.524v31.434c0 6.917 5.608 12.524 12.524 12.524s12.524-5.607 12.524-12.524v-31.434c0-6.917-5.608-12.524-12.524-12.524z"/></symbol><symbol xmlns="http://www.w3.org/2000/svg" id="edit" fill="none" viewBox="0 0 24 24"><path stroke="currentColor" stroke-linecap="round" stroke-linejoin="round" stroke-width="1.5" d="M13.747 20.443H21"/><path stroke="currentColor" stroke-linecap="round" stroke-linejoin="round" stroke-width="1.5" d="M12.78 3.795a2.245 2.245 0 0 1 3.116-.303l1.733 1.347a2.142 2.142 0 0 1 .72 2.984c-.034.054-9.537 11.942-9.537 11.942a1.699 1.699 0 0 1-1.31.632l-3.638.046-.82-3.47a1.63 1.63 0 0 1 .316-1.396l9.42-11.782Z" clip-rule="evenodd"/><path stroke="currentColor" stroke-linecap="round" stroke-linejoin="round" stroke-width="1.5" d="m11.02 6 5.453 4.188"/></symbol><symbol xmlns="http://www.w3.org/2000/svg" id="editSquare" fill="none" viewBox="0 0 24 24"><path stroke="currentColor" stroke-linecap="round" stroke-linejoin="round" stroke-width="1.5" d="M11.492 2.789H7.753c-3.075 0-5.003 2.177-5.003 5.259v8.314c0 3.082 1.92 5.259 5.003 5.259h8.824c3.085 0 5.004-2.177 5.004-5.26v-4.027"/><path stroke="currentColor" stroke-linecap="round" stroke-linejoin="round" stroke-width="1.5" d="M8.828 10.92 16.3 3.449c.93-.93 2.44-.93 3.37 0l1.218 1.217a2.383 2.383 0 0 1 0 3.37l-7.51 7.51a2.17 2.17 0 0 1-1.534.636H8.099l.094-3.78a2.17 2.17 0 0 1 .635-1.48Z" clip-rule="evenodd"/><path stroke="currentColor" stroke-linecap="round" stroke-linejoin="round" stroke-width="1.5" d="m15.165 4.602 4.566 4.566"/></symbol><symbol xmlns="http://www.w3.org/2000/svg" id="filter" fill="none" viewBox="0 0 24 24"><path stroke="currentColor" stroke-linecap="round" stroke-linejoin="round" stroke-width="1.5" d="M10.33 16.593h-6.3M13.14 6.9h6.301"/><path stroke="currentColor" stroke-linecap="round" stroke-linejoin="round" stroke-width="1.5" d="M8.726 6.846A2.355 2.355 0 0 0 6.363 4.5 2.355 2.355 0 0 0 4 6.846a2.355 2.355 0 0 0 2.363 2.347 2.355 2.355 0 0 0 2.363-2.347ZM20 16.554a2.354 2.354 0 0 0-2.362-2.346 2.355 2.355 0 0 0-2.364 2.346 2.355 2.355 0 0 0 2.364 2.346A2.354 2.354 0 0 0 20 16.554Z" clip-rule="evenodd"/></symbol><symbol xmlns="http://www.w3.org/2000/svg" id="filter3" fill="none" viewBox="0 0 24 24"><path stroke="currentColor" stroke-linecap="round" stroke-linejoin="round" stroke-width="1.5" d="M4.565 3C3.701 3 3 3.713 3 4.59v.936c0 .65.247 1.276.69 1.746l4.845 5.152.002-.003A5.157 5.157 0 0 1 10 16.023v4.572c0 .306.32.5.585.357l2.76-1.504a1.31 1.31 0 0 0 .676-1.15v-2.287c0-1.342.519-2.631 1.446-3.587l4.846-5.152c.44-.47.688-1.096.688-1.746V4.59C21 3.713 20.3 3 19.436 3H4.566Z" clip-rule="evenodd"/></symbol><symbol xmlns="http://www.w3.org/2000/svg" id="folder" fill="none" viewBox="0 0 24 24"><path stroke="currentColor" stroke-linecap="round" stroke-linejoin="round" stroke-width="1.5" d="M21.419 15.732c0 3.578-2.109 5.687-5.687 5.687H7.95c-3.587 0-5.7-2.109-5.7-5.687v-7.8c0-3.573 1.314-5.682 4.893-5.682h2a2.28 2.28 0 0 1 1.824.913l.913 1.214a2.29 2.29 0 0 0 1.826.913h2.83c3.587 0 4.911 1.826 4.911 5.477l-.028 4.965Z" clip-rule="evenodd"/><path stroke="currentColor" stroke-linecap="round" stroke-linejoin="round" stroke-width="1.5" d="M7.481 14.463h8.735"/></symbol><symbol xmlns="http://www.w3.org/2000/svg" id="game" fill="none" viewBox="0 0 24 24"><path stroke="currentColor" stroke-linecap="round" stroke-linejoin="round" stroke-width="1.5" d="M8.848 12.314v3.745m1.912-1.872H6.937m8.429-1.759h-.107m1.921 3.575h-.107M8.072 2c0 .74.613 1.34 1.368 1.34h1.057c1.165.005 2.11.93 2.115 2.073v.675"/><path stroke="currentColor" stroke-linecap="round" stroke-linejoin="round" stroke-width="1.5" d="M16.428 21.963c-3.005.05-5.955.048-8.855 0C4.353 21.963 2 19.666 2 16.51v-4.65c0-3.154 2.354-5.45 5.573-5.45 2.916-.05 5.868-.05 8.855 0 3.22 0 5.572 2.297 5.572 5.45v4.65c0 3.155-2.352 5.452-5.572 5.452Z" clip-rule="evenodd"/></symbol><symbol xmlns="http://www.w3.org/2000/svg" id="graph" fill="none" viewBox="0 0 24 24"><path stroke="currentColor" stroke-linecap="round" stroke-linejoin="round" stroke-width="1.5" d="M17.278 13.89c.675 0 1.241.556 1.138 1.222-.605 3.92-3.961 6.83-8.009 6.83A8.107 8.107 0 0 1 2.3 13.837c0-3.688 2.802-7.124 5.957-7.9.678-.168 1.373.309 1.373 1.007 0 4.728.158 5.951 1.056 6.617.898.665 1.954.33 6.592.33Z" clip-rule="evenodd"/><path stroke="currentColor" stroke-linecap="round" stroke-linejoin="round" stroke-width="1.5" d="M21.693 9.952c.053-3.038-3.678-7.935-8.226-7.851a.679.679 0 0 0-.652.654c-.115 2.498.04 5.734.126 7.202a.89.89 0 0 0 .841.842c1.508.086 4.863.204 7.325-.168a.694.694 0 0 0 .586-.68Z" clip-rule="evenodd"/></symbol><symbol xmlns="http://www.w3.org/2000/svg" id="heart" fill="none" viewBox="0 0 24 24"><path stroke="currentColor" stroke-linecap="round" stroke-linejoin="round" stroke-width="1.5" d="M2.872 11.598c-1.073-3.35.18-7.179 3.698-8.312a6.007 6.007 0 0 1 5.43.912c1.455-1.125 3.572-1.505 5.42-.912 3.517 1.133 4.779 4.962 3.707 8.312-1.67 5.31-9.127 9.4-9.127 9.4s-7.402-4.028-9.128-9.4Z" clip-rule="evenodd"/><path stroke="currentColor" stroke-linecap="round" stroke-linejoin="round" stroke-width="1.5" d="M16 6.7a2.781 2.781 0 0 1 1.917 2.422"/></symbol><symbol xmlns="http://www.w3.org/2000/svg" id="hide" fill="none" viewBox="0 0 24 24"><path stroke="currentColor" stroke-linecap="round" stroke-linejoin="round" stroke-width="1.5" d="M9.76 14.367a3.123 3.123 0 0 1-.925-2.23A3.16 3.16 0 0 1 12 8.973c.867 0 1.665.35 2.23.925m.875 2.801a3.158 3.158 0 0 1-2.537 2.542"/><path stroke="currentColor" stroke-linecap="round" stroke-linejoin="round" stroke-width="1.5" d="M6.655 17.472c-1.587-1.246-2.931-3.066-3.905-5.335.984-2.279 2.337-4.109 3.934-5.365C8.27 5.516 10.1 4.834 11.999 4.834c1.91 0 3.74.692 5.336 1.957m2.113 2.199a15.358 15.358 0 0 1 1.802 3.147c-1.968 4.557-5.444 7.302-9.25 7.302a7.98 7.98 0 0 1-2.532-.413M19.887 4.25 4.113 20.024"/></symbol><symbol xmlns="http://www.w3.org/2000/svg" id="home" fill="none" viewBox="0 0 24 24"><path stroke="currentColor" stroke-linecap="round" stroke-linejoin="round" stroke-width="1.5" d="M9.157 20.771v-3.066c0-.78.636-1.414 1.424-1.42h2.886c.792 0 1.433.636 1.433 1.42v3.076c0 .662.534 1.204 1.203 1.219h1.924c1.918 0 3.473-1.54 3.473-3.438v0-8.724a2.44 2.44 0 0 0-.962-1.905l-6.58-5.248a3.18 3.18 0 0 0-3.945 0L3.462 7.943A2.42 2.42 0 0 0 2.5 9.847v8.715C2.5 20.46 4.055 22 5.973 22h1.924c.685 0 1.241-.55 1.241-1.229v0"/></symbol><symbol xmlns="http://www.w3.org/2000/svg" id="image" fill="none" viewBox="0 0 24 24"><path stroke="currentColor" stroke-linecap="round" stroke-linejoin="round" stroke-width="1.5" d="M21.21 7.9v8.15c0 3.02-1.89 5.15-4.91 5.15H7.65c-3.02 0-4.9-2.13-4.9-5.15V7.9c0-3.02 1.89-5.15 4.9-5.15h8.65c3.02 0 4.91 2.13 4.91 5.15Z" clip-rule="evenodd"/><path stroke="currentColor" stroke-linecap="round" stroke-linejoin="round" stroke-width="1.5" d="m5.281 16.43 1.528-1.612a1.401 1.401 0 0 1 1.98-.06l.937.952a1.434 1.434 0 0 0 2.027.02c.037-.036 2.334-2.822 2.334-2.822a1.687 1.687 0 0 1 2.375-.23c.048.04 2.218 2.268 2.218 2.268"/><path stroke="currentColor" stroke-linecap="round" stroke-linejoin="round" stroke-width="1.5" d="M10.313 9.133a1.754 1.754 0 1 1-3.508.001 1.754 1.754 0 0 1 3.508 0Z" clip-rule="evenodd"/></symbol><symbol xmlns="http://www.w3.org/2000/svg" id="image3" fill="none" viewBox="0 0 24 24"><path stroke="currentColor" stroke-linecap="round" stroke-linejoin="round" stroke-width="1.5" d="M16.303 2.75H7.65c-3.012 0-4.901 2.134-4.901 5.154v8.146c0 3.02 1.88 5.154 4.9 5.154h8.648c3.025 0 4.905-2.134 4.905-5.154V7.904c.004-3.02-1.877-5.154-4.9-5.154Z" clip-rule="evenodd"/><path stroke="currentColor" stroke-linecap="round" stroke-linejoin="round" stroke-width="1.5" d="M10.703 8.785a1.845 1.845 0 1 1-3.69.001 1.845 1.845 0 0 1 3.69-.001Z" clip-rule="evenodd"/><path stroke="currentColor" stroke-linecap="round" stroke-linejoin="round" stroke-width="1.5" d="M21.207 14.95c-.923-.95-2.698-2.868-4.628-2.868-1.931 0-3.044 4.233-4.901 4.233-1.857 0-3.544-1.914-5.032-.687C5.158 16.854 3.75 19.36 3.75 19.36"/></symbol><symbol xmlns="http://www.w3.org/2000/svg" id="infoSquare" fill="none" viewBox="0 0 24 24"><path stroke="currentColor" stroke-linecap="round" stroke-linejoin="round" stroke-width="1.5" d="M16.334 2.75H7.665c-3.021 0-4.915 2.14-4.915 5.166v8.168c0 3.027 1.885 5.166 4.915 5.166h8.668c3.031 0 4.917-2.139 4.917-5.166V7.916c0-3.027-1.886-5.166-4.916-5.166Z" clip-rule="evenodd"/><path stroke="currentColor" stroke-linecap="round" stroke-linejoin="round" stroke-width="1.5" d="M11.995 16v-4"/><path stroke="currentColor" stroke-linecap="round" stroke-linejoin="round" stroke-width="2" d="M11.99 8.204H12"/></symbol><symbol xmlns="http://www.w3.org/2000/svg" id="location" fill="none" viewBox="0 0 24 24"><path stroke="currentColor" stroke-linecap="round" stroke-linejoin="round" stroke-width="1.5" d="M14.5 10.5a2.5 2.5 0 1 0-5 0 2.5 2.5 0 0 0 5 0Z" clip-rule="evenodd"/><path stroke="currentColor" stroke-linecap="round" stroke-linejoin="round" stroke-width="1.5" d="M12 21c-1.199 0-7.5-5.102-7.5-10.437C4.5 6.387 7.857 3 12 3c4.142 0 7.5 3.387 7.5 7.563C19.5 15.898 13.198 21 12 21Z" clip-rule="evenodd"/></symbol><symbol xmlns="http://www.w3.org/2000/svg" id="lock" fill="none" viewBox="0 0 24 24"><path stroke="currentColor" stroke-linecap="round" stroke-linejoin="round" stroke-width="1.5" d="M16.424 9.448V7.3a4.552 4.552 0 0 0-4.551-4.551 4.55 4.55 0 0 0-4.57 4.53v2.168"/><path stroke="currentColor" stroke-linecap="round" stroke-linejoin="round" stroke-width="1.5" d="M15.683 21.25h-7.64a3.792 3.792 0 0 1-3.793-3.792v-4.29a3.792 3.792 0 0 1 3.792-3.791h7.641a3.792 3.792 0 0 1 3.792 3.792v4.289a3.792 3.792 0 0 1-3.792 3.792Z" clip-rule="evenodd"/><path stroke="currentColor" stroke-linecap="round" stroke-linejoin="round" stroke-width="1.5" d="M11.863 14.203v2.22"/></symbol><symbol xmlns="http://www.w3.org/2000/svg" id="login" fill="none" viewBox="0 0 24 24"><path stroke="currentColor" stroke-linecap="round" stroke-linejoin="round" stroke-width="1.5" d="M15.813 12.022H3.77m9.115-2.916 2.928 2.916-2.928 2.916"/><path stroke="currentColor" stroke-linecap="round" stroke-linejoin="round" stroke-width="1.5" d="M8.504 7.389v-.933a3.684 3.684 0 0 1 3.685-3.684h4.884a3.675 3.675 0 0 1 3.675 3.675v11.14a3.685 3.685 0 0 1-3.685 3.685h-4.885a3.675 3.675 0 0 1-3.674-3.675v-.942"/></symbol><symbol xmlns="http://www.w3.org/2000/svg" id="logout" fill="none" viewBox="0 0 24 24"><path stroke="currentColor" stroke-linecap="round" stroke-linejoin="round" stroke-width="1.5" d="M15.016 7.39v-.934a3.685 3.685 0 0 0-3.685-3.685H6.456a3.685 3.685 0 0 0-3.684 3.685v11.13a3.685 3.685 0 0 0 3.684 3.686h4.885a3.675 3.675 0 0 0 3.675-3.674v-.944m6.794-4.633H9.769m9.112-2.915 2.928 2.915-2.928 2.916"/></symbol><symbol xmlns="http://www.w3.org/2000/svg" id="message" fill="none" viewBox="0 0 24 24"><path stroke="currentColor" stroke-linecap="round" stroke-linejoin="round" stroke-width="1.5" d="m17.903 8.851-4.444 3.613c-.84.666-2.02.666-2.86 0L6.12 8.851"/><path stroke="currentColor" stroke-linecap="round" stroke-linejoin="round" stroke-width="1.5" d="M16.909 21C19.95 21.008 22 18.51 22 15.438V8.57C22 5.499 19.95 3 16.909 3H7.09C4.05 3 2 5.499 2 8.57v6.868C2 18.51 4.05 21.008 7.091 21h9.818Z" clip-rule="evenodd"/></symbol><symbol xmlns="http://www.w3.org/2000/svg" id="moreCircle" fill="none" viewBox="0 0 24 24"><path stroke="currentColor" stroke-linecap="round" stroke-linejoin="round" stroke-width="1.5" d="M12 2.75a9.25 9.25 0 1 1 0 18.5 9.25 9.25 0 0 1 0-18.5Z" clip-rule="evenodd"/><path stroke="currentColor" stroke-linecap="round" stroke-linejoin="round" stroke-width="2" d="M15.94 12.013h.008m-4.018 0h.01m-4.018 0h.009"/></symbol><symbol xmlns="http://www.w3.org/2000/svg" id="moreSquare" fill="none" viewBox="0 0 24 24"><path stroke="currentColor" stroke-linecap="round" stroke-linejoin="round" stroke-width="1.5" d="M16.334 2.75H7.665c-3.02 0-4.915 2.14-4.915 5.166v8.168c0 3.027 1.884 5.166 4.915 5.166h8.668c3.031 0 4.917-2.139 4.917-5.166V7.916c0-3.027-1.886-5.166-4.916-5.166Z" clip-rule="evenodd"/><path stroke="currentColor" stroke-linecap="round" stroke-linejoin="round" stroke-width="2" d="M15.94 12.013h.008m-4.018 0h.01m-4.018 0h.009"/></symbol><symbol xmlns="http://www.w3.org/2000/svg" id="notification" fill="none" viewBox="0 0 24 24"><path stroke="currentColor" stroke-linecap="round" stroke-linejoin="round" stroke-width="1.5" d="M12 17.848c5.64 0 8.248-.724 8.5-3.627 0-2.902-1.819-2.716-1.819-6.276C18.681 5.165 16.045 2 12 2S5.319 5.164 5.319 7.945c0 3.56-1.819 3.374-1.819 6.275.253 2.915 2.862 3.628 8.5 3.628Z" clip-rule="evenodd"/><path stroke="currentColor" stroke-linecap="round" stroke-linejoin="round" stroke-width="1.5" d="M14.389 20.857c-1.364 1.515-3.492 1.533-4.87 0"/></symbol><symbol xmlns="http://www.w3.org/2000/svg" id="paper" fill="none" viewBox="0 0 24 24"><path stroke="currentColor" stroke-linecap="round" stroke-linejoin="round" stroke-width="1.5" d="M14.738 2.762H8.085A3.82 3.82 0 0 0 4.25 6.49v10.713a3.828 3.828 0 0 0 3.742 3.91c.03 0 .06.002.092 0h7.989a3.887 3.887 0 0 0 3.729-3.91V8.038l-5.065-5.276Z" clip-rule="evenodd"/><path stroke="currentColor" stroke-linecap="round" stroke-linejoin="round" stroke-width="1.5" d="M14.475 2.75v2.909a2.574 2.574 0 0 0 2.568 2.575h2.755m-5.51 7.124h-5.4m3.355-3.752H8.887"/></symbol><symbol xmlns="http://www.w3.org/2000/svg" id="paperDownload" fill="none" viewBox="0 0 24 24"><path stroke="currentColor" stroke-linecap="round" stroke-linejoin="round" stroke-width="1.5" d="M14.737 2.762H8.085A3.82 3.82 0 0 0 4.25 6.49v10.737a3.807 3.807 0 0 0 3.724 3.887h8.098a3.867 3.867 0 0 0 3.73-3.887v-9.19l-5.066-5.276Z" clip-rule="evenodd"/><path stroke="currentColor" stroke-linecap="round" stroke-linejoin="round" stroke-width="1.5" d="M14.475 2.75v2.91a2.575 2.575 0 0 0 2.569 2.574h2.754m-8.156 7.716V9.909m-2.346 3.686 2.345 2.354 2.345-2.354"/></symbol><symbol xmlns="http://www.w3.org/2000/svg" id="paperFail" fill="none" viewBox="0 0 24 24"><path stroke="currentColor" stroke-linecap="round" stroke-linejoin="round" stroke-width="1.5" d="M14.737 2.762H7.98a3.729 3.729 0 0 0-3.73 3.729V17.34a3.798 3.798 0 0 0 3.822 3.777l.118-.002h7.883a3.768 3.768 0 0 0 3.73-3.775v-9.3l-5.066-5.278Z" clip-rule="evenodd"/><path stroke="currentColor" stroke-linecap="round" stroke-linejoin="round" stroke-width="1.5" d="M14.474 2.75v2.91a2.574 2.574 0 0 0 2.568 2.574h2.755m-6.221 6.414-3.466-3.466m.001 3.466 3.466-3.466"/></symbol><symbol xmlns="http://www.w3.org/2000/svg" id="paperNegative" fill="none" viewBox="0 0 24 24"><path stroke="currentColor" stroke-linecap="round" stroke-linejoin="round" stroke-width="1.5" d="M14.737 2.762H8.085A3.819 3.819 0 0 0 4.25 6.49v10.85a3.714 3.714 0 0 0 3.65 3.777c.06 0 .123 0 .185-.002h7.988a3.769 3.769 0 0 0 3.73-3.775v-9.3l-5.066-5.278Z" clip-rule="evenodd"/><path stroke="currentColor" stroke-linecap="round" stroke-linejoin="round" stroke-width="1.5" d="M14.473 2.75v2.91a2.575 2.575 0 0 0 2.57 2.574h2.753m-5.503 5.513h-4.9"/></symbol><symbol xmlns="http://www.w3.org/2000/svg" id="paperPlus" fill="none" viewBox="0 0 24 24"><path stroke="currentColor" stroke-linecap="round" stroke-linejoin="round" stroke-width="1.5" d="M14.737 2.762H8.085A3.82 3.82 0 0 0 4.25 6.49v10.85a3.714 3.714 0 0 0 3.65 3.777c.06 0 .123 0 .185-.002h7.988a3.769 3.769 0 0 0 3.73-3.775v-9.3l-5.066-5.278Z" clip-rule="evenodd"/><path stroke="currentColor" stroke-linecap="round" stroke-linejoin="round" stroke-width="1.5" d="M14.474 2.75v2.91a2.575 2.575 0 0 0 2.57 2.574h2.753m-5.503 4.68h-4.9m2.451 2.45v-4.9"/></symbol><symbol xmlns="http://www.w3.org/2000/svg" id="paperUpload" fill="none" viewBox="0 0 24 24"><path stroke="currentColor" stroke-linecap="round" stroke-linejoin="round" stroke-width="1.5" d="M14.737 2.762H8.085A3.82 3.82 0 0 0 4.25 6.49v10.737a3.807 3.807 0 0 0 3.724 3.887h8.098a3.867 3.867 0 0 0 3.73-3.887v-9.19l-5.066-5.276Z" clip-rule="evenodd"/><path stroke="currentColor" stroke-linecap="round" stroke-linejoin="round" stroke-width="1.5" d="M14.475 2.75v2.91a2.575 2.575 0 0 0 2.569 2.574h2.754M11.64 9.909v6.04m2.347-3.685L11.642 9.91l-2.345 2.355"/></symbol><symbol xmlns="http://www.w3.org/2000/svg" id="password" fill="none" viewBox="0 0 24 24"><path stroke="currentColor" stroke-linecap="round" stroke-linejoin="round" stroke-width="1.5" d="M16.334 2.75H7.665c-3.021 0-4.915 2.14-4.915 5.166v8.168c0 3.027 1.885 5.166 4.915 5.166h8.668c3.031 0 4.917-2.139 4.917-5.166V7.916c0-3.027-1.886-5.166-4.916-5.166Z" clip-rule="evenodd"/><path stroke="currentColor" stroke-linecap="round" stroke-linejoin="round" stroke-width="1.5" d="M10.69 12a1.852 1.852 0 1 1-1.853-1.852h.003A1.852 1.852 0 0 1 10.69 12Z" clip-rule="evenodd"/><path stroke="currentColor" stroke-linecap="round" stroke-linejoin="round" stroke-width="1.5" d="M10.692 12h6.318v1.852m-2.828 0V12"/></symbol><symbol xmlns="http://www.w3.org/2000/svg" id="play" fill="none" viewBox="0 0 24 24"><path stroke="currentColor" stroke-linecap="round" stroke-linejoin="round" stroke-width="1.5" d="M12 2.5a9.5 9.5 0 0 1 0 19A9.5 9.5 0 0 1 2.5 12 9.5 9.5 0 0 1 12 2.5Z" clip-rule="evenodd"/><path stroke="currentColor" stroke-linecap="round" stroke-linejoin="round" stroke-width="1.5" d="M15 11.995c0-.811-4.158-3.406-4.63-2.94-.47.467-.516 5.369 0 5.88.518.512 4.63-2.129 4.63-2.94Z" clip-rule="evenodd"/></symbol><symbol xmlns="http://www.w3.org/2000/svg" id="plus" fill="none" viewBox="0 0 24 24"><path stroke="currentColor" stroke-linecap="round" stroke-linejoin="round" stroke-width="1.5" d="M12 8.327v7.327m3.667-3.664H8.333"/><path stroke="currentColor" stroke-linecap="round" stroke-linejoin="round" stroke-width="1.5" d="M16.686 2H7.314C4.048 2 2 4.312 2 7.585v8.83C2 19.688 4.038 22 7.314 22h9.372C19.962 22 22 19.688 22 16.415v-8.83C22 4.312 19.962 2 16.686 2Z" clip-rule="evenodd"/></symbol><symbol xmlns="http://www.w3.org/2000/svg" id="profile" fill="none" viewBox="0 0 24 24"><path stroke="currentColor" stroke-linecap="round" stroke-linejoin="round" stroke-width="1.5" d="M11.985 15.346c-3.868 0-7.17.585-7.17 2.927s3.281 2.948 7.17 2.948c3.867 0 7.17-.586 7.17-2.927s-3.282-2.948-7.17-2.948Z" clip-rule="evenodd"/><path stroke="currentColor" stroke-linecap="round" stroke-linejoin="round" stroke-width="1.429" d="M11.985 12.006A4.596 4.596 0 1 0 7.388 7.41a4.58 4.58 0 0 0 4.564 4.596h.033Z" clip-rule="evenodd"/></symbol><symbol xmlns="http://www.w3.org/2000/svg" id="scan" fill="none" viewBox="0 0 24 24"><path stroke="currentColor" stroke-linecap="round" stroke-linejoin="round" stroke-width="1.5" d="M22.5 12.806h-21m19.13-4.211V7.082a3.732 3.732 0 0 0-3.733-3.732h-1.205M3.37 8.595V7.082A3.732 3.732 0 0 1 7.103 3.35H8.34m12.29 9.455v4.074a3.733 3.733 0 0 1-3.733 3.733h-1.205M3.37 12.805v4.074a3.733 3.733 0 0 0 3.733 3.733H8.34"/></symbol><symbol xmlns="http://www.w3.org/2000/svg" id="search" fill="none" viewBox="0 0 24 24"><circle cx="11.767" cy="11.767" r="8.989" stroke="currentColor" stroke-linecap="round" stroke-linejoin="round" stroke-width="1.5"/><path stroke="currentColor" stroke-linecap="round" stroke-linejoin="round" stroke-width="1.5" d="M18.018 18.485 21.542 22"/></symbol><symbol xmlns="http://www.w3.org/2000/svg" id="send" fill="none" viewBox="0 0 24 24"><path stroke="currentColor" stroke-linecap="round" stroke-linejoin="round" stroke-width="1.5" d="m15.832 8.175-5.723 5.784-6.51-4.071c-.932-.584-.738-2 .317-2.31L19.37 3.054c.966-.283 1.862.62 1.575 1.589l-4.573 15.445c-.313 1.056-1.722 1.245-2.3.308l-3.967-6.435"/></symbol><symbol xmlns="http://www.w3.org/2000/svg" id="setting" fill="none" viewBox="0 0 24 24"><path stroke="currentColor" stroke-linecap="round" stroke-linejoin="round" stroke-width="1.5" d="m20.807 7.624-.623-1.08a1.913 1.913 0 0 0-2.608-.705v0a1.904 1.904 0 0 1-2.61-.678 1.832 1.832 0 0 1-.255-.915v0a1.913 1.913 0 0 0-1.914-1.968h-1.254A1.904 1.904 0 0 0 9.64 4.191v0a1.913 1.913 0 0 1-1.913 1.886 1.83 1.83 0 0 1-.916-.257v0a1.913 1.913 0 0 0-2.608.705l-.669 1.099a1.913 1.913 0 0 0 .696 2.608v0a1.913 1.913 0 0 1 0 3.314v0a1.904 1.904 0 0 0-.696 2.6v0l.632 1.089a1.913 1.913 0 0 0 2.609.741v0a1.895 1.895 0 0 1 2.6.696c.164.277.252.593.255.915v0c0 1.056.857 1.913 1.913 1.913h1.255a1.91 1.91 0 0 0 1.912-1.904v0a1.904 1.904 0 0 1 1.914-1.913c.321.009.636.097.915.256v0a1.913 1.913 0 0 0 2.609-.695v0l.659-1.099a1.904 1.904 0 0 0-.696-2.608v0a1.904 1.904 0 0 1-.696-2.609c.166-.29.406-.53.696-.696v0a1.913 1.913 0 0 0 .696-2.6v0-.008Z" clip-rule="evenodd"/><circle cx="12.175" cy="11.889" r="2.636" stroke="currentColor" stroke-linecap="round" stroke-linejoin="round" stroke-width="1.5"/></symbol><symbol xmlns="http://www.w3.org/2000/svg" id="shieldDone" fill="none" viewBox="0 0 24 24"><path stroke="currentColor" stroke-linecap="round" stroke-linejoin="round" stroke-width="1.5" d="M11.985 21.606s7.672-2.323 7.672-8.727c0-6.405.278-6.905-.337-7.521-.616-.616-6.33-2.608-7.335-2.608-1.006 0-6.72 1.992-7.334 2.608-.616.616-.338 1.116-.338 7.521 0 6.404 7.672 8.727 7.672 8.727Z" clip-rule="evenodd"/><path stroke="currentColor" stroke-linecap="round" stroke-linejoin="round" stroke-width="1.5" d="m9.386 11.875 1.892 1.895 3.898-3.9"/></symbol><symbol xmlns="http://www.w3.org/2000/svg" id="shieldFail" fill="none" viewBox="0 0 24 24"><path stroke="currentColor" stroke-linecap="round" stroke-linejoin="round" stroke-width="1.5" d="M11.985 21.606s7.672-2.323 7.672-8.727c0-6.405.278-6.905-.338-7.521-.615-.616-6.328-2.608-7.334-2.608-1.006 0-6.72 1.992-7.335 2.608-.615.616-.337 1.116-.337 7.521 0 6.404 7.672 8.727 7.672 8.727Z" clip-rule="evenodd"/><path stroke="currentColor" stroke-linecap="round" stroke-linejoin="round" stroke-width="1.5" d="m13.864 13.825-3.758-3.758m0 3.758 3.758-3.758"/></symbol><symbol xmlns="http://www.w3.org/2000/svg" id="shirt" fill="none" viewBox="0 0 960 960"><path fill="currentColor" d="M722.54 528.775c2.067 75.926 30.678 315.703-82.027 316.511-131.239-.406-261.236-19.418-391.822-29.398-15.58-.655-22.797-5.772-28.071-20.608-.398-1.12-.789-2.663-1.658-3.134-13.051-7.077-15.423-19.883-15.998-32.553-3.819-67.054 3.122-132.52 6.641-199.669-33.627 15.793-75.934 44.557-108.864 11.964-32.696-50.936-55.738-112.113-60.575-172.982-3.789-51.985 58.268-89.448 86.292-128.878 27.113-31.049 53.448-62.778 80.571-93.818 29.761-31.18 69.667-58.105 113.869-59.544 10.651-.664 21.313-1.78 31.958-1.656 8.758.067 17.67 4.919 26.515 4.392 68.241-6.117 136.796 5.202 205.144 6.192 10.195.1 16.994 10.168 27.2 8.481 24.954-1.205 50.293-2.722 74.103 7.241 16.101-1.688 25.324 9.537 35.376 18.982 60.653 58.014 123.404 113.945 182.623 173.406 14.753 15.571 19.319 34.261 11.198 53.658-25.797 53.912-69.657 97.088-104.812 144.964-24.737 34.195-60.396 20.72-87.663-3.551ZM291.049 177.956c-33.417 79.131-17.197 166.401-25.013 249.703-3.886 59.45-8.305 118.866-12.158 178.319-1.802 28.494-3.295 57.006-5.143 85.496-.338 5.218 1.001 7.502 6.595 8.043 124.028 14.002 248.909 18.038 373.223 29.227 12.846.921 25.813.326 38.72.11 3.23-.054 7.064-.008 7.535-5.162 9.964-83.836-.055-168.754-3.193-252.841-7.049-87.113-2.913-173.142.631-260.554-51.466 128.617-253.163 175.415-334.052 51.254-15.96-28.402-32.631-53.995-47.145-83.595Zm-64.251 46.188c-26.026 31.607-58.602 68.14-86.666 101.512-2.736 8.922 4.724 18.867 6.434 27.821 17.043 51.847 34.963 103.186 50.576 155.529 6.731-3.536 17.862-.525 17.111-10.378 4.266-91.324 8.707-183.284 12.545-274.484Zm495.001 234.077 2.297-.68 94.38-140.164-97.608-94.979c-3.027 79.181-9.025 158.041.931 235.823Zm-57.352 314.164-415.84-27.877 3.224 22.401c112.567 11.993 223.269 23.829 336.027 29.19 17.601.933 35.244 1.596 52.857 1.41 14.055-.269 18.303-14.175 23.732-25.124ZM559.968 175.503l-161.159-8.686c15.407 52.072 110.32 90.877 146.086 42.11 5.441-10.807 9.989-22.064 15.073-33.424Zm-236.464-17.09c15.729 31.939 37.309 62.233 55.905 93.053 5.217 8.091 12.757 15.975 21.097 20.536 89.411 54.243 206.439 6.398 241.905-89.956-4.504 0-7.279.391-9.908-.066-26.82-4.978-30.812 27.614-41.13 45.009-10.634 22.916-28.023 38.481-52.036 45.811-85.984 29.169-179.311-28.761-198.732-116.417l-17.101 2.03ZM104.519 367.005c-38.78 33.914 11.187 109.945 22.801 150.843 8.726 23.138 13.286 23.766 34.467 10.389-16.971-54.299-32.846-108.987-57.268-161.232Zm746.853-19.665c-33.924 44.523-64.835 93.171-97.619 139.163-2.802 7.436 12.287 13.381 17.385 19.26 31.538-43.471 68.107-83.117 97.927-127.882 9.607-13.528-10.231-21.515-17.693-30.541Z"/><path d="M291.05 177.957c14.496 29.586 31.189 55.205 47.151 83.596 80.91 124.158 282.563 77.362 334.047-51.256-3.543 87.404-7.678 173.445-.633 260.554 3.144 84.089 13.154 169.003 3.198 252.841 2.652 9.47-39.877 4.424-46.258 5.052-124.314-11.189-249.195-15.225-373.224-29.225-5.594-.542-6.933-2.825-6.595-8.043 1.848-28.49 3.341-57.004 5.143-85.497 3.853-59.452 8.272-118.868 12.16-178.318 7.808-83.31-8.402-170.564 25.011-249.704Zm-64.257 46.188c-3.838 91.203-8.279 183.158-12.544 274.484.748 9.867-10.376 6.821-17.111 10.378-15.613-52.341-33.534-103.683-50.574-155.529-1.722-8.952-9.164-18.9-6.439-27.821 28.046-33.349 60.665-69.94 86.668-101.512ZM721.802 458.22c-9.957-77.8-3.958-156.622-.931-235.822l97.608 94.979-94.38 140.164-2.297.679Zm-57.353 314.165c-5.428 10.942-9.658 24.861-23.732 25.123-17.613.186-35.256-.476-52.857-1.409-112.764-5.362-223.452-17.196-336.027-29.19l-3.224-22.401 415.84 27.877Z"/><path d="M559.971 175.502c-5.083 11.36-9.632 22.616-15.075 33.422-35.78 48.751-130.627 10.004-146.084-42.108l161.159 8.686Z"/><path d="m323.5 158.412 17.103-2.029c25.358 126.688 219.367 183.458 264.694 40.978 7.345-17.551 20.173-16.005 37.112-15.315-35.474 96.351-152.495 144.205-241.907 89.952-8.339-4.557-15.878-12.441-21.093-20.533-18.601-30.818-40.181-61.116-55.909-93.053ZM104.523 367.004c24.423 52.245 40.297 106.935 57.262 161.235-21.185 13.369-25.731 12.746-34.458-10.393-11.618-40.998-61.59-116.763-22.804-150.842ZM851.37 347.34c7.47 8.994 27.294 17.036 17.693 30.541-29.821 44.766-66.388 84.409-97.927 127.882-5.09-5.802-20.191-11.925-17.385-19.258 32.781-45.989 63.699-94.646 97.619-139.165Z"/></symbol><symbol xmlns="http://www.w3.org/2000/svg" id="show" fill="none" viewBox="0 0 24 24"><path stroke="currentColor" stroke-linecap="round" stroke-linejoin="round" stroke-width="1.5" d="M15.161 12.053a3.162 3.162 0 1 1-6.323-.001 3.162 3.162 0 0 1 6.323.001Z" clip-rule="evenodd"/><path stroke="currentColor" stroke-linecap="round" stroke-linejoin="round" stroke-width="1.5" d="M11.998 19.355c3.808 0 7.291-2.738 9.252-7.302-1.961-4.564-5.444-7.302-9.252-7.302h.004c-3.808 0-7.291 2.738-9.252 7.302 1.961 4.564 5.444 7.302 9.252 7.302h-.004Z" clip-rule="evenodd"/></symbol><symbol xmlns="http://www.w3.org/2000/svg" id="star" fill="none" viewBox="0 0 24 24"><path stroke="currentColor" stroke-linecap="round" stroke-linejoin="round" stroke-width="1.5" d="m13.104 4.177 1.828 3.65c.179.36.524.608.925.665l4.088.589c1.01.145 1.412 1.37.681 2.07l-2.956 2.841c-.29.28-.423.681-.354 1.076l.698 4.01c.172.992-.884 1.749-1.787 1.28l-3.654-1.895a1.248 1.248 0 0 0-1.146 0l-3.654 1.894c-.903.47-1.959-.287-1.786-1.28l.697-4.01a1.203 1.203 0 0 0-.354-1.075l-2.956-2.84c-.731-.701-.33-1.926.68-2.071l4.089-.589c.4-.057.747-.306.926-.664l1.827-3.651c.452-.903 1.756-.903 2.208 0Z" clip-rule="evenodd"/></symbol><symbol xmlns="http://www.w3.org/2000/svg" id="swap" fill="none" viewBox="0 0 24 24"><path stroke="currentColor" stroke-linecap="round" stroke-linejoin="round" stroke-width="1.5" d="M16.84 20.164V6.546m4.077 9.522-4.078 4.097-4.077-4.097M6.911 3.833V17.45M2.833 7.929l4.078-4.097L10.99 7.93"/></symbol><symbol xmlns="http://www.w3.org/2000/svg" id="ticket" fill="none" viewBox="0 0 24 24"><path stroke="currentColor" stroke-linecap="round" stroke-linejoin="round" stroke-width="1.5" d="M13.85 4.25v2.42m0 11.09v2.024m0-5.459V9.504"/><path stroke="currentColor" stroke-linecap="round" stroke-linejoin="round" stroke-width="1.5" d="M18.702 20C20.524 20 22 18.543 22 16.743v-2.592A2.159 2.159 0 0 1 19.823 12c0-1.19.971-2.15 2.177-2.15l-.001-2.594c0-1.8-1.477-3.257-3.298-3.257H5.3C3.478 4 2 5.457 2 7.257v2.678c1.206 0 2.177.875 2.177 2.066A2.16 2.16 0 0 1 2 14.151v2.592C2 18.543 3.476 20 5.298 20h13.404Z" clip-rule="evenodd"/></symbol><symbol xmlns="http://www.w3.org/2000/svg" id="ticketStar" fill="none" viewBox="0 0 24 24"><path stroke="currentColor" stroke-linecap="round" stroke-linejoin="round" stroke-width="1.5" d="M17.857 20.417a3.393 3.393 0 0 0 3.393-3.39v-2.704a2.24 2.24 0 0 1 0-4.478h0v-2.7a3.392 3.392 0 0 0-3.388-3.396H6.144A3.394 3.394 0 0 0 2.75 7.142v2.791a2.162 2.162 0 0 1 2.24 2.152 2.237 2.237 0 0 1-2.234 2.24H2.75v2.7a3.392 3.392 0 0 0 3.391 3.392h11.716Z" clip-rule="evenodd"/><path stroke="currentColor" stroke-linecap="round" stroke-linejoin="round" stroke-width="1.5" d="m12.371 9.063.616 1.247c.06.122.176.207.311.227l1.377.201c.341.05.476.468.23.707l-.996.97a.417.417 0 0 0-.12.367l.235 1.37a.414.414 0 0 1-.6.437l-1.232-.647a.412.412 0 0 0-.386 0l-1.23.647a.415.415 0 0 1-.602-.437l.235-1.37a.414.414 0 0 0-.12-.367l-.995-.97a.414.414 0 0 1 .23-.707l1.376-.2a.416.416 0 0 0 .312-.228l.615-1.247a.415.415 0 0 1 .744 0Z" clip-rule="evenodd"/></symbol><symbol xmlns="http://www.w3.org/2000/svg" id="tickSquare" fill="none" viewBox="0 0 24 24"><path stroke="currentColor" stroke-linecap="round" stroke-linejoin="round" stroke-width="1.5" d="M16.334 2.75H7.665c-3.02 0-4.915 2.14-4.915 5.166v8.168c0 3.027 1.885 5.166 4.915 5.166h8.669c3.03 0 4.916-2.139 4.916-5.166V7.916c0-3.027-1.886-5.166-4.916-5.166Z" clip-rule="evenodd"/><path stroke="currentColor" stroke-linecap="round" stroke-linejoin="round" stroke-width="1.5" d="m8.44 12 2.374 2.373 4.746-4.746"/></symbol><symbol xmlns="http://www.w3.org/2000/svg" id="timeCircle" fill="none" viewBox="0 0 24 24"><path stroke="currentColor" stroke-linecap="round" stroke-linejoin="round" stroke-width="1.5" d="M21.25 12A9.25 9.25 0 0 1 12 21.25 9.25 9.25 0 0 1 2.75 12 9.25 9.25 0 0 1 12 2.75 9.25 9.25 0 0 1 21.25 12Z" clip-rule="evenodd"/><path stroke="currentColor" stroke-linecap="round" stroke-linejoin="round" stroke-width="1.5" d="m15.431 14.943-3.77-2.25V7.848"/></symbol><symbol xmlns="http://www.w3.org/2000/svg" id="timeSquare" fill="none" viewBox="0 0 24 24"><path stroke="currentColor" stroke-linecap="round" stroke-linejoin="round" stroke-width="1.5" d="M16.335 2.75h-8.67c-3.02 0-4.914 2.14-4.914 5.166v8.168c0 3.027 1.884 5.166 4.915 5.166h8.668c3.03 0 4.917-2.139 4.917-5.166V7.916c0-3.027-1.886-5.166-4.916-5.166Z" clip-rule="evenodd"/><path stroke="currentColor" stroke-linecap="round" stroke-linejoin="round" stroke-width="1.5" d="m15.391 14.018-3.39-2.023V7.634"/></symbol><symbol xmlns="http://www.w3.org/2000/svg" id="unlock" fill="none" viewBox="0 0 24 24"><path stroke="currentColor" stroke-linecap="round" stroke-linejoin="round" stroke-width="1.5" d="M16.424 5.562A4.554 4.554 0 0 0 12.122 2.5a4.551 4.551 0 0 0-4.57 4.531v2.167"/><path stroke="currentColor" stroke-linecap="round" stroke-linejoin="round" stroke-width="1.5" d="M15.933 21H8.292A3.793 3.793 0 0 1 4.5 17.207V12.92a3.793 3.793 0 0 1 3.792-3.793h7.641a3.793 3.793 0 0 1 3.792 3.793v4.288A3.793 3.793 0 0 1 15.933 21Z" clip-rule="evenodd"/><path stroke="currentColor" stroke-linecap="round" stroke-linejoin="round" stroke-width="1.5" d="M12.113 13.953v2.222"/></symbol><symbol xmlns="http://www.w3.org/2000/svg" id="upload" fill="none" viewBox="0 0 24 24"><path stroke="currentColor" stroke-linecap="round" stroke-linejoin="round" stroke-width="1.5" d="M7.39 8.984h-.934a3.685 3.685 0 0 0-3.685 3.685v4.875a3.685 3.685 0 0 0 3.685 3.684h11.13a3.685 3.685 0 0 0 3.686-3.684v-4.885a3.675 3.675 0 0 0-3.674-3.675h-.944M12.021 2.19v12.042M9.106 5.119l2.915-2.928 2.916 2.928"/></symbol><symbol xmlns="http://www.w3.org/2000/svg" id="video" fill="none" viewBox="0 0 24 24"><path stroke="currentColor" stroke-linecap="round" stroke-linejoin="round" stroke-width="1.5" d="M16.297 15.538c.08 1.832-1.398 3.382-3.302 3.46-.14.005-6.98-.008-6.98-.008-1.895.144-3.554-1.218-3.703-3.044-.012-.136-.009-7.474-.009-7.474-.084-1.834 1.393-3.387 3.299-3.468.142-.007 6.972.006 6.972.006 1.904-.142 3.568 1.23 3.716 3.064.01.132.007 7.464.007 7.464Z" clip-rule="evenodd"/><path stroke="currentColor" stroke-linecap="round" stroke-linejoin="round" stroke-width="1.5" d="m16.3 9.98 3.293-2.695c.816-.668 2.04-.086 2.039.967L21.62 15.6c-.001 1.053-1.226 1.63-2.04.962l-3.28-2.695"/></symbol><symbol xmlns="http://www.w3.org/2000/svg" id="voice" fill="none" viewBox="0 0 24 24"><path stroke="currentColor" stroke-linecap="round" stroke-linejoin="round" stroke-width="1.5" d="M12 22v-3.161"/><path stroke="currentColor" stroke-linecap="round" stroke-linejoin="round" stroke-width="1.5" d="M12 14.848v0c-2.243 0-4.062-1.826-4.062-4.08V6.081C7.938 3.827 9.757 2 12 2c2.244 0 4.062 1.827 4.062 4.08v4.688A4.07 4.07 0 0 1 12 14.848Z" clip-rule="evenodd"/><path stroke="currentColor" stroke-linecap="round" stroke-linejoin="round" stroke-width="1.5" d="M20 10.8c0 4.44-3.581 8.038-8 8.038-4.419 0-8-3.599-8-8.037"/></symbol><symbol xmlns="http://www.w3.org/2000/svg" id="voice3" fill="none" viewBox="0 0 24 24"><path stroke="currentColor" stroke-linecap="round" stroke-linejoin="round" stroke-width="1.5" d="M12 22v-3.161"/><path stroke="currentColor" stroke-linecap="round" stroke-linejoin="round" stroke-width="1.5" d="M12 14.848v0a4.07 4.07 0 0 1-4.062-4.08V6.081C7.938 3.827 9.756 2 12 2c2.243 0 4.061 1.827 4.061 4.08v4.688c0 2.254-1.818 4.08-4.06 4.08Z" clip-rule="evenodd"/><path stroke="currentColor" stroke-linecap="round" stroke-linejoin="round" stroke-width="1.5" d="M20 10.8c0 4.44-3.582 8.038-8 8.038-4.42 0-8-3.599-8-8.037m10.069-4.045h1.99m-2.989 3.337h2.99"/></symbol><symbol xmlns="http://www.w3.org/2000/svg" id="volumeDown" fill="none" viewBox="0 0 24 24"><path stroke="currentColor" stroke-linecap="round" stroke-linejoin="round" stroke-width="1.5" d="M4.002 12c-.003 1.23-.058 2.907.703 3.534.71.585 1.209.434 2.504.53 1.297.095 4.033 3.906 6.142 2.7 1.088-.855 1.17-2.649 1.17-6.764s-.082-5.909-1.17-6.764C11.242 4.029 8.506 7.84 7.21 7.937c-1.295.095-1.794-.055-2.504.53C3.946 9.093 4 10.77 4.003 12Z" clip-rule="evenodd"/><path stroke="currentColor" stroke-linecap="round" stroke-linejoin="round" stroke-width="1.5" d="M18.581 8.314a7.399 7.399 0 0 1 0 7.372"/></symbol><symbol xmlns="http://www.w3.org/2000/svg" id="volumeOff" fill="none" viewBox="0 0 24 24"><path stroke="currentColor" stroke-linecap="round" stroke-linejoin="round" stroke-width="1.5" d="m14.533 9.467-6.82 6.82c-.177-.103-.345-.168-.494-.177-1.297-.094-1.8.056-2.51-.55-.764-.654-.708-2.399-.708-3.677s-.056-3.022.709-3.675c.709-.607 1.212-.448 2.51-.55 1.296-.103 4.038-4.06 6.156-2.809.858.7 1.091 2.006 1.157 4.618Z" clip-rule="evenodd"/><path stroke="currentColor" stroke-linecap="round" stroke-linejoin="round" stroke-width="1.5" d="M14.533 13.917c-.037 2.874-.261 4.273-1.157 5-.98.58-2.09.047-3.134-.708M4.001 20l3.713-3.713 6.82-6.82L20 4"/></symbol><symbol xmlns="http://www.w3.org/2000/svg" id="volumeUp" fill="none" viewBox="0 0 24 24"><path stroke="currentColor" stroke-linecap="round" stroke-linejoin="round" stroke-width="1.5" d="M2.502 12c-.003 1.23-.058 2.907.703 3.534.71.585 1.209.434 2.504.53 1.297.095 4.033 3.906 6.142 2.7 1.088-.855 1.17-2.649 1.17-6.764s-.082-5.909-1.17-6.764C9.741 4.029 7.006 7.84 5.71 7.937c-1.295.095-1.794-.055-2.504.53-.76.626-.706 2.303-.703 3.533Z" clip-rule="evenodd"/><path stroke="currentColor" stroke-linecap="round" stroke-linejoin="round" stroke-width="1.5" d="M19.584 5.904a10.656 10.656 0 0 1 0 12.192m-2.503-9.782a7.399 7.399 0 0 1 0 7.372"/></symbol><symbol xmlns="http://www.w3.org/2000/svg" id="wallet" fill="none" viewBox="0 0 24 24"><path stroke="currentColor" stroke-linecap="round" stroke-linejoin="round" stroke-width="1.5" d="M21.639 14.396H17.59a2.693 2.693 0 0 1-2.693-2.692 2.693 2.693 0 0 1 2.693-2.69h4.048m-3.589 2.629h-.312"/><path stroke="currentColor" stroke-linecap="round" stroke-linejoin="round" stroke-width="1.5" d="M7.748 3h8.643a5.248 5.248 0 0 1 5.248 5.248v7.177a5.248 5.248 0 0 1-5.248 5.247H7.748A5.248 5.248 0 0 1 2.5 15.425V8.248A5.248 5.248 0 0 1 7.748 3Z" clip-rule="evenodd"/><path stroke="currentColor" stroke-linecap="round" stroke-linejoin="round" stroke-width="1.5" d="M7.036 7.538h5.399"/></symbol><symbol xmlns="http://www.w3.org/2000/svg" xml:space="preserve" id="washing-machine" fill="currentColor" viewBox="0 0 512 512"><circle cx="389.565" cy="83.478" r="16.696"/><path d="M400 0H112C71.723 0 38.957 32.767 38.957 73.044v365.913C38.957 479.233 71.723 512 112 512h288c40.277 0 73.043-32.767 73.043-73.043V73.044C473.043 32.767 440.277 0 400 0zm39.652 438.957c0 21.865-17.788 39.652-39.652 39.652H112c-21.865 0-39.652-17.788-39.652-39.652v-272h367.304v272zm0-305.392H72.348V73.044c0-21.865 17.788-39.652 39.652-39.652h288c21.865 0 39.652 17.788 39.652 39.652v60.521z"/><path d="M256 200.348c-64.442 0-116.87 52.428-116.87 116.87 0 64.442 52.428 116.87 116.87 116.87 64.64 0 116.87-52.626 116.87-116.87 0-64.435-52.433-116.87-116.87-116.87zm0 200.348c-46.03 0-83.478-37.448-83.478-83.478S209.97 233.739 256 233.739a82.984 82.984 0 0 1 33.391 6.991c-29.452 12.908-50.087 42.326-50.087 76.487s20.635 63.579 50.087 76.487A82.968 82.968 0 0 1 256 400.696zm66.738-33.393c-27.598-.024-50.042-22.483-50.042-50.086 0-27.602 22.445-50.061 50.042-50.086 10.504 13.962 16.74 31.308 16.74 50.086 0 18.779-6.236 36.124-16.74 50.086zM172.522 66.783H139.13c-9.22 0-16.696 7.475-16.696 16.696s7.475 16.696 16.696 16.696h33.391c9.22 0 16.696-7.475 16.696-16.696s-7.475-16.696-16.695-16.696zm100.174 0h-33.391c-9.22 0-16.696 7.475-16.696 16.696s7.475 16.696 16.696 16.696h33.391c9.22 0 16.696-7.475 16.696-16.696s-7.476-16.696-16.696-16.696z"/></symbol><symbol xmlns="http://www.w3.org/2000/svg" id="work" fill="none" viewBox="0 0 24 24"><path stroke="currentColor" stroke-linecap="round" stroke-linejoin="round" stroke-width="1.5" d="M11.995 16.677V14.14"/><path stroke="currentColor" stroke-linecap="round" stroke-linejoin="round" stroke-width="1.5" d="M18.19 5.33c1.69 0 3.05 1.37 3.05 3.06v3.44c-2.46 1.44-5.71 2.31-9.25 2.31s-6.78-.87-9.24-2.31V8.38c0-1.69 1.37-3.05 3.06-3.05h12.38Z" clip-rule="evenodd"/><path stroke="currentColor" stroke-linecap="round" stroke-linejoin="round" stroke-width="1.5" d="M15.495 5.326V4.96c0-1.22-.99-2.21-2.21-2.21h-2.58c-1.22 0-2.21.99-2.21 2.21v.366M2.774 15.483l.19 2.509a3.242 3.242 0 0 0 3.231 2.998h11.6a3.242 3.242 0 0 0 3.231-2.998l.19-2.51"/></symbol></svg>