<svg width="0" height="0"><symbol xmlns="http://www.w3.org/2000/svg" id="2user" fill="none" viewBox="0 0 24 24"><path fill="currentColor" fill-rule="evenodd" d="M14.212 7.762c0 2.644-2.163 4.763-4.863 4.763-2.698 0-4.863-2.119-4.863-4.763C4.486 5.12 6.651 3 9.35 3c2.7 0 4.863 2.119 4.863 4.762ZM2 17.917c0-2.447 3.386-3.06 7.35-3.06 3.985 0 7.349.634 7.349 3.083 0 2.448-3.386 3.06-7.35 3.06C5.364 21 2 20.367 2 17.917ZM16.173 7.85a6.368 6.368 0 0 1-1.137 3.646c-.075.107-.008.252.123.275.182.03.369.048.56.052 1.898.048 3.601-1.148 4.072-2.95.697-2.675-1.35-5.077-3.957-5.077a4.16 4.16 0 0 0-.818.082c-.036.008-.075.025-.095.055-.025.04-.007.09.019.124a6.414 6.414 0 0 1 1.233 3.793Zm3.144 5.853c1.276.245 2.115.742 2.462 1.467a2.107 2.107 0 0 1 0 1.878c-.531 1.123-2.245 1.485-2.912 1.578a.207.207 0 0 1-.234-.232c.34-3.113-2.367-4.588-3.067-4.927-.03-.017-.036-.04-.034-.055.002-.01.015-.025.038-.028 1.515-.028 3.145.176 3.747.32Z" clip-rule="evenodd"/></symbol><symbol xmlns="http://www.w3.org/2000/svg" id="3user" fill="none" viewBox="0 0 24 24"><path fill="currentColor" fill-rule="evenodd" d="M16.158 8.233a4.207 4.207 0 0 1-4.209 4.234 4.207 4.207 0 0 1-4.21-4.234A4.206 4.206 0 0 1 11.95 4a4.206 4.206 0 0 1 4.21 4.233ZM11.95 20c-3.431 0-6.36-.544-6.36-2.72 0-2.177 2.91-2.74 6.36-2.74 3.431 0 6.361.544 6.361 2.72S15.399 20 11.949 20Zm6.008-11.69a5.765 5.765 0 0 1-.984 3.24.158.158 0 0 0 .107.245 3.4 3.4 0 0 0 .483.046c1.643.044 3.118-1.02 3.525-2.621.604-2.379-1.168-4.514-3.425-4.514-.245 0-.48.026-.708.073-.031.007-.064.021-.082.05-.022.034-.006.08.016.11a5.807 5.807 0 0 1 1.068 3.37Zm2.721 5.203c1.104.217 1.83.66 2.131 1.304a1.923 1.923 0 0 1 0 1.67c-.46.998-1.944 1.319-2.52 1.402-.12.018-.215-.086-.203-.206.295-2.767-2.048-4.08-2.654-4.381-.026-.014-.032-.034-.03-.047a.04.04 0 0 1 .033-.026c1.312-.024 2.722.156 3.243.284ZM6.438 11.84c.164-.004.325-.019.483-.046a.158.158 0 0 0 .106-.245 5.765 5.765 0 0 1-.984-3.24c0-1.25.39-2.416 1.068-3.372.022-.03.037-.075.016-.11-.017-.027-.051-.042-.082-.05a3.52 3.52 0 0 0-.71-.072c-2.255 0-4.027 2.135-3.423 4.514.407 1.6 1.882 2.664 3.525 2.621Zm.159 1.414c.003.013-.003.033-.028.047-.607.302-2.95 1.614-2.656 4.38.013.121-.082.224-.201.207-.577-.083-2.06-.404-2.52-1.402a1.917 1.917 0 0 1 0-1.67c.3-.644 1.026-1.087 2.13-1.305.522-.127 1.93-.307 3.244-.283.02.003.03.017.03.026Z" clip-rule="evenodd"/></symbol><symbol xmlns="http://www.w3.org/2000/svg" id="activity" fill="none" viewBox="0 0 24 24"><path fill="currentColor" fill-rule="evenodd" d="M17.18 4.41c0-1.33 1.08-2.41 2.41-2.41S22 3.08 22 4.41s-1.08 2.41-2.41 2.41-2.41-1.08-2.41-2.41Zm-3.85 10.35 2.89-3.73-.04.02c.16-.22.19-.5.08-.75a.737.737 0 0 0-.61-.44.768.768 0 0 0-.7.31l-2.42 3.13-2.77-2.18a.79.79 0 0 0-.57-.16.775.775 0 0 0-.5.3l-2.96 3.85-.06.09a.747.747 0 0 0 .21.95c.14.09.29.15.46.15.23.01.45-.11.59-.3l2.51-3.23 2.85 2.14.09.06c.32.17.72.09.95-.21Zm2.12-10.98c-.04.25-.06.5-.06.75 0 2.25 1.82 4.07 4.06 4.07.25 0 .49-.03.74-.07v8.07c0 3.39-2 5.4-5.4 5.4H7.4C4 22 2 19.99 2 16.6V9.2c0-3.4 2-5.42 5.4-5.42h8.05Z" clip-rule="evenodd"/></symbol><symbol xmlns="http://www.w3.org/2000/svg" id="addUser" fill="none" viewBox="0 0 24 24"><path fill="currentColor" fill-rule="evenodd" d="M9.5 12.554c2.755 0 4.963-2.237 4.963-5.027S12.255 2.5 9.5 2.5 4.537 4.737 4.537 7.527s2.208 5.027 4.963 5.027Zm0 2.461c-4.046 0-7.5.647-7.5 3.231C2 20.83 5.433 21.5 9.5 21.5c4.045 0 7.5-.647 7.5-3.231 0-2.585-3.433-3.254-7.5-3.254Zm10.398-5.427H21.1c.495 0 .899.41.899.912a.907.907 0 0 1-.899.911h-1.203v1.177a.906.906 0 0 1-.899.912.907.907 0 0 1-.899-.912v-1.177h-1.201A.906.906 0 0 1 16 10.5c0-.502.403-.911.899-.911H18.1V8.412c0-.503.404-.912.899-.912.496 0 .899.41.899.912v1.176Z" clip-rule="evenodd"/></symbol><symbol xmlns="http://www.w3.org/2000/svg" id="alif" fill="none" viewBox="0 0 30 36"><mask id="a" width="30" height="36" x="0" y="0" maskUnits="userSpaceOnUse"><path fill="currentColor" d="M30 0H0v36h30V0Z"/></mask><g mask="url(#a)"><path fill="currentColor" fill-rule="evenodd" d="M16.301 35.92a17.859 17.859 0 0 1-6.834-2.05C5.442 31.667 2.328 27.946.885 23.238A17.658 17.658 0 0 1 2.404 9.72C5.29 4.405 10.834.76 16.757 0h.152l1.519 3.797h-.152C13.264 4.101 8.25 7.063 5.82 11.543c-1.746 3.114-2.202 6.91-1.139 10.556a13.619 13.619 0 0 0 6.683 8.277c1.67.912 3.493 1.443 5.392 1.671 4.177.38 8.05-.987 11.087-3.417.152-.152.304-.228.456-.38l1.519 3.797A19.509 19.509 0 0 1 16.3 35.92Zm4.101-27.035h-4.784L9.315 24.453h4.1l4.633-12.075 4.632 12.075h4.101L20.402 8.885Z" clip-rule="evenodd"/></g></symbol><symbol xmlns="http://www.w3.org/2000/svg" id="arrowDown" fill="none" viewBox="0 0 24 24"><path fill="currentColor" fill-rule="evenodd" d="m10.482 4.503.328 3.7c0 .65.532 1.179 1.19 1.179.658 0 1.191-.528 1.191-1.18l.327-3.699C13.518 3.673 12.838 3 12 3a1.51 1.51 0 0 0-1.518 1.503Zm.268 16.011c.056.051.1.09.12.11.322.246.715.376 1.138.376.379 0 .758-.116 1.064-.347.212-.148.554-.49.554-.49 1.327-1.214 3.324-4.231 3.966-5.762.014 0 .394-.91.408-1.343v-.057c0-.665-.379-1.286-.991-1.603-.254-.131-.874-.254-1.168-.313a1.723 1.723 0 0 1-.16-.034c-.874-.13-2.216-.216-3.688-.216-1.546 0-2.945.086-3.805.244-.015 0-.802.16-1.064.261-.38.16-.701.447-.905.809a2 2 0 0 0-.219.91c.015.332.234.953.336 1.198.642 1.617 2.74 4.707 4.024 5.891.133.132.285.27.39.366Z" clip-rule="evenodd"/></symbol><symbol xmlns="http://www.w3.org/2000/svg" id="arrowDown2" fill="none" viewBox="0 0 24 24"><path fill="currentColor" d="M10.869 16.63c-.058-.056-.306-.27-.51-.468-1.283-1.165-3.383-4.204-4.024-5.795-.103-.242-.321-.853-.335-1.179 0-.313.072-.61.218-.895.204-.355.525-.64.904-.795.263-.1 1.05-.256 1.064-.256.861-.156 2.26-.242 3.806-.242 1.473 0 2.815.086 3.689.213.014.015.992.17 1.327.341.612.313.992.924.992 1.578v.056c-.015.426-.395 1.321-.409 1.321-.642 1.505-2.639 4.474-3.966 5.668 0 0-.341.336-.554.482a1.783 1.783 0 0 1-1.064.341c-.423 0-.817-.128-1.138-.37"/></symbol><symbol xmlns="http://www.w3.org/2000/svg" id="arrowDown3" fill="none" viewBox="0 0 24 24"><path fill="currentColor" d="M17.41 12.142a.715.715 0 0 0-.627-.38h-4.066V3.734A.726.726 0 0 0 12 3a.726.726 0 0 0-.717.734v8.028H7.217a.712.712 0 0 0-.627.38.748.748 0 0 0 .02.745l4.783 7.77c.132.214.36.343.607.343s.475-.13.607-.343l4.783-7.77a.754.754 0 0 0 .02-.745"/></symbol><symbol xmlns="http://www.w3.org/2000/svg" id="arrowDownCircle" fill="none" viewBox="0 0 24 24"><path fill="currentColor" fill-rule="evenodd" d="M12 22C6.48 22 2 17.51 2 12 2 6.48 6.48 2 12 2c5.51 0 10 4.48 10 10 0 5.51-4.49 10-10 10Zm4-11.98a.745.745 0 0 0-1.06.01L12 12.98l-2.94-2.95c-.29-.3-.77-.3-1.06-.01-.3.3-.3.77 0 1.06l3.47 3.49a.75.75 0 0 0 1.06 0L16 11.08c.15-.14.22-.33.22-.52 0-.2-.07-.39-.22-.54Z" clip-rule="evenodd"/></symbol><symbol xmlns="http://www.w3.org/2000/svg" id="arrowDownSquare" fill="none" viewBox="0 0 24 24"><path fill="currentColor" fill-rule="evenodd" d="M2 16.08V7.91C2 4.38 4.271 2 7.66 2h8.67C19.72 2 22 4.38 22 7.91v8.17c0 3.54-2.28 5.92-5.67 5.92H7.66C4.271 22 2 19.62 2 16.08Zm10.75-1.81V7.92c0-.42-.34-.75-.75-.75-.42 0-.75.33-.75.75v6.35l-2.47-2.48a.767.767 0 0 0-.53-.22c-.189 0-.38.08-.53.22-.29.29-.29.77 0 1.06l3.75 3.77c.28.28.78.28 1.06 0l3.75-3.77c.29-.29.29-.77 0-1.06a.767.767 0 0 0-1.07 0l-2.46 2.48Z" clip-rule="evenodd"/></symbol><symbol xmlns="http://www.w3.org/2000/svg" id="arrowLeft" fill="none" viewBox="0 0 24 24"><path fill="currentColor" fill-rule="evenodd" d="m13.165 11.993-.002-.354c-.012-1.404-.096-2.657-.242-3.451 0-.015-.16-.802-.261-1.064a1.884 1.884 0 0 0-.809-.905 2 2 0 0 0-.91-.219c-.249.012-.66.137-.954.242l-.244.094c-1.617.642-4.707 2.74-5.891 4.024l-.087.09-.39.42A1.856 1.856 0 0 0 3 12.008c0 .379.116.758.347 1.064.07.099.18.226.28.334l.379.397c1.304 1.321 4.129 3.175 5.593 3.79 0 .013.91.393 1.343.407h.057c.665 0 1.286-.379 1.603-.991.087-.168.17-.496.233-.784l.114-.544c.13-.874.216-2.216.216-3.688Zm6.332 1.525c.83 0 1.503-.68 1.503-1.518a1.51 1.51 0 0 0-1.503-1.518l-3.7.328c-.65 0-1.179.532-1.179 1.19 0 .658.528 1.191 1.18 1.191l3.699.327Z" clip-rule="evenodd"/></symbol><symbol xmlns="http://www.w3.org/2000/svg" id="arrowLeft2" fill="none" viewBox="0 0 24 24"><path fill="currentColor" d="M7.37 10.869c.056-.058.27-.306.468-.51 1.165-1.283 4.204-3.383 5.795-4.024.242-.103.853-.321 1.179-.335.313 0 .61.072.895.218.355.204.64.525.795.904.1.263.256 1.05.256 1.064.156.861.242 2.26.242 3.806 0 1.473-.086 2.815-.213 3.689-.015.014-.17.992-.341 1.327a1.785 1.785 0 0 1-1.578.992h-.056c-.426-.015-1.321-.395-1.321-.409-1.505-.642-4.474-2.639-5.668-3.966 0 0-.336-.341-.482-.554A1.783 1.783 0 0 1 7 12.007c0-.423.128-.817.37-1.138"/></symbol><symbol xmlns="http://www.w3.org/2000/svg" id="arrowLeft3" fill="none" viewBox="0 0 24 24"><path fill="currentColor" d="M11.858 17.41a.715.715 0 0 0 .38-.627v-4.066h8.028A.726.726 0 0 0 21 12a.726.726 0 0 0-.734-.717h-8.028V7.217a.712.712 0 0 0-.38-.627.748.748 0 0 0-.745.02l-7.77 4.783A.714.714 0 0 0 3 12c0 .247.13.475.343.607l7.77 4.783a.754.754 0 0 0 .745.02"/></symbol><symbol xmlns="http://www.w3.org/2000/svg" id="arrowLeftCircle" fill="none" viewBox="0 0 24 24"><path fill="currentColor" fill-rule="evenodd" d="M2 12C2 6.48 6.49 2 12 2l.28.004C17.67 2.152 22 6.574 22 12c0 5.51-4.48 10-10 10-5.51 0-10-4.49-10-10Zm11.98 4c.29-.3.29-.77-.01-1.06L11.02 12l2.95-2.94c.3-.29.3-.77.01-1.06-.3-.3-.77-.3-1.06 0l-3.49 3.47a.75.75 0 0 0 0 1.06L12.92 16c.14.15.33.22.52.22.2 0 .39-.07.54-.22Z" clip-rule="evenodd"/></symbol><symbol xmlns="http://www.w3.org/2000/svg" id="arrowLeftSquare" fill="none" viewBox="0 0 24 24"><path fill="currentColor" fill-rule="evenodd" d="M7.92 2h8.17C19.62 2 22 4.271 22 7.66v8.67c0 3.39-2.38 5.67-5.91 5.67H7.92C4.38 22 2 19.72 2 16.33V7.66C2 4.271 4.38 2 7.92 2Zm1.81 10.75h6.35c.42 0 .75-.34.75-.75 0-.42-.33-.75-.75-.75H9.73l2.48-2.47c.14-.14.22-.34.22-.53 0-.189-.08-.38-.22-.53a.754.754 0 0 0-1.06 0l-3.77 3.75c-.28.28-.28.78 0 1.06l3.77 3.75c.29.29.77.29 1.06 0 .29-.3.29-.77 0-1.07l-2.48-2.46Z" clip-rule="evenodd"/></symbol><symbol xmlns="http://www.w3.org/2000/svg" id="arrowRight" fill="none" viewBox="0 0 24 24"><path fill="currentColor" fill-rule="evenodd" d="m10.835 12.007.002.354c.012 1.404.096 2.657.242 3.451 0 .015.16.802.261 1.064.16.38.447.701.809.905a2 2 0 0 0 .91.219c.249-.012.66-.137.954-.242l.244-.094c1.617-.642 4.707-2.74 5.891-4.024l.087-.09.39-.42A1.86 1.86 0 0 0 21 11.992c0-.379-.116-.758-.347-1.064a3.675 3.675 0 0 0-.28-.334l-.379-.397c-1.305-1.321-4.129-3.175-5.593-3.79 0-.013-.91-.393-1.343-.407h-.057c-.665 0-1.286.379-1.603.991-.087.168-.17.496-.233.784l-.114.544c-.13.874-.216 2.216-.216 3.688Zm-6.332-1.525C3.673 10.482 3 11.162 3 12a1.51 1.51 0 0 0 1.503 1.518l3.7-.328c.65 0 1.179-.532 1.179-1.19 0-.658-.528-1.191-1.18-1.191l-3.699-.327Z" clip-rule="evenodd"/></symbol><symbol xmlns="http://www.w3.org/2000/svg" id="arrowRight2" fill="none" viewBox="0 0 24 24"><path fill="currentColor" d="M16.63 13.131c-.056.058-.27.306-.468.51-1.165 1.283-4.204 3.383-5.795 4.024-.242.103-.853.321-1.179.335-.313 0-.61-.072-.895-.218a1.874 1.874 0 0 1-.795-.904c-.1-.263-.256-1.05-.256-1.064-.156-.861-.242-2.26-.242-3.806 0-1.473.086-2.815.213-3.689.015-.014.17-.992.341-1.327A1.785 1.785 0 0 1 9.132 6h.056c.426.015 1.321.395 1.321.409 1.505.642 4.474 2.639 5.668 3.966 0 0 .336.341.482.554.228.306.341.685.341 1.064 0 .423-.128.817-.37 1.138"/></symbol><symbol xmlns="http://www.w3.org/2000/svg" id="arrowRight3" fill="none" viewBox="0 0 24 24"><path fill="currentColor" d="M12.142 6.59a.715.715 0 0 0-.38.627v4.066H3.734A.726.726 0 0 0 3 12c0 .396.329.717.734.717h8.028v4.066c0 .262.146.502.38.627.234.127.52.119.745-.02l7.77-4.783A.714.714 0 0 0 21 12a.714.714 0 0 0-.343-.607l-7.77-4.783a.754.754 0 0 0-.745-.02"/></symbol><symbol xmlns="http://www.w3.org/2000/svg" id="arrowRightCircle" fill="none" viewBox="0 0 24 24"><path fill="currentColor" fill-rule="evenodd" d="M22 12c0 5.52-4.49 10-10 10l-.28-.004C6.33 21.848 2 17.426 2 12 2 6.49 6.48 2 12 2c5.51 0 10 4.49 10 10ZM10.02 8c-.29.3-.29.77.01 1.06L12.98 12l-2.95 2.94c-.3.29-.3.77-.01 1.06.3.3.77.3 1.06 0l3.49-3.47a.75.75 0 0 0 0-1.06L11.08 8a.704.704 0 0 0-.52-.22c-.2 0-.39.07-.54.22Z" clip-rule="evenodd"/></symbol><symbol xmlns="http://www.w3.org/2000/svg" id="arrowRightSquare" fill="none" viewBox="0 0 24 24"><path fill="currentColor" fill-rule="evenodd" d="M16.08 22H7.91C4.38 22 2 19.729 2 16.34V7.67C2 4.28 4.38 2 7.91 2h8.17C19.62 2 22 4.28 22 7.67v8.67c0 3.389-2.38 5.66-5.92 5.66Zm-1.81-10.75H7.92c-.42 0-.75.34-.75.75 0 .42.33.75.75.75h6.35l-2.48 2.47c-.14.14-.22.34-.22.53 0 .189.08.38.22.53.29.29.77.29 1.06 0l3.77-3.75c.28-.28.28-.78 0-1.06l-3.77-3.75a.754.754 0 0 0-1.06 0c-.29.3-.29.77 0 1.07l2.48 2.46Z" clip-rule="evenodd"/></symbol><symbol xmlns="http://www.w3.org/2000/svg" id="arrowUp" fill="none" viewBox="0 0 24 24"><path fill="currentColor" fill-rule="evenodd" d="m12.007 13.165.354-.002c1.404-.012 2.657-.096 3.451-.242.015 0 .802-.16 1.064-.261.38-.16.701-.447.905-.809a2 2 0 0 0 .219-.91c-.012-.249-.137-.66-.242-.954l-.094-.244c-.642-1.617-2.74-4.707-4.024-5.891l-.09-.087-.42-.39A1.856 1.856 0 0 0 11.992 3c-.379 0-.758.116-1.064.347-.099.07-.226.18-.334.28l-.397.379C8.876 5.31 7.022 8.135 6.407 9.599c-.013 0-.393.91-.407 1.343v.057c0 .665.379 1.286.991 1.603.168.087.496.17.784.233l.544.114c.874.13 2.216.216 3.688.216Zm-1.525 6.332c0 .83.68 1.503 1.518 1.503a1.51 1.51 0 0 0 1.518-1.503l-.328-3.7c0-.65-.532-1.179-1.19-1.179-.658 0-1.191.528-1.191 1.18l-.327 3.699Z" clip-rule="evenodd"/></symbol><symbol xmlns="http://www.w3.org/2000/svg" id="arrowUp2" fill="none" viewBox="0 0 24 24"><path fill="currentColor" d="M13.131 7.37c.058.056.306.27.51.468 1.283 1.165 3.383 4.204 4.024 5.795.103.242.321.853.335 1.179 0 .313-.072.61-.218.895a1.874 1.874 0 0 1-.904.795c-.263.1-1.05.256-1.064.256-.861.156-2.26.242-3.806.242-1.473 0-2.815-.086-3.689-.213-.014-.015-.992-.17-1.327-.341A1.785 1.785 0 0 1 6 14.868v-.056c.015-.426.395-1.321.409-1.321.642-1.505 2.639-4.474 3.966-5.668 0 0 .341-.336.554-.482A1.783 1.783 0 0 1 11.993 7c.423 0 .817.128 1.138.37"/></symbol><symbol xmlns="http://www.w3.org/2000/svg" id="arrowUp3" fill="none" viewBox="0 0 24 24"><path fill="currentColor" d="M6.59 11.858c.126.234.366.38.627.38h4.066v8.028c0 .405.321.734.717.734a.726.726 0 0 0 .717-.734v-8.028h4.066a.713.713 0 0 0 .627-.38.748.748 0 0 0-.02-.745l-4.783-7.77A.714.714 0 0 0 12 3a.714.714 0 0 0-.607.343l-4.783 7.77a.754.754 0 0 0-.02.745"/></symbol><symbol xmlns="http://www.w3.org/2000/svg" id="arrowUpCircle" fill="none" viewBox="0 0 24 24"><path fill="currentColor" fill-rule="evenodd" d="M12 2c5.52 0 10 4.49 10 10l-.004.28C21.848 17.67 17.426 22 12 22 6.49 22 2 17.52 2 12 2 6.49 6.49 2 12 2ZM8 13.98c.3.29.77.29 1.06-.01L12 11.02l2.94 2.95c.29.3.77.3 1.06.01.3-.3.3-.77 0-1.06l-3.47-3.49a.75.75 0 0 0-1.06 0L8 12.92c-.15.14-.22.33-.22.52 0 .2.07.39.22.54Z" clip-rule="evenodd"/></symbol><symbol xmlns="http://www.w3.org/2000/svg" id="arrowUpSquare" fill="none" viewBox="0 0 24 24"><path fill="currentColor" fill-rule="evenodd" d="M22 7.92v8.17c0 3.53-2.271 5.91-5.66 5.91H7.67C4.28 22 2 19.62 2 16.09V7.92C2 4.38 4.28 2 7.67 2h8.67C19.729 2 22 4.38 22 7.92ZM11.25 9.73v6.35c0 .42.34.75.75.75.42 0 .75-.33.75-.75V9.73l2.47 2.48c.14.14.34.22.53.22.189 0 .38-.08.53-.22.29-.29.29-.77 0-1.06l-3.75-3.77a.774.774 0 0 0-1.06 0l-3.75 3.77c-.29.29-.29.77 0 1.06.3.29.77.29 1.07 0l2.46-2.48Z" clip-rule="evenodd"/></symbol><symbol xmlns="http://www.w3.org/2000/svg" id="bag" fill="none" viewBox="0 0 24 24"><path fill="currentColor" fill-rule="evenodd" d="M16.93 7a.502.502 0 0 0 .044-.226H17A4.992 4.992 0 0 0 12.005 2 4.992 4.992 0 0 0 7.01 6.774a.649.649 0 0 0 0 .226h-.078c-1.282 0-2.652.846-3.05 3.12l-.777 6.195C2.469 20.863 4.81 22 7.869 22h8.29c3.049 0 5.32-1.646 4.754-5.685l-.769-6.195C19.676 7.91 18.35 7 17.087 7h-.157Zm-1.437 0a.648.648 0 0 1-.043-.226 3.478 3.478 0 0 0-3.484-3.472 3.478 3.478 0 0 0-3.484 3.472.649.649 0 0 1 0 .226h7.011Zm-6.396 5.149a.897.897 0 0 1-.884-.91c0-.502.396-.91.884-.91s.884.408.884.91-.396.91-.884.91Zm4.905-.91c0 .502.396.91.884.91a.897.897 0 0 0 .884-.91.897.897 0 0 0-.884-.91.897.897 0 0 0-.884.91Z" clip-rule="evenodd"/></symbol><symbol xmlns="http://www.w3.org/2000/svg" id="bag2" fill="none" viewBox="0 0 24 24"><path fill="currentColor" fill-rule="evenodd" d="M16.418 6.47h.205c2.692 0 4.877 2.25 4.877 5.01V17c0 2.76-2.185 5-4.877 5H7.377C4.685 22 2.5 19.76 2.5 17v-5.52c0-2.76 2.185-5.01 4.877-5.01h.205a4.57 4.57 0 0 1 1.307-3.16c.838-.85 1.911-1.28 3.12-1.31 2.42 0 4.38 2 4.41 4.47ZM9.913 4.38c-.546.56-.849 1.3-.868 2.09h5.91C14.926 4.83 13.62 3.5 12.01 3.5c-.751 0-1.532.31-2.097.88Zm5.793 5.94a.74.74 0 0 0 .732-.75V8.41a.74.74 0 0 0-.732-.75c-.4 0-.731.34-.731.75v1.16c0 .41.332.75.731.75Zm-6.769-.75a.74.74 0 0 1-.731.75c-.4 0-.732-.34-.732-.75V8.41c0-.41.332-.75.732-.75.41 0 .731.34.731.75v1.16Z" clip-rule="evenodd"/></symbol><symbol xmlns="http://www.w3.org/2000/svg" id="bookmark" fill="none" viewBox="0 0 24 24"><path fill="currentColor" fill-rule="evenodd" d="M8.9 2h6.17c2.71 0 4.9 1.07 4.93 3.79v15.18c0 .17-.04.34-.12.49-.13.24-.35.42-.62.5-.26.08-.55.04-.79-.1l-6.48-3.24-6.49 3.24c-.149.079-.32.13-.49.13-.56 0-1.01-.46-1.01-1.02V5.79C4 3.07 6.2 2 8.9 2Zm-.68 7.62h7.53c.43 0 .78-.351.78-.79 0-.44-.35-.79-.78-.79H8.22c-.43 0-.78.35-.78.79 0 .439.35.79.78.79Z" clip-rule="evenodd"/></symbol><symbol xmlns="http://www.w3.org/2000/svg" id="buy" fill="none" viewBox="0 0 24 24"><path fill="currentColor" fill-rule="evenodd" d="M14.121 11.233h2.768c.42 0 .75-.347.75-.765a.75.75 0 0 0-.75-.766h-2.768a.75.75 0 0 0-.75.766c0 .418.33.765.75.765Zm6.056-5.306c.61 0 1.009.215 1.409.684.4.47.47 1.143.38 1.754l-.95 6.695c-.18 1.287-1.26 2.235-2.528 2.235H7.586c-1.329 0-2.428-1.04-2.538-2.387L4.13 3.783l-1.51-.265a.767.767 0 0 1 .26-1.51l2.383.367c.34.062.59.347.62.694l.19 2.286c.03.328.29.572.61.572h13.494Zm-12.75 12.98c-.84 0-1.52.695-1.52 1.552 0 .847.68 1.541 1.52 1.541.829 0 1.508-.694 1.508-1.541 0-.857-.68-1.551-1.509-1.551Zm11.24 0c-.839 0-1.518.695-1.518 1.552 0 .847.68 1.541 1.519 1.541.829 0 1.508-.694 1.508-1.541 0-.857-.68-1.551-1.508-1.551Z" clip-rule="evenodd"/></symbol><symbol xmlns="http://www.w3.org/2000/svg" id="calendar" fill="none" viewBox="0 0 24 24"><path fill="currentColor" fill-rule="evenodd" d="m16.41 2.769.002.75c2.755.215 4.574 2.092 4.577 4.97L21 16.917c.004 3.138-1.968 5.069-5.128 5.074l-7.72.01c-3.14.004-5.137-1.973-5.141-5.12L3 8.553c-.004-2.898 1.752-4.77 4.506-5.023v-.75a.746.746 0 0 1 .758-.77.747.747 0 0 1 .762.769v.7l5.865-.009v-.7A.747.747 0 0 1 15.65 2a.753.753 0 0 1 .76.769ZM4.522 8.862l14.949-.02v-.35c-.043-2.15-1.121-3.277-3.056-3.445v.77c0 .43-.334.77-.758.77a.752.752 0 0 1-.762-.768v-.81l-5.865.008v.81c0 .43-.324.77-.759.77a.752.752 0 0 1-.76-.769l-.002-.77c-1.925.193-2.99 1.325-2.987 3.493v.31Zm10.719 4.542v.011c.01.46.385.809.84.799a.823.823 0 0 0 .789-.852.83.83 0 0 0-.82-.797.828.828 0 0 0-.81.84Zm.815 4.488a.848.848 0 0 1-.821-.848.833.833 0 0 1 .809-.852h.01c.463 0 .84.379.84.849a.844.844 0 0 1-.838.851Zm-4.883-4.472c.02.46.396.819.85.799a.823.823 0 0 0 .78-.86.816.816 0 0 0-.821-.8.854.854 0 0 0-.809.861Zm.854 4.427a.823.823 0 0 1-.85-.799c0-.46.354-.84.809-.86a.815.815 0 0 1 .82.797.824.824 0 0 1-.779.862Zm-4.922-4.392c.02.46.396.82.85.799.445-.02.8-.4.778-.86a.815.815 0 0 0-.82-.8.852.852 0 0 0-.808.861Zm.854 4.397a.822.822 0 0 1-.85-.799.853.853 0 0 1 .809-.86.815.815 0 0 1 .82.798.82.82 0 0 1-.779.861Z" clip-rule="evenodd"/></symbol><symbol xmlns="http://www.w3.org/2000/svg" id="call" fill="none" viewBox="0 0 24 24"><path fill="currentColor" fill-rule="evenodd" d="M11.532 12.472c3.989 3.988 4.894-.625 7.434 1.913 2.448 2.448 3.856 2.938.753 6.04-.388.312-2.857 4.07-11.534-4.605C-.493 7.144 3.262 4.672 3.574 4.284c3.11-3.11 3.592-1.695 6.04.753 2.54 2.54-2.071 3.447 1.918 7.435Z" clip-rule="evenodd"/></symbol><symbol xmlns="http://www.w3.org/2000/svg" id="calling" fill="none" viewBox="0 0 24 24"><path fill="currentColor" d="M14.418 5.49a.854.854 0 0 0-1.004.68.862.862 0 0 0 .678 1.01 3.462 3.462 0 0 1 2.743 2.75.86.86 0 0 0 1.006.681.865.865 0 0 0 .677-1.01 5.174 5.174 0 0 0-4.1-4.111"/><path fill="currentColor" d="M14.356 2.008a.817.817 0 0 0-.625.176.852.852 0 0 0-.323.584.86.86 0 0 0 .757.95 6.912 6.912 0 0 1 6.126 6.139.857.857 0 1 0 1.704-.192c-.454-4.058-3.595-7.206-7.639-7.657"/><path fill="currentColor" fill-rule="evenodd" d="M11.032 12.972c3.989 3.988 4.894-.625 7.434 1.913 2.448 2.448 3.856 2.938.753 6.04-.388.312-2.857 4.07-11.534-4.605C-.993 7.644 2.762 5.172 3.074 4.784c3.11-3.11 3.592-1.695 6.04.753 2.54 2.54-2.071 3.447 1.918 7.435Z" clip-rule="evenodd"/></symbol><symbol xmlns="http://www.w3.org/2000/svg" id="callMissed" fill="none" viewBox="0 0 24 24"><path fill="currentColor" d="m19.337 5.918 2.404-2.413a.883.883 0 0 0 .26-.627.883.883 0 0 0-.26-.627.903.903 0 0 0-1.249 0L18.09 4.664l-2.405-2.413a.903.903 0 0 0-1.249 0 .887.887 0 0 0 0 1.254l2.404 2.413-2.404 2.412a.887.887 0 0 0 0 1.255.903.903 0 0 0 1.25 0l2.404-2.414 2.403 2.414a.878.878 0 0 0 1.249 0 .883.883 0 0 0 .26-.628.883.883 0 0 0-.26-.627l-2.404-2.412Z"/><path fill="currentColor" fill-rule="evenodd" d="M11.032 12.972c3.989 3.988 4.894-.625 7.434 1.913 2.448 2.448 3.856 2.938.753 6.04-.388.312-2.857 4.07-11.534-4.605C-.993 7.644 2.762 5.172 3.074 4.784c3.11-3.11 3.592-1.695 6.04.753 2.54 2.54-2.071 3.447 1.918 7.435Z" clip-rule="evenodd"/></symbol><symbol xmlns="http://www.w3.org/2000/svg" id="callSilent" fill="none" viewBox="0 0 24 24"><path fill="currentColor" fill-rule="evenodd" d="M21.375 3.87v-.01a.894.894 0 0 0 0-1.23.855.855 0 0 0-.605-.266.816.816 0 0 0-.595.265L2.215 21.057c-.03.03-.05.06-.069.091l-.03.04a.898.898 0 0 0 .13 1.058.898.898 0 0 0 .604.254.856.856 0 0 0 .594-.254l5.362-5.498c7.4 7.24 9.884 4.585 10.46 3.97.037-.04.067-.072.09-.091 2.666-2.722 1.932-3.435.092-5.223-.257-.25-.535-.52-.829-.82-1.106-1.123-1.895-.84-2.772-.524-.966.348-2.038.734-3.757-.678l-.527.54.396-.407 9.416-9.646ZM6.185 14.204C.192 7.415 2.575 5.06 3.16 4.485c.043-.043.076-.075.095-.1C5.941 1.66 6.64 2.407 8.391 4.278c.249.266.519.554.819.859 1.105 1.127.829 1.933.521 2.83-.257.751-.536 1.566-.044 2.686l-3.502 3.552Z" clip-rule="evenodd"/></symbol><symbol xmlns="http://www.w3.org/2000/svg" id="camera" fill="none" viewBox="0 0 24 24"><path fill="currentColor" fill-rule="evenodd" d="M17.44 6.236c.04.07.11.12.2.12 2.4 0 4.36 1.958 4.36 4.355v5.934A4.368 4.368 0 0 1 17.64 21H6.36A4.361 4.361 0 0 1 2 16.645V10.71a4.361 4.361 0 0 1 4.36-4.355c.08 0 .16-.04.19-.12l.06-.12.106-.222a97.79 97.79 0 0 1 .714-1.486C7.89 3.51 8.67 3.01 9.64 3h4.71c.97.01 1.76.51 2.22 1.408.157.315.397.822.629 1.31l.141.299.1.22Zm-.73 3.836c0 .5.4.9.9.9s.91-.4.91-.9-.41-.909-.91-.909-.9.41-.9.91Zm-6.44 1.548a2.42 2.42 0 0 1 1.73-.719c.65 0 1.26.25 1.72.71.46.459.71 1.068.71 1.717A2.438 2.438 0 0 1 12 15.756c-.65 0-1.26-.25-1.72-.71a2.408 2.408 0 0 1-.71-1.717v-.01c-.01-.63.24-1.24.7-1.699Zm4.5 4.485a3.91 3.91 0 0 1-2.77 1.15 3.921 3.921 0 0 1-3.93-3.926 3.865 3.865 0 0 1 1.14-2.767A3.921 3.921 0 0 1 12 9.402c1.05 0 2.04.41 2.78 1.15a3.939 3.939 0 0 1 1.15 2.777 3.958 3.958 0 0 1-1.16 2.776Z" clip-rule="evenodd"/></symbol><symbol xmlns="http://www.w3.org/2000/svg" id="category" fill="none" viewBox="0 0 24 24"><path fill="currentColor" fill-rule="evenodd" d="M4.54 2h3.38c1.41 0 2.54 1.15 2.54 2.561V7.97c0 1.42-1.13 2.56-2.54 2.56H4.54C3.14 10.53 2 9.39 2 7.97V4.561C2 3.15 3.14 2 4.54 2Zm0 11.47h3.38c1.41 0 2.54 1.14 2.54 2.56v3.41c0 1.41-1.13 2.56-2.54 2.56H4.54C3.14 22 2 20.85 2 19.44v-3.41c0-1.42 1.14-2.56 2.54-2.56ZM19.46 2h-3.38c-1.41 0-2.54 1.15-2.54 2.561V7.97c0 1.42 1.13 2.56 2.54 2.56h3.38c1.4 0 2.54-1.14 2.54-2.56V4.561C22 3.15 20.86 2 19.46 2Zm-3.38 11.47h3.38c1.4 0 2.54 1.14 2.54 2.56v3.41c0 1.41-1.14 2.56-2.54 2.56h-3.38c-1.41 0-2.54-1.15-2.54-2.56v-3.41c0-1.42 1.13-2.56 2.54-2.56Z" clip-rule="evenodd"/></symbol><symbol xmlns="http://www.w3.org/2000/svg" id="chat" fill="none" viewBox="0 0 24 24"><path fill="currentColor" fill-rule="evenodd" d="M7.33 2h9.34c3.4 0 5.32 1.93 5.33 5.33v9.34c0 3.4-1.93 5.33-5.33 5.33H7.33C3.93 22 2 20.07 2 16.67V7.33C2 3.93 3.93 2 7.33 2Zm4.72 15.86c.43 0 .79-.32.83-.75V6.92a.815.815 0 0 0-.38-.79.84.84 0 0 0-1.28.79v10.19c.05.43.41.75.83.75Zm4.6 0c.42 0 .78-.32.83-.75v-3.28a.839.839 0 0 0-1.28-.79.806.806 0 0 0-.38.79v3.28c.04.43.4.75.83.75Zm-8.43-.75a.827.827 0 0 1-.83.75c-.43 0-.79-.32-.83-.75V10.2a.84.84 0 0 1 .39-.79c.27-.17.61-.17.88 0s.42.48.39.79v6.91Z" clip-rule="evenodd"/></symbol><symbol xmlns="http://www.w3.org/2000/svg" id="chat2" fill="none" viewBox="0 0 24 24"><path fill="currentColor" fill-rule="evenodd" d="M2 12.015C2 6.747 6.21 2 12.02 2 17.7 2 22 6.657 22 11.985 22 18.165 16.96 22 12 22c-1.64 0-3.46-.44-4.92-1.302-.51-.31-.94-.54-1.49-.36l-2.02.6c-.51.16-.97-.24-.82-.78l.67-2.244c.11-.31.09-.641-.07-.902C2.49 15.43 2 13.697 2 12.015Zm8.7 0c0 .711.57 1.282 1.28 1.292a1.283 1.283 0 0 0 0-2.564c-.7-.01-1.28.571-1.28 1.272Zm4.61.01c0 .701.57 1.282 1.28 1.282a1.283 1.283 0 0 0 0-2.564c-.71 0-1.28.571-1.28 1.282Zm-7.94 1.282c-.7 0-1.28-.58-1.28-1.282 0-.711.57-1.282 1.28-1.282.71 0 1.28.571 1.28 1.282a1.29 1.29 0 0 1-1.28 1.282Z" clip-rule="evenodd"/></symbol><symbol xmlns="http://www.w3.org/2000/svg" id="closeSquare" fill="none" viewBox="0 0 24 24"><path fill="currentColor" fill-rule="evenodd" d="M7.67 2h8.67C19.73 2 22 4.38 22 7.92v8.17c0 3.53-2.27 5.91-5.66 5.91H7.67C4.28 22 2 19.62 2 16.09V7.92C2 4.38 4.28 2 7.67 2Zm7.34 13a.868.868 0 0 0 0-1.23l-1.78-1.78 1.78-1.78a.88.88 0 0 0 0-1.24.88.88 0 0 0-1.24 0L12 10.75l-1.78-1.78a.88.88 0 0 0-1.24 0 .88.88 0 0 0 0 1.24l1.78 1.78-1.78 1.77a.88.88 0 0 0 .62 1.5c.23 0 .45-.09.62-.26L12 13.23 13.78 15c.17.18.39.26.61.26.23 0 .45-.09.62-.26Z" clip-rule="evenodd"/></symbol><symbol xmlns="http://www.w3.org/2000/svg" id="danger" fill="none" viewBox="0 0 24 24"><path fill="currentColor" fill-rule="evenodd" d="m14.477 4.442 7.269 12.615c.16.377.23.683.25 1.001a2.76 2.76 0 0 1-.73 2.021 2.84 2.84 0 0 1-1.95.921H4.68c-.31-.019-.62-.09-.91-.198-1.45-.585-2.15-2.23-1.56-3.656L9.53 4.433a2.73 2.73 0 0 1 1.099-1.08 2.85 2.85 0 0 1 3.85 1.09Zm-1.61 8.314c0 .475-.39.873-.87.873a.885.885 0 0 1-.88-.873V9.952c0-.476.4-.862.88-.862s.87.386.87.862v2.804Zm-.87 4.262a.884.884 0 0 1-.88-.872c0-.477.4-.873.88-.873s.87.387.87.862c0 .485-.39.883-.87.883Z" clip-rule="evenodd"/></symbol><symbol xmlns="http://www.w3.org/2000/svg" id="dc" fill="none" viewBox="0 0 39 17"><g clip-path="url(#a)"><mask id="b" width="39" height="17" x="0" y="0" maskUnits="userSpaceOnUse"><path fill="currentColor" d="M38.55.25H.45v16.5h38.1V.25Z"/></mask><g fill="currentColor" mask="url(#b)"><path fill-rule="evenodd" d="M8.1 10.228h.005l.485-3.554.677-4.989H5.09l-1.16 8.543-.179 1.32h.014l-.103.756a6.523 6.523 0 0 1 3.048-.756h1.223l.15-1.102H8.07l.03-.218Zm1.716-4.446h3.216c1.374 0 2.344 1.13 2.154 2.512l-.25 1.84c-.187 1.384-1.463 2.512-2.836 2.512h1.027a6.597 6.597 0 0 0 3.748-1.183 6.665 6.665 0 0 0 2.425-3.11c.02-3.57-2.91-6.672-6.628-6.672h-2.299l-.557 4.101Z" clip-rule="evenodd"/><path fill-rule="evenodd" d="M2.14 14.356A6.646 6.646 0 0 0 .45 16.75h12.01a6.584 6.584 0 0 0 4.323-1.631 6.665 6.665 0 0 0 2.208-4.082l.25-1.838a6.45 6.45 0 0 0 .06-.841 6.665 6.665 0 0 1-2.425 3.11 6.598 6.598 0 0 1-3.749 1.184h-6.58a6.567 6.567 0 0 0-4.407 1.709M27.275 8.01h-3.061c-.97 0-1.657-.8-1.524-1.778l.176-1.302c.133-.976 1.036-1.777 2.008-1.777h-.728a4.667 4.667 0 0 0-2.65.838 4.714 4.714 0 0 0-1.715 2.2c-.014 2.527 2.059 4.72 4.688 4.72h3.406l.394-2.903-.994.002Zm1.385 2.902h.802l.395-2.902h-.803l-.394 2.902Z" clip-rule="evenodd"/><path fill-rule="evenodd" d="M30.701 1.945A4.715 4.715 0 0 0 31.897.25h-7.279a4.659 4.659 0 0 0-3.06 1.154 4.716 4.716 0 0 0-1.562 2.889l-.177 1.301a4.498 4.498 0 0 0-.042.595 4.714 4.714 0 0 1 1.714-2.2 4.667 4.667 0 0 1 2.651-.839h3.434a4.648 4.648 0 0 0 3.12-1.207" clip-rule="evenodd"/><path d="M33.378 10.608a.296.296 0 0 1-.085.218.298.298 0 0 1-.217.086h-1.027a.286.286 0 0 1-.218-.085.293.293 0 0 1-.085-.22V7.116a.296.296 0 0 1 .085-.22.29.29 0 0 1 .218-.084h1.027a.291.291 0 0 1 .302.304v.945h-.363v-.927h-.906v3.457h.906V9.58h.363v1.028Zm1.02.304h-.363V6.81h.363v4.1Zm2.078-3.78h-.63v3.78h-.362v-3.78h-.634v-.325h1.627v.326Zm2.074-.298-.498 1.658a9.598 9.598 0 0 0-.249.832v1.588h-.362V9.324a2.82 2.82 0 0 0-.113-.42c-.081-.251-.129-.388-.136-.412l-.498-1.658v-.023h.371l.566 2.051.562-2.051h.363v.023M22.964 16.01a.718.718 0 0 1-.746.74h-.93v-4.09h.93a.723.723 0 0 1 .696.452.73.73 0 0 1 .05.288v2.61Zm-.362-.036V13.43a.435.435 0 0 0-.127-.325.443.443 0 0 0-.323-.124h-.501v3.448h.48a.483.483 0 0 0 .341-.122.427.427 0 0 0 .131-.334h-.002Zm2.68.473a.293.293 0 0 1-.085.218.29.29 0 0 1-.216.082h-1.083a.284.284 0 0 1-.218-.085.29.29 0 0 1-.083-.219V12.66h.36v3.77h.963v-3.77h.363v3.787Zm2.234 0a.29.29 0 0 1-.184.284.285.285 0 0 1-.118.02h-.997a.289.289 0 0 1-.301-.304v-1.025h.36v1.008h.879v-.977l-1.123-1.362a.474.474 0 0 1-.116-.31v-.813a.293.293 0 0 1 .184-.284.287.287 0 0 1 .117-.02h.997a.285.285 0 0 1 .283.185.29.29 0 0 1 .019.119v.939h-.361v-.925h-.878v.864l1.131 1.36a.47.47 0 0 1 .112.306l-.004.935Zm2.34.303h-.361v-1.965h-.98v1.965h-.36v-4.09h.36v1.799h.98V12.66h.36v4.09Zm2.287 0h-.357l-.143-.905h-.808l-.143.905h-.346v-.01l.723-4.09h.357l.717 4.1Zm-.547-1.226-.356-2.22-.36 2.22h.716Zm2.71 1.226h-.249l-1.085-3.01v3.01h-.341v-4.09h.27l1.065 2.956V12.66h.34v4.09Zm2.274-.303a.29.29 0 0 1-.302.303h-1.323v-4.09h1.315a.293.293 0 0 1 .218.082.293.293 0 0 1 .08.218v1.34c0 .074-.047.135-.144.185l-.285.118.306.131a.182.182 0 0 1 .134.172v1.54Zm-.372-2.238v-1.227h-.891v1.471h.535l.356-.244Zm.01 2.22v-1.418l-.366-.244h-.538v1.66l.905.003Zm2.33.321h-1.334v-4.09h1.32v.326h-.957v1.525h.872v.325h-.872v1.596h.97v.318Z"/></g></g></symbol><symbol xmlns="http://www.w3.org/2000/svg" id="delete" fill="none" viewBox="0 0 24 24"><path fill="currentColor" fill-rule="evenodd" d="M20.287 5.243c.39 0 .713.323.713.734v.38a.73.73 0 0 1-.713.734H3.714A.73.73 0 0 1 3 6.357v-.38c0-.411.324-.734.714-.734H6.63c.592 0 1.107-.421 1.24-1.015l.153-.682C8.261 2.617 9.041 2 9.935 2h4.13c.884 0 1.674.617 1.902 1.497l.163.73a1.28 1.28 0 0 0 1.241 1.016h2.916Zm-1.481 13.891c.304-2.837.837-9.577.837-9.645a.746.746 0 0 0-.18-.558.726.726 0 0 0-.524-.234H5.07a.71.71 0 0 0-.524.234.79.79 0 0 0-.19.558l.053.647c.142 1.763.537 6.674.793 8.998.18 1.712 1.304 2.788 2.931 2.827 1.256.029 2.55.039 3.872.039 1.246 0 2.51-.01 3.805-.039 1.684-.029 2.806-1.086 2.997-2.827Z" clip-rule="evenodd"/></symbol><symbol xmlns="http://www.w3.org/2000/svg" id="discount" fill="none" viewBox="0 0 24 24"><path fill="currentColor" fill-rule="evenodd" d="m20.4 9.146.72.72c.57.56.88 1.32.88 2.12a2.975 2.975 0 0 1-.88 2.15l-.01.01-.71.71a1.5 1.5 0 0 0-.441 1.061v1.029c0 1.66-1.35 3.011-3.011 3.011h-1.03c-.4 0-.78.159-1.06.439l-.721.72c-.59.591-1.36.88-2.13.88a3.03 3.03 0 0 1-2.132-.869l-.73-.731c-.28-.28-.66-.439-1.06-.439h-1.03a3.014 3.014 0 0 1-3.012-3.011v-1.029c0-.401-.16-.781-.44-1.071l-.72-.71a3.022 3.022 0 0 1-.01-4.259l.73-.731c.28-.28.44-.66.44-1.07v-1.02c0-1.66 1.35-3.009 3.011-3.009h1.03c.4 0 .781-.161 1.061-.441l.72-.72a3.018 3.018 0 0 1 4.262-.009l.73.729c.28.28.66.441 1.06.441h1.03a3.013 3.013 0 0 1 3.012 3.009v1.031c0 .399.16.779.44 1.059Zm-10.975 6.3c.24 0 .46-.09.62-.26l5.142-5.139a.882.882 0 0 0 0-1.241.871.871 0 0 0-1.23 0l-5.142 5.14c-.34.34-.34.9 0 1.24.16.17.38.26.61.26Zm4.272-.88a.875.875 0 1 0 1.75.01.875.875 0 0 0-1.75-.01Zm-4.262-6.01c.48 0 .87.39.87.87 0 .491-.39.88-.87.88a.88.88 0 0 1-.88-.88c0-.48.4-.87.88-.87Z" clip-rule="evenodd"/></symbol><symbol xmlns="http://www.w3.org/2000/svg" id="discovery" fill="none" viewBox="0 0 24 24"><path fill="currentColor" fill-rule="evenodd" d="M2 12C2 6.48 6.47 2 12 2c5.52 0 10 4.48 10 10 0 5.53-4.48 10-10 10-5.53 0-10-4.47-10-10Zm12.23 1.83 1.62-5.12a.45.45 0 0 0-.56-.57l-5.12 1.6c-.21.07-.38.23-.44.44l-1.6 5.13c-.11.34.22.67.56.56l5.1-1.6c.21-.06.38-.23.44-.44Z" clip-rule="evenodd"/></symbol><symbol xmlns="http://www.w3.org/2000/svg" id="document" fill="none" viewBox="0 0 24 24"><path fill="currentColor" fill-rule="evenodd" d="M7.81 2h8.381C19.28 2 21 3.78 21 6.83v10.33c0 3.1-1.72 4.84-4.809 4.84H7.81C4.77 22 3 20.26 3 17.16V6.83C3 3.78 4.77 2 7.81 2Zm.27 4.66v-.01h2.989c.431 0 .781.35.781.779 0 .441-.35.791-.781.791H8.08a.78.78 0 0 1 0-1.56Zm0 6.08h7.84a.781.781 0 0 0 0-1.561H8.08a.781.781 0 0 0 0 1.561Zm0 4.57h7.84c.399-.04.7-.381.7-.78 0-.41-.301-.75-.7-.79H8.08a.795.795 0 0 0-.75 1.21c.16.25.45.4.75.36Z" clip-rule="evenodd"/></symbol><symbol xmlns="http://www.w3.org/2000/svg" id="download" fill="none" viewBox="0 0 24 24"><path fill="currentColor" d="M11.23 7.29V3.283c0-.427.34-.782.77-.782.385 0 .711.298.763.677l.007.104v4.01h4.78c2.38 0 4.335 1.949 4.445 4.38l.005.215v5.04c0 2.447-1.887 4.456-4.232 4.569l-.208.005H6.44c-2.38 0-4.326-1.94-4.435-4.379L2 16.905v-5.03c0-2.447 1.878-4.466 4.222-4.58l.208-.004h4.8v6.402l-1.6-1.652a.755.755 0 0 0-1.09 0 .81.81 0 0 0-.22.568c0 .157.045.32.14.459l.08.099 2.91 3.015c.14.155.34.237.55.237a.735.735 0 0 0 .465-.166l.075-.071 2.91-3.015c.3-.31.3-.816 0-1.126a.755.755 0 0 0-1.004-.077l-.086.077-1.59 1.652V7.291h-1.54Z"/></symbol><symbol xmlns="http://www.w3.org/2000/svg" id="edit" fill="none" viewBox="0 0 24 24"><path fill="currentColor" fill-rule="evenodd" d="m9.376 20.028 8.787-11.363c.477-.612.647-1.32.488-2.042-.138-.656-.541-1.28-1.146-1.752L16.03 3.699c-1.284-1.021-2.876-.914-3.789.258l-.986 1.28a.378.378 0 0 0 .063.526l2.547 2.042c.17.162.297.377.33.635a.945.945 0 0 1-.818 1.042.846.846 0 0 1-.647-.182l-2.621-2.086a.313.313 0 0 0-.425.054L3.455 15.33a2.133 2.133 0 0 0-.403 1.795l.796 3.451a.4.4 0 0 0 .392.312l3.502-.043a2.104 2.104 0 0 0 1.634-.817Zm4.904-1.075h5.71c.557 0 1.01.46 1.01 1.024 0 .565-.453 1.023-1.01 1.023h-5.71c-.557 0-1.01-.458-1.01-1.023s.453-1.024 1.01-1.024Z" clip-rule="evenodd"/></symbol><symbol xmlns="http://www.w3.org/2000/svg" id="editSquare" fill="none" viewBox="0 0 24 24"><path fill="currentColor" fill-rule="evenodd" d="M16.665 2.01a5.323 5.323 0 0 1 3.926 1.39 5.381 5.381 0 0 1 1.399 3.936v9.33a5.373 5.373 0 0 1-1.389 3.936 5.347 5.347 0 0 1-3.936 1.389h-9.33A5.332 5.332 0 0 1 3.399 20.6a5.332 5.332 0 0 1-1.389-3.936v-9.33A5.332 5.332 0 0 1 3.4 3.399 5.332 5.332 0 0 1 7.335 2.01h9.33Zm-5.684 14.835 6.723-6.743c.61-.62.61-1.618 0-2.228l-1.298-1.298a1.58 1.58 0 0 0-2.238 0l-.67.679c-.1.1-.1.27 0 .37 0 0 1.589 1.578 1.619 1.618.11.12.18.28.18.46a.66.66 0 0 1-.66.659c-.17 0-.33-.07-.44-.18L12.53 8.524a.217.217 0 0 0-.3 0l-4.765 4.765c-.33.33-.52.769-.53 1.238l-.06 2.368c0 .13.04.25.13.34.09.09.21.14.34.14h2.347c.48 0 .94-.19 1.29-.53Z" clip-rule="evenodd"/></symbol><symbol xmlns="http://www.w3.org/2000/svg" id="filter" fill="none" viewBox="0 0 24 24"><path fill="currentColor" fill-rule="evenodd" d="M8.878 6.379c0 1.866-1.54 3.38-3.44 3.38C3.54 9.758 2 8.244 2 6.378 2 4.513 3.54 3 5.439 3c1.9 0 3.439 1.513 3.439 3.379Zm11.615-1.48c.831 0 1.507.663 1.507 1.48s-.676 1.48-1.507 1.48h-6.575c-.832 0-1.508-.663-1.508-1.48s.676-1.48 1.508-1.48h6.575ZM3.508 15.957h6.575c.832 0 1.508.664 1.508 1.481 0 .817-.675 1.482-1.508 1.482H3.508C2.676 18.92 2 18.256 2 17.439s.676-1.481 1.508-1.481Zm15.053 4.82c1.9 0 3.439-1.513 3.439-3.379 0-1.867-1.539-3.38-3.439-3.38-1.899 0-3.439 1.514-3.439 3.38 0 1.866 1.54 3.379 3.44 3.379Z" clip-rule="evenodd"/></symbol><symbol xmlns="http://www.w3.org/2000/svg" id="filter2" fill="none" viewBox="0 0 24 24"><path fill="currentColor" fill-rule="evenodd" d="M4.128 2h15.744C21.048 2 22 2.981 22 4.192v1.532c0 .587-.23 1.152-.637 1.563l-6.505 6.58a.586.586 0 0 1-.423.177l-5.446-.017a.591.591 0 0 1-.437-.195L2.575 7.257A2.23 2.23 0 0 1 2 5.757V4.194C2 2.983 2.952 2 4.128 2ZM9.28 15.824l4.855.015a.558.558 0 0 1 .547.565v2.731a.799.799 0 0 1-.453.725l-4.406 2.069a.76.76 0 0 1-.739-.055.802.802 0 0 1-.355-.67V16.39c0-.312.247-.566.551-.565Z" clip-rule="evenodd"/></symbol><symbol xmlns="http://www.w3.org/2000/svg" id="folder" fill="none" viewBox="0 0 24 24"><path fill="currentColor" fill-rule="evenodd" d="M13.45 4.88h3.07c3.69 0 5.49 1.97 5.48 6.01v4.87c0 3.86-2.38 6.24-6.25 6.24H8.24C4.39 22 2 19.62 2 15.75V8.24C2 4.1 3.84 2 7.47 2h1.58c.931-.01 1.8.42 2.37 1.15l.88 1.17c.28.35.7.56 1.15.56ZM7.37 15.29h9.26c.41 0 .74-.34.74-.75a.74.74 0 0 0-.74-.75H7.37c-.42 0-.75.33-.75.75 0 .41.33.75.75.75Z" clip-rule="evenodd"/></symbol><symbol xmlns="http://www.w3.org/2000/svg" id="game" fill="none" viewBox="0 0 24 24"><path fill="currentColor" fill-rule="evenodd" d="m15.164 6.083.948.011c3.405 0 5.888 2.428 5.888 5.78v4.307c0 3.353-2.483 5.78-5.888 5.78A193.5 193.5 0 0 1 12.01 22c-1.374 0-2.758-.01-4.122-.038-3.405 0-5.888-2.428-5.888-5.78v-4.307c0-3.353 2.483-5.78 5.898-5.78 1.286-.02 2.6-.04 3.935-.04v-.163c0-.665-.56-1.204-1.226-1.204h-.972c-1.109 0-2.012-.886-2.012-1.965 0-.395.334-.723.736-.723.412 0 .736.328.736.723 0 .289.246.52.54.52h.972c1.481.01 2.688 1.194 2.698 2.64v.183c.619 0 1.238.008 1.859.017Zm-4.312 8.663h-1.03v1.02a.735.735 0 0 1-.737.723.728.728 0 0 1-.736-.722v-1.021H7.31a.728.728 0 0 1-.736-.723c0-.395.334-.722.736-.722h1.04v-1.012c0-.395.324-.723.736-.723.403 0 .736.328.736.723v1.012h1.03c.403 0 .737.327.737.722a.728.728 0 0 1-.736.723Zm4.17-1.629h.099a.728.728 0 0 0 .736-.722.735.735 0 0 0-.736-.723h-.098a.722.722 0 1 0 0 1.445Zm1.679 3.315h.098a.728.728 0 0 0 .736-.723.735.735 0 0 0-.736-.723H16.7a.722.722 0 1 0 0 1.445Z" clip-rule="evenodd"/></symbol><symbol xmlns="http://www.w3.org/2000/svg" id="graph" fill="none" viewBox="0 0 24 24"><path fill="currentColor" fill-rule="evenodd" d="M12.326 2.21a.824.824 0 0 1 .588-.21c4.57.138 8.39 3.456 9.083 7.89a.244.244 0 0 1 0 .08.781.781 0 0 1-.197.576.811.811 0 0 1-.555.269l-7.68.506a.917.917 0 0 1-.693-.23.88.88 0 0 1-.293-.658l-.517-7.544v-.124a.793.793 0 0 1 .264-.555ZM11.8 13.294l6.63-.41h.071c.286.005.558.121.757.323.199.202.308.473.303.753-.263 3.822-3.065 7.015-6.878 7.838-3.814.823-7.723-.923-9.595-4.284a8.215 8.215 0 0 1-1.024-3.136 5.956 5.956 0 0 1-.063-.987C2.014 9.327 4.907 5.82 8.956 4.96c.49-.092.982.152 1.196.595.105.16.133.354.145.545.07 1.074.142 2.139.214 3.2.062.913.124 1.822.184 2.732-.003.214.03.427.1.63.162.4.566.654 1.005.632Z" clip-rule="evenodd"/></symbol><symbol xmlns="http://www.w3.org/2000/svg" id="heart" fill="none" viewBox="0 0 24 24"><path fill="currentColor" fill-rule="evenodd" d="M15.85 2.5c.63 0 1.26.09 1.86.29 3.69 1.2 5.02 5.25 3.91 8.79a12.728 12.728 0 0 1-3.01 4.81 38.456 38.456 0 0 1-6.33 4.96l-.25.15-.26-.16a38.093 38.093 0 0 1-6.37-4.96 12.933 12.933 0 0 1-3.01-4.8c-1.13-3.54.2-7.59 3.93-8.81.29-.1.59-.17.89-.21h.12c.28-.04.56-.06.84-.06h.11c.63.02 1.24.13 1.83.33h.06c.04.02.07.04.09.06.22.07.43.15.63.26l.38.17c.092.05.195.125.284.19.056.04.107.077.146.1l.05.03c.085.05.175.102.25.16a6.263 6.263 0 0 1 3.85-1.3Zm2.66 7.2c.41-.01.76-.34.79-.76v-.12a3.3 3.3 0 0 0-2.11-3.16.8.8 0 0 0-1.01.5c-.14.42.08.88.5 1.03.64.24 1.07.87 1.07 1.57v.03a.86.86 0 0 0 .19.62c.14.17.35.27.57.29Z" clip-rule="evenodd"/></symbol><symbol xmlns="http://www.w3.org/2000/svg" id="hide" fill="none" viewBox="0 0 24 24"><path fill="currentColor" fill-rule="evenodd" d="M9.803 15.253a3.924 3.924 0 0 0 2.196.679c2.146 0 3.893-1.762 3.893-3.928 0-.817-.254-1.585-.673-2.215l-1.064 1.073c.176.334.273.728.273 1.142 0 1.348-1.093 2.451-2.43 2.451-.41 0-.8-.098-1.131-.275l-1.064 1.073ZM18.43 6.55c1.415 1.3 2.615 3.051 3.513 5.158a.75.75 0 0 1 0 .581c-2.089 4.903-5.806 7.837-9.943 7.837h-.01c-1.883 0-3.688-.62-5.279-1.753l-1.893 1.91a.72.72 0 0 1-.517.217.705.705 0 0 1-.517-.217.736.736 0 0 1-.088-.925l.03-.04 14.43-14.56c.02-.02.04-.04.05-.06.019-.02.038-.039.048-.058l.917-.926a.731.731 0 0 1 1.035 0 .73.73 0 0 1 0 1.044L18.429 6.55ZM8.1 12.008c0 .256.029.512.068.748l-3.61 3.642c-.976-1.142-1.825-2.52-2.498-4.105a.75.75 0 0 1 0-.58c2.088-4.904 5.805-7.828 9.933-7.828h.01c1.395 0 2.75.335 4 .965l-3.26 3.288a4.515 4.515 0 0 0-.74-.069c-2.157 0-3.904 1.763-3.904 3.938Z" clip-rule="evenodd"/></symbol><symbol xmlns="http://www.w3.org/2000/svg" id="home" fill="none" viewBox="0 0 24 24"><path fill="currentColor" d="M9.135 20.773v-3.057c0-.78.637-1.414 1.423-1.414h2.875c.377 0 .74.15 1.006.414.267.265.417.625.417 1v3.057c-.002.325.126.637.356.867.23.23.544.36.87.36h1.962a3.46 3.46 0 0 0 2.443-1 3.41 3.41 0 0 0 1.013-2.422V9.867c0-.735-.328-1.431-.895-1.902l-6.671-5.29a3.097 3.097 0 0 0-3.949.072L3.467 7.965A2.474 2.474 0 0 0 2.5 9.867v8.702C2.5 20.464 4.047 22 5.956 22h1.916c.68 0 1.231-.544 1.236-1.218l.027-.009Z"/></symbol><symbol xmlns="http://www.w3.org/2000/svg" id="home2" fill="none" viewBox="0 0 24 24"><path stroke="currentColor" stroke-linecap="round" stroke-linejoin="round" stroke-width="1.5" d="M9 17h6M3 14.6v-2.47c0-1.149 0-1.723.148-2.252a4 4 0 0 1 .636-1.3c.327-.442.78-.794 1.687-1.5l2.6-2.022c1.405-1.093 2.108-1.64 2.884-1.85a4 4 0 0 1 2.09 0c.776.21 1.479.757 2.884 1.85l2.6 2.022c.907.706 1.36 1.058 1.687 1.5.29.39.505.832.636 1.3.148.53.148 1.103.148 2.252v2.47c0 2.24 0 3.36-.436 4.216a4 4 0 0 1-1.748 1.748C17.96 21 16.84 21 14.6 21H9.4c-2.24 0-3.36 0-4.216-.436a4 4 0 0 1-1.748-1.748C3 17.96 3 16.84 3 14.6Z"/></symbol><symbol xmlns="http://www.w3.org/2000/svg" id="image" fill="none" viewBox="0 0 24 24"><path fill="currentColor" fill-rule="evenodd" d="M7.666 22h8.667C19.723 22 22 19.622 22 16.083V7.917C22 4.378 19.723 2 16.334 2H7.666C4.276 2 2 4.378 2 7.917v8.166C2 19.622 4.277 22 7.666 22ZM8.5 11A2.502 2.502 0 0 1 6 8.5C6 7.122 7.12 6 8.499 6a2.503 2.503 0 0 1 2.499 2.5c0 1.378-1.121 2.5-2.5 2.5Zm11.322 3.934c.335.859.16 1.89-.197 2.74-.425 1.012-1.237 1.778-2.26 2.112a4.525 4.525 0 0 1-1.408.214H7.53c-.839 0-1.581-.201-2.19-.576-.38-.235-.448-.778-.165-1.13.472-.588.939-1.178 1.41-1.774.896-1.14 1.5-1.47 2.172-1.18.273.12.546.3.828.49.75.51 1.793 1.21 3.167.45.94-.527 1.485-1.43 1.96-2.216l.008-.013.1-.166c.16-.264.317-.524.495-.764.223-.3 1.05-1.24 2.123-.57.682.42 1.257.99 1.871 1.6.234.233.401.498.513.783Z" clip-rule="evenodd"/></symbol><symbol xmlns="http://www.w3.org/2000/svg" id="image2" fill="none" viewBox="0 0 24 24"><path fill="currentColor" fill-rule="evenodd" d="M7.638 3.395c-2.577 0-4.242 1.767-4.242 4.493v8.214c0 .765.142 1.448.385 2.04l.537-.656 1.44-1.752c.692-.79 1.99-1.968 3.696-1.255.373.155.705.368 1.01.563l.09.056c.572.383.91.563 1.26.533.145-.02.28-.063.41-.143.486-.3 1.748-2.087 2.126-2.622l.104-.147c1.09-1.42 2.77-1.8 4.17-.96.188.112 1.535 1.053 1.98 1.431V7.888c0-2.726-1.665-4.493-4.25-4.493H7.638ZM16.354 2C19.73 2 22 4.362 22 7.888v8.214c0 .09-.01.172-.02.255-.006.059-.012.117-.015.177a3.641 3.641 0 0 0-.005.11 2.726 2.726 0 0 1-.007.145.554.554 0 0 1-.009.056c-.004.018-.008.036-.01.055a6.805 6.805 0 0 1-.155.905c-.016.073-.036.143-.055.214l-.005.015c-.08.282-.174.551-.287.808a4.55 4.55 0 0 1-.061.128l-.041.084c-.122.245-.254.48-.407.698a2.35 2.35 0 0 1-.09.117l-.058.075a5.073 5.073 0 0 1-.513.582 1.854 1.854 0 0 1-.12.101l-.075.062a5.05 5.05 0 0 1-.607.461c-.047.03-.097.055-.147.08a1.448 1.448 0 0 0-.096.05 5.316 5.316 0 0 1-.688.332c-.058.023-.12.039-.183.055a2.805 2.805 0 0 0-.131.036l-.065.02a5.095 5.095 0 0 1-.667.175c-.136.024-.28.033-.423.042a9.364 9.364 0 0 0-.186.013c-.067.005-.132.013-.197.021a2.613 2.613 0 0 1-.323.026H7.638c-.376 0-.735-.038-1.082-.095l-.037-.006c-1.353-.233-2.476-.886-3.263-1.87-.006 0-.008-.004-.011-.01a.048.048 0 0 0-.007-.01C2.447 19.013 2 17.674 2 16.102V7.888C2 4.362 4.27 2 7.638 2h8.716ZM11 8.515C11 9.87 9.866 11 8.505 11a2.52 2.52 0 0 1-2.446-2.006A2.409 2.409 0 0 1 6 8.469a2.475 2.475 0 0 1 4.26-1.707c.455.451.74 1.074.74 1.753Z" clip-rule="evenodd"/></symbol><symbol xmlns="http://www.w3.org/2000/svg" id="infoCircle" fill="none" viewBox="0 0 24 24"><path fill="currentColor" fill-rule="evenodd" d="M2 12C2 6.48 6.48 2 12 2c5.53 0 10 4.48 10 10s-4.47 10-10 10C6.48 22 2 17.52 2 12Zm9.12-3.79c0-.48.4-.88.88-.88s.87.4.87.88v4.42a.87.87 0 0 1-.87.87.879.879 0 0 1-.88-.87V8.21Zm.89 8.47c-.49 0-.88-.4-.88-.88s.39-.87.87-.87c.49 0 .88.39.88.87s-.39.88-.87.88Z" clip-rule="evenodd"/></symbol><symbol xmlns="http://www.w3.org/2000/svg" id="infoSquare" fill="none" viewBox="0 0 24 24"><path fill="currentColor" fill-rule="evenodd" d="M7.67 2h8.67C19.73 2 22 4.38 22 7.92v8.17c0 3.53-2.27 5.91-5.66 5.91H7.67C4.28 22 2 19.62 2 16.09V7.92C2 4.38 4.28 2 7.67 2Zm4.32 7.06a.87.87 0 0 1-.86-.87.875.875 0 1 1 .86.87Zm.88 6.72c0 .48-.39.87-.88.87a.87.87 0 0 1-.87-.87v-4.42c0-.48.39-.88.87-.88.49 0 .88.4.88.88v4.42Z" clip-rule="evenodd"/></symbol><symbol xmlns="http://www.w3.org/2000/svg" id="location" fill="none" viewBox="0 0 24 24"><path fill="currentColor" fill-rule="evenodd" d="M3.5 10.318C3.5 5.718 7.344 2 11.993 2c4.663 0 8.507 3.718 8.507 8.318 0 2.318-.843 4.47-2.23 6.294a22.063 22.063 0 0 1-5.541 5.14c-.486.318-.925.342-1.459 0a21.64 21.64 0 0 1-5.54-5.14c-1.388-1.824-2.23-3.976-2.23-6.294Zm5.694.259c0 1.54 1.258 2.753 2.8 2.753 1.542 0 2.812-1.212 2.812-2.753 0-1.53-1.27-2.8-2.813-2.8a2.814 2.814 0 0 0-2.799 2.8Z" clip-rule="evenodd"/></symbol><symbol xmlns="http://www.w3.org/2000/svg" id="lock" fill="none" viewBox="0 0 24 24"><path fill="currentColor" fill-rule="evenodd" d="M17.523 7.396v1.533c1.722.538 2.977 2.097 2.977 3.96v4.936c0 2.306-1.911 4.175-4.268 4.175H7.77c-2.36 0-4.27-1.87-4.27-4.175v-4.937c0-1.862 1.256-3.421 2.977-3.959V7.396C6.487 4.415 8.957 2 11.985 2c3.069 0 5.538 2.415 5.538 5.396Zm-5.518-3.657c2.063 0 3.74 1.64 3.74 3.657v1.318h-7.49V7.376c.01-2.007 1.687-3.637 3.75-3.637Zm.884 12.716a.88.88 0 0 1-.894.874.877.877 0 0 1-.884-.874v-2.206c0-.477.396-.865.884-.865.498 0 .894.388.894.865v2.206Z" clip-rule="evenodd"/></symbol><symbol xmlns="http://www.w3.org/2000/svg" id="login" fill="none" viewBox="0 0 24 24"><path fill="currentColor" fill-rule="evenodd" d="M11.886 2h5.04C19.444 2 21.5 4 21.5 6.44v11.12c0 2.45-2.055 4.44-4.595 4.44h-5.03c-2.519 0-4.584-1.99-4.584-4.43v-4.8h6.402l-1.652 1.6c-.31.3-.31.79 0 1.09a.81.81 0 0 0 .568.22c.196 0 .403-.07.558-.22l3.015-2.91a.736.736 0 0 0 .237-.55c0-.2-.082-.4-.237-.54l-3.015-2.91a.816.816 0 0 0-1.126 0c-.31.3-.31.79 0 1.09l1.652 1.59H7.291V6.45C7.29 4 9.356 2 11.886 2ZM2.5 12c0-.42.355-.77.781-.77h4.01v1.54H3.28A.776.776 0 0 1 2.5 12Z" clip-rule="evenodd"/></symbol><symbol xmlns="http://www.w3.org/2000/svg" id="logo" fill="none" viewBox="0 0 240 103"><path fill="currentColor" fill-rule="evenodd" d="M47.72 55.559h.036l3.153-23.101L55.312.026h-27.16l-7.54 55.533-1.167 8.584h.09l-.668 4.913a42.397 42.397 0 0 1 19.815-4.913h7.95l.972-7.161h-.079l.195-1.423Zm11.16-28.898h20.907c8.933 0 15.238 7.346 14.003 16.326l-1.623 11.969c-1.219 8.991-9.516 16.327-18.438 16.327h6.673a42.895 42.895 0 0 0 24.367-7.691 43.321 43.321 0 0 0 15.761-20.224C120.662 20.161 101.615 0 77.444 0H62.5l-3.62 26.66Z" clip-rule="evenodd"/><path fill="currentColor" fill-rule="evenodd" d="M10.982 87.258A43.21 43.21 0 0 0 0 102.823h78.07a42.805 42.805 0 0 0 28.106-10.605 43.327 43.327 0 0 0 14.351-26.533l1.624-11.948c.248-1.812.378-3.639.388-5.468a43.325 43.325 0 0 1-15.762 20.223 42.89 42.89 0 0 1-24.366 7.691H39.634a42.695 42.695 0 0 0-28.652 11.106m217.102-4.769c4.173 2.482 7.457 5.554 9.612 8.989h-68.337c-9.043-.011-17.776-2.186-24.602-6.125-6.825-3.939-11.284-9.38-12.562-15.325l-1.421-6.9a16.146 16.146 0 0 1-.34-3.158c2.716 4.73 7.526 8.802 13.797 11.68 6.27 2.878 13.706 4.427 21.328 4.442h37.444c9.266.007 18.2 2.292 25.081 6.414" clip-rule="evenodd"/><g clip-path="url(#a)"><path fill="currentColor" d="M160.52 44.191c1.564 0 2.723.618 3.476 1.853.753 1.236 1.129 2.723 1.129 4.46 0 1.719-.222 4.325-.666 7.82h-5.068l-.637-6.719c-.116-1.158-.27-1.93-.464-2.317-.193-.386-.521-.58-.984-.58-1.101 0-1.719.976-1.854 2.926l-.492 6.69h-5.155l-.637-6.719c-.116-1.158-.271-1.93-.464-2.317-.193-.386-.521-.58-.984-.58-1.139 0-1.757.976-1.854 2.926l-.289 6.69h-5.329l-.608-13.727h6.545l-.116 2.75a6.04 6.04 0 0 0 .145-.318c.077-.154.251-.415.521-.782.29-.367.608-.685.956-.956.347-.27.82-.52 1.419-.752a5.561 5.561 0 0 1 1.969-.348c1.12 0 2.027.357 2.723 1.072.714.714 1.177 1.506 1.39 2.374.289-.482.54-.868.753-1.158.212-.29.531-.637.955-1.043.869-.83 2.076-1.245 3.62-1.245Zm11.308 14.423c-1.487 0-2.713-.435-3.678-1.304-.946-.869-1.419-2.095-1.419-3.678 0-1.602.54-2.76 1.621-3.475 1.082-.734 2.385-1.1 3.91-1.1 1.525 0 2.848.24 3.968.724-.251-1.603-1.265-2.404-3.041-2.404-.811 0-1.815.164-3.012.492l-.724-2.606c1.738-.715 3.504-1.072 5.3-1.072 5.174 0 7.761 2.201 7.761 6.603 0 1.506-.174 3.591-.521 6.256l-.145 1.274h-4.778l-.174-1.593c-1.313 1.255-3.002 1.883-5.068 1.883Zm2.606-3.592c.869 0 1.612-.24 2.23-.724l-.174-1.911a2.815 2.815 0 0 0-1.621-.492c-.58 0-1.062.144-1.448.434-.367.29-.551.647-.551 1.072 0 .424.145.8.435 1.13.289.327.666.491 1.129.491Zm16.236-8.543c1.023-1.525 2.288-2.288 3.794-2.288a3.85 3.85 0 0 1 1.969.521l-.695 4.75a4.437 4.437 0 0 0-2.606-.811c-.927 0-1.555.386-1.883 1.158a5.764 5.764 0 0 0-.376 1.39l-.551 7.125h-5.213l-.868-13.727h5.705l.724 1.882Zm17.816 11.845a1128.71 1128.71 0 0 1-4.866-4.72l-.202 4.72h-5.329l-.782-18.796h6.893l-.348 8.92 2.925-3.852h5.85l-4.083 5.735 4.662 7.993h-4.72Zm12.868.29c-2.182 0-4.016-.628-5.502-1.883-1.468-1.274-2.201-3.137-2.201-5.59 0-1.544.376-2.857 1.129-3.938 1.371-2.008 3.495-3.012 6.371-3.012 2.202 0 3.881.444 5.039 1.332 1.159.87 1.738 2.076 1.738 3.62 0 1.197-.483 2.172-1.448 2.925-.946.734-2.336 1.1-4.17 1.1a10.73 10.73 0 0 1-2.028-.173l-.318-.058c.096.695.396 1.217.898 1.564.521.328 1.139.492 1.853.492 1.178 0 2.182-.357 3.012-1.071l1.796 2.172a7.124 7.124 0 0 1-1.101 1.042c-.425.31-1.1.638-2.027.985-.927.328-1.941.493-3.041.493Zm2.346-9.731c0-.387-.154-.705-.463-.956-.29-.251-.695-.377-1.217-.377-.521 0-1.014.232-1.477.696a2.305 2.305 0 0 0-.666 1.65c.425.193.975.29 1.651.29.695 0 1.226-.116 1.593-.348.386-.25.579-.57.579-.955Zm13.495 4.286c-.019 1.12.376 1.68 1.187 1.68.232 0 .512-.107.84-.319l.608 2.81c-.116.096-.28.221-.492.376-.193.135-.627.318-1.303.55a6.137 6.137 0 0 1-2.057.348c-1.312 0-2.384-.444-3.214-1.333-.83-.907-1.275-2.056-1.332-3.446l-.261-5.474h-2.23l.347-3.764h1.738l-.116-2.839 6.864-1.39-.203 4.228h1.68l.347 3.765h-2.201l-.202 4.808Z"/></g><path fill="currentColor" d="M195.846 15.723a.589.589 0 0 0-.171.52l.477 2.638a.579.579 0 0 1-.242.58.59.59 0 0 1-.627.043l-2.375-1.24a.612.612 0 0 0-.269-.07h-.145a.438.438 0 0 0-.145.049l-2.376 1.244c-.117.06-.25.08-.38.06a.596.596 0 0 1-.478-.682l.478-2.639a.602.602 0 0 0-.171-.525l-1.937-1.877a.579.579 0 0 1-.144-.606.602.602 0 0 1 .476-.402l2.666-.387a.596.596 0 0 0 .472-.327l1.174-2.408a.55.55 0 0 1 .108-.144l.048-.038a.358.358 0 0 1 .086-.07l.059-.021.091-.038h.226a.602.602 0 0 1 .472.322l1.19 2.397a.595.595 0 0 0 .445.327l2.665.387a.606.606 0 0 1 .488.402.581.581 0 0 1-.155.606l-2.006 1.899Zm-21.984 15.419a.589.589 0 0 0-.171.52l.476 2.639a.578.578 0 0 1-.241.579.59.59 0 0 1-.627.043l-2.376-1.24a.604.604 0 0 0-.268-.07h-.145a.433.433 0 0 0-.145.049l-2.376 1.245a.626.626 0 0 1-.381.059.596.596 0 0 1-.477-.682l.477-2.639a.599.599 0 0 0-.171-.525l-1.936-1.877a.58.58 0 0 1-.145-.606.603.603 0 0 1 .477-.402l2.666-.387a.599.599 0 0 0 .472-.326l1.174-2.408a.57.57 0 0 1 .107-.145l.049-.038a.358.358 0 0 1 .086-.07l.058-.021.092-.038h.225a.6.6 0 0 1 .472.322l1.19 2.398a.597.597 0 0 0 .446.326l2.665.387a.608.608 0 0 1 .488.402c.07.215.01.451-.155.606l-2.006 1.899Zm42.904-.134a.589.589 0 0 0-.171.52l.477 2.639a.579.579 0 0 1-.242.58.59.59 0 0 1-.627.042l-2.375-1.239a.61.61 0 0 0-.269-.07h-.145a.438.438 0 0 0-.145.048l-2.376 1.245c-.117.06-.25.08-.38.06a.596.596 0 0 1-.478-.683l.478-2.638a.605.605 0 0 0-.171-.525l-1.937-1.877a.579.579 0 0 1-.144-.606.6.6 0 0 1 .476-.403l2.666-.386a.596.596 0 0 0 .472-.327l1.174-2.408a.55.55 0 0 1 .108-.145l.048-.037a.358.358 0 0 1 .086-.07l.059-.022.091-.037h.226a.602.602 0 0 1 .472.322l1.19 2.397a.596.596 0 0 0 .445.327l2.665.386a.606.606 0 0 1 .488.403.581.581 0 0 1-.155.606l-2.006 1.898Z"/></symbol><symbol xmlns="http://www.w3.org/2000/svg" id="logout" fill="none" viewBox="0 0 24 24"><path fill="currentColor" fill-rule="evenodd" d="M9.895 11.23a.77.77 0 0 0-.783.77c0 .42.346.77.783.77H16v4.78C16 20 13.975 22 11.472 22H6.517C4.025 22 2 20.01 2 17.56V6.45C2 3.99 4.035 2 6.528 2h4.965C13.975 2 16 3.99 16 6.44v4.79H9.895Zm9.735-2.69 2.92 2.91a.764.764 0 0 1 0 1.09l-2.92 2.91c-.15.15-.35.23-.54.23a.773.773 0 0 1-.55-1.32l1.6-1.59H16v-1.54h4.14l-1.6-1.59c-.3-.3-.3-.79 0-1.09.3-.31.79-.31 1.09-.01Z" clip-rule="evenodd"/></symbol><symbol xmlns="http://www.w3.org/2000/svg" id="message" fill="none" viewBox="0 0 24 24"><path fill="currentColor" fill-rule="evenodd" d="M16.94 3A5.057 5.057 0 0 1 22 8.05v7.9c0 2.79-2.27 5.05-5.06 5.05H7.06A5.057 5.057 0 0 1 2 15.95v-7.9A5.05 5.05 0 0 1 7.06 3h9.88Zm1.59 6.54.08-.08a.773.773 0 0 0-.01-1 .84.84 0 0 0-.53-.26.76.76 0 0 0-.56.2L13 12a1.566 1.566 0 0 1-2 0L6.5 8.4a.76.76 0 0 0-1 .07c-.27.27-.3.7-.07 1l.13.13 4.55 3.55a3.143 3.143 0 0 0 3.91 0l4.51-3.61Z" clip-rule="evenodd"/></symbol><symbol xmlns="http://www.w3.org/2000/svg" id="minus" fill="none" viewBox="0 0 24 24"><path fill="currentColor" d="M5 11.7a.7.7 0 0 1 .7-.7h12.6a.7.7 0 0 1 .7.7v.6a.7.7 0 0 1-.7.7H5.7a.7.7 0 0 1-.7-.7v-.6Z"/></symbol><symbol xmlns="http://www.w3.org/2000/svg" id="money" fill="none" viewBox="0 0 24 24"><path fill="currentColor" d="M21 4H3a1 1 0 0 0-1 1v14a1 1 0 0 0 1 1h18a1 1 0 0 0 1-1V5a1 1 0 0 0-1-1Zm-1 11a3 3 0 0 0-3 3H7a3 3 0 0 0-3-3V9a3 3 0 0 0 3-3h10a3 3 0 0 0 3 3v6Z"/><path fill="currentColor" d="M12 8c-2.206 0-4 1.794-4 4s1.794 4 4 4 4-1.794 4-4-1.794-4-4-4Zm0 6c-1.103 0-2-.897-2-2s.897-2 2-2 2 .897 2 2-.897 2-2 2Z"/></symbol><symbol xmlns="http://www.w3.org/2000/svg" id="moreCircle" fill="none" viewBox="0 0 24 24"><path fill="currentColor" fill-rule="evenodd" d="M2 12C2 6.48 6.47 2 12 2c5.52 0 10 4.48 10 10s-4.48 10-10 10C6.47 22 2 17.52 2 12Zm5.52 1.2c-.66 0-1.2-.54-1.2-1.2 0-.66.54-1.2 1.2-1.2.66 0 1.19.54 1.19 1.2 0 .66-.53 1.2-1.19 1.2ZM10.8 12c0 .66.54 1.2 1.2 1.2.66 0 1.19-.54 1.19-1.2a1.194 1.194 0 1 0-2.39 0Zm4.48 0a1.195 1.195 0 1 0 2.39 0 1.194 1.194 0 1 0-2.39 0Z" clip-rule="evenodd"/></symbol><symbol xmlns="http://www.w3.org/2000/svg" id="moreSquare" fill="none" viewBox="0 0 24 24"><path fill="currentColor" fill-rule="evenodd" d="M7.67 2h8.67C19.73 2 22 4.38 22 7.92v8.17c0 3.53-2.27 5.91-5.66 5.91H7.67C4.28 22 2 19.62 2 16.09V7.92C2 4.38 4.28 2 7.67 2Zm-.15 11.2c-.66 0-1.2-.54-1.2-1.2 0-.66.54-1.2 1.2-1.2.66 0 1.2.54 1.2 1.2 0 .66-.54 1.2-1.2 1.2ZM10.8 12c0 .66.54 1.2 1.2 1.2.66 0 1.2-.54 1.2-1.2 0-.66-.54-1.2-1.2-1.2-.66 0-1.2.54-1.2 1.2Zm4.48 0c0 .66.54 1.2 1.2 1.2.66 0 1.19-.54 1.19-1.2a1.194 1.194 0 1 0-2.39 0Z" clip-rule="evenodd"/></symbol><symbol xmlns="http://www.w3.org/2000/svg" id="notification" fill="none" viewBox="0 0 24 24"><path fill="currentColor" fill-rule="evenodd" d="M18.707 8.796c0 1.256.332 1.997 1.063 2.85.553.628.73 1.435.73 2.31 0 .874-.287 1.704-.863 2.378a4.537 4.537 0 0 1-2.9 1.413c-1.571.134-3.143.247-4.736.247-1.595 0-3.166-.068-4.737-.247a4.532 4.532 0 0 1-2.9-1.413 3.616 3.616 0 0 1-.864-2.378c0-.875.178-1.682.73-2.31.754-.854 1.064-1.594 1.064-2.85V8.37c0-1.682.42-2.781 1.283-3.858C7.861 2.942 9.919 2 11.956 2h.09c2.08 0 4.204.987 5.466 2.625.82 1.054 1.195 2.108 1.195 3.745v.426ZM9.074 20.061c0-.504.462-.734.89-.833.5-.106 3.545-.106 4.045 0 .428.099.89.33.89.833-.025.48-.306.904-.695 1.174a3.635 3.635 0 0 1-1.713.731 3.795 3.795 0 0 1-1.008 0 3.618 3.618 0 0 1-1.714-.732c-.39-.269-.67-.694-.695-1.173Z" clip-rule="evenodd"/></symbol><symbol xmlns="http://www.w3.org/2000/svg" id="paper" fill="none" viewBox="0 0 24 24"><path fill="currentColor" fill-rule="evenodd" d="M8.926 16.39h5.386c.406 0 .743-.34.743-.75s-.337-.74-.743-.74H8.926a.743.743 0 0 0-.743.74c0 .41.337.75.743.75Zm3.346-6.49H8.926a.752.752 0 0 0-.743.75c0 .41.337.74.743.74h3.346c.406 0 .743-.33.743-.74s-.337-.75-.743-.75Zm7.066-.874c.233-.003.486-.006.716-.006.248 0 .446.2.446.45v8.04c0 2.48-1.99 4.49-4.445 4.49H8.173C5.6 22 3.5 19.89 3.5 17.29V6.51C3.5 4.03 5.5 2 7.965 2h5.287c.258 0 .456.21.456.46v3.22c0 1.83 1.495 3.33 3.307 3.34.423 0 .796.003 1.123.006.254.002.48.004.679.004.14 0 .323-.002.521-.004Zm.273-1.46c-.814.003-1.773 0-2.463-.007-1.095 0-1.997-.911-1.997-2.017V2.906c0-.431.518-.645.814-.334l2.005 2.106 1.98 2.081a.477.477 0 0 1-.339.807Z" clip-rule="evenodd"/></symbol><symbol xmlns="http://www.w3.org/2000/svg" id="paperDownload" fill="none" viewBox="0 0 24 24"><path fill="currentColor" fill-rule="evenodd" d="m12.153 16.64 2.842-2.87a.75.75 0 0 0-.01-1.06.73.73 0 0 0-1.04 0l-1.574 1.6V9.49a.737.737 0 1 0-1.475 0v4.82l-1.574-1.6a.73.73 0 0 0-1.04 0 .76.76 0 0 0 0 1.06l2.832 2.87a.768.768 0 0 0 .525.22.767.767 0 0 0 .515-.22Zm7.175-7.614c.233-.003.486-.006.717-.006.257 0 .455.2.455.45v8.04c0 2.48-2 4.49-4.455 4.49H8.173C5.59 22 3.5 19.89 3.5 17.29V6.51C3.5 4.03 5.49 2 7.965 2h5.287c.248 0 .456.21.456.46v3.22c0 1.83 1.485 3.33 3.307 3.34.418 0 .793.003 1.12.006.253.002.477.004.672.004.14 0 .324-.002.521-.004Zm.277-1.46c-.813.003-1.773 0-2.463-.007-1.095 0-1.997-.91-1.997-2.017V2.906c0-.43.518-.645.813-.334l2.916 3.062 1.071 1.125a.477.477 0 0 1-.34.807Z" clip-rule="evenodd"/></symbol><symbol xmlns="http://www.w3.org/2000/svg" id="paperFail" fill="none" viewBox="0 0 24 24"><path fill="currentColor" fill-rule="evenodd" d="M14.055 15.26a.748.748 0 0 0 0-1.05l-1.208-1.22 1.208-1.22a.748.748 0 0 0 0-1.05.724.724 0 0 0-1.05 0l-1.208 1.22-1.208-1.22a.713.713 0 0 0-1.04 0 .748.748 0 0 0 0 1.05l1.208 1.22-1.207 1.22a.748.748 0 0 0 0 1.05c.138.15.326.22.514.22s.386-.07.525-.22l1.208-1.22 1.208 1.22a.73.73 0 0 0 .525.22c.188 0 .376-.07.525-.22Zm5.28-6.234c.234-.003.486-.006.71-.006.257 0 .455.2.455.45v8.04c0 2.48-1.99 4.49-4.455 4.49H8.173C5.59 22 3.5 19.89 3.5 17.29V6.51C3.5 4.03 5.5 2 7.965 2h5.287c.248 0 .456.21.456.46v3.22c0 1.83 1.495 3.33 3.307 3.34.418 0 .793.003 1.12.006.253.002.477.004.672.004.142 0 .328-.002.528-.004Zm.27-1.46c-.813.003-1.772 0-2.462-.007-1.095 0-1.997-.91-1.997-2.017V2.906c0-.43.518-.645.813-.334l2.916 3.062 1.071 1.125a.477.477 0 0 1-.34.807Z" clip-rule="evenodd"/></symbol><symbol xmlns="http://www.w3.org/2000/svg" id="paperNegative" fill="none" viewBox="0 0 24 24"><path fill="currentColor" fill-rule="evenodd" d="M8.629 12.99c0 .41.336.74.742.74h4.891a.745.745 0 0 0 0-1.49h-4.89a.745.745 0 0 0-.743.75Zm10.71-3.964c.232-.003.485-.006.716-.006.247 0 .445.2.445.45v8.04c0 2.48-1.99 4.49-4.455 4.49H8.173C5.6 22 3.5 19.89 3.5 17.29V6.51C3.5 4.03 5.5 2 7.965 2h5.287c.258 0 .456.21.456.46v3.22c0 1.83 1.495 3.33 3.307 3.34.423 0 .796.003 1.123.006.254.002.48.004.679.004.14 0 .323-.002.521-.004Zm.271-1.46c-.814.003-1.773 0-2.463-.007-1.095 0-1.997-.91-1.997-2.017V2.906c0-.43.517-.645.813-.334L17.97 4.68l1.98 2.08a.477.477 0 0 1-.339.807Z" clip-rule="evenodd"/></symbol><symbol xmlns="http://www.w3.org/2000/svg" id="paperPlus" fill="none" viewBox="0 0 24 24"><path fill="currentColor" fill-rule="evenodd" d="M12.55 13.73h1.712a.745.745 0 0 0 0-1.49H12.55v-1.73c0-.41-.326-.74-.732-.74a.743.743 0 0 0-.743.74v1.73H9.371a.745.745 0 0 0 0 1.49h1.703v1.73c0 .41.337.74.743.74.406 0 .732-.33.732-.74v-1.73Zm6.788-4.704c.233-.003.486-.006.716-.006.248 0 .446.2.446.45v8.04c0 2.48-1.99 4.49-4.455 4.49H8.173C5.6 22 3.5 19.89 3.5 17.29V6.51C3.5 4.03 5.5 2 7.965 2h5.287c.258 0 .456.21.456.46v3.22c0 1.83 1.495 3.33 3.307 3.34.423 0 .796.003 1.123.006.254.002.48.004.679.004.14 0 .323-.002.521-.004Zm.272-1.46c-.814.003-1.773 0-2.463-.007-1.095 0-1.997-.91-1.997-2.017V2.906c0-.43.517-.645.813-.334L17.97 4.68l1.98 2.08a.477.477 0 0 1-.339.807Z" clip-rule="evenodd"/></symbol><symbol xmlns="http://www.w3.org/2000/svg" id="paperUpload" fill="none" viewBox="0 0 24 24"><path fill="currentColor" fill-rule="evenodd" d="M13.945 12.89a.73.73 0 0 0 1.04 0 .739.739 0 0 0 .01-1.05l-2.841-2.88a.767.767 0 0 0-.515-.22.768.768 0 0 0-.525.22l-2.832 2.88a.748.748 0 0 0 0 1.05.73.73 0 0 0 1.04 0l1.574-1.6v4.83a.737.737 0 1 0 1.475 0v-4.83l1.574 1.6Zm5.383-3.864c.233-.003.486-.006.717-.006.247 0 .455.2.455.45v8.04c0 2.48-2 4.49-4.455 4.49H8.173C5.59 22 3.5 19.89 3.5 17.29V6.51C3.5 4.03 5.49 2 7.965 2h5.287c.248 0 .456.21.456.46v3.22c0 1.83 1.485 3.33 3.307 3.34.416 0 .786.003 1.11.006.255.002.482.004.682.004.14 0 .324-.002.521-.004Zm.277-1.46c-.814.003-1.773 0-2.463-.007-1.095 0-1.997-.911-1.997-2.017V2.906c0-.431.517-.645.813-.334l2.916 3.061 1.071 1.126a.477.477 0 0 1-.34.807Z" clip-rule="evenodd"/></symbol><symbol xmlns="http://www.w3.org/2000/svg" id="password" fill="none" viewBox="0 0 24 24"><path fill="currentColor" fill-rule="evenodd" d="M17.01 14.601a.75.75 0 0 0 .75-.75V12a.75.75 0 0 0-.75-.75h-5.69A2.596 2.596 0 0 0 8.84 9.4 2.604 2.604 0 0 0 6.239 12a2.604 2.604 0 0 0 2.6 2.602 2.596 2.596 0 0 0 2.479-1.852h2.112v1.102a.75.75 0 0 0 1.5 0V12.75h1.33v1.102c0 .414.336.75.75.75ZM7.667 2h8.669C19.723 2 22 4.377 22 7.916v8.167C22 19.623 19.723 22 16.334 22H7.666C4.276 22 2 19.622 2 16.083V7.916C2 4.377 4.277 2 7.666 2Zm.072 10c0-.608.495-1.102 1.102-1.102.607 0 1.102.494 1.102 1.102a1.103 1.103 0 0 1-2.204 0Z" clip-rule="evenodd"/></symbol><symbol xmlns="http://www.w3.org/2000/svg" id="play" fill="none" viewBox="0 0 24 24"><path fill="currentColor" fill-rule="evenodd" d="M2 12.006C2 6.486 6.488 2 12 2s10 4.486 10 10.006C22 17.514 17.512 22 12 22S2 17.514 2 12.006Zm13.668 1.012c.106-.106.241-.27.27-.309.155-.202.232-.453.232-.703a1.22 1.22 0 0 0-.251-.754 3.722 3.722 0 0 1-.074-.08c-.064-.069-.157-.17-.245-.257-.791-.85-2.857-2.239-3.938-2.663-.164-.067-.579-.212-.801-.222-.212 0-.415.048-.608.145a1.251 1.251 0 0 0-.54.598c-.068.173-.174.694-.174.704-.107.57-.164 1.495-.164 2.518 0 .976.057 1.862.144 2.441.003.002.011.044.024.108.04.196.12.603.208.77.212.405.627.656 1.071.656h.039c.29-.01.898-.26.898-.27 1.023-.425 3.04-1.746 3.851-2.624l.058-.058Z" clip-rule="evenodd"/></symbol><symbol xmlns="http://www.w3.org/2000/svg" id="plus" fill="none" viewBox="0 0 24 24"><path fill="currentColor" fill-rule="evenodd" d="M7.33 2h9.33C20.06 2 22 3.92 22 7.33v9.34c0 3.39-1.93 5.33-5.33 5.33H7.33C3.92 22 2 20.06 2 16.67V7.33C2 3.92 3.92 2 7.33 2Zm5.49 10.83h2.84c.46-.01.83-.38.83-.84 0-.46-.37-.83-.83-.83h-2.84V8.34c0-.46-.37-.83-.83-.83-.46 0-.83.37-.83.83v2.82H8.33c-.22 0-.43.09-.59.24a.866.866 0 0 0-.24.59c0 .46.37.83.83.84h2.83v2.83c0 .46.37.83.83.83.46 0 .83-.37.83-.83v-2.83Z" clip-rule="evenodd"/></symbol><symbol xmlns="http://www.w3.org/2000/svg" id="plus2" fill="none" viewBox="0 0 24 24"><path fill="currentColor" d="M19 11.7a.7.7 0 0 0-.7-.7h-4.6a.7.7 0 0 1-.7-.7V5.7a.7.7 0 0 0-.7-.7h-.6a.7.7 0 0 0-.7.7v4.6a.7.7 0 0 1-.7.7H5.7a.7.7 0 0 0-.7.7v.6a.7.7 0 0 0 .7.7h4.6a.7.7 0 0 1 .7.7v4.6a.7.7 0 0 0 .7.7h.6a.7.7 0 0 0 .7-.7v-4.6a.7.7 0 0 1 .7-.7h4.6a.7.7 0 0 0 .7-.7v-.6Z"/></symbol><symbol xmlns="http://www.w3.org/2000/svg" id="profile" fill="none" viewBox="0 0 24 24"><path fill="currentColor" fill-rule="evenodd" d="M17.294 7.291A5.274 5.274 0 0 1 12 12.583a5.275 5.275 0 0 1-5.294-5.292A5.274 5.274 0 0 1 12 2a5.273 5.273 0 0 1 5.294 5.291ZM12 22c-4.338 0-8-.705-8-3.425 0-2.721 3.685-3.401 8-3.401 4.339 0 8 .705 8 3.425C20 21.32 16.315 22 12 22Z" clip-rule="evenodd"/></symbol><symbol xmlns="http://www.w3.org/2000/svg" id="scan" fill="none" viewBox="0 0 24 24"><path fill="currentColor" fill-rule="evenodd" d="M8.428 3c.42 0 .76.334.76.747 0 .412-.34.746-.76.746l-1.63.001c-1.351.002-2.451 1.082-2.451 2.409v1.859a.756.756 0 0 1-.762.747.755.755 0 0 1-.761-.747v-1.86c0-2.149 1.783-3.9 3.974-3.901L8.427 3ZM15.6 3h1.593c2.197 0 3.983 1.752 3.983 3.906v1.856c0 .412-.34.748-.761.748a.755.755 0 0 1-.761-.748V6.906c0-1.33-1.104-2.413-2.461-2.413H15.6a.753.753 0 0 1-.761-.745c0-.413.34-.748.76-.748Zm-.839 3.743H9.238c-1.263.012-2.28 1.025-2.268 2.266v1.245a.278.278 0 0 0 .27.269h9.52a.28.28 0 0 0 .272-.269V9.01a2.266 2.266 0 0 0-.66-1.603 2.272 2.272 0 0 0-1.61-.663Zm-13 5.298h20.477c.42 0 .761.335.761.748a.753.753 0 0 1-.761.745h-1.062v3.56c0 2.155-1.787 3.906-3.983 3.906H15.6a.755.755 0 0 1-.762-.747c0-.412.341-.747.762-.747h1.593c1.357 0 2.461-1.081 2.461-2.413v-3.56h-2.623v.992c.01 1.24-1.005 2.254-2.27 2.266H9.238c-1.264-.012-2.279-1.025-2.269-2.266v-.991H4.346v3.563c0 1.327 1.101 2.407 2.454 2.409h1.628c.42 0 .761.335.761.747a.755.755 0 0 1-.762.747l-1.629-.001c-2.191-.002-3.975-1.752-3.975-3.902v-3.563H1.762A.754.754 0 0 1 1 12.789c0-.413.342-.748.762-.748Z" clip-rule="evenodd"/></symbol><symbol xmlns="http://www.w3.org/2000/svg" id="search" fill="none" viewBox="0 0 24 24"><path fill="currentColor" fill-rule="evenodd" d="M2 10.67C2 5.882 5.84 2 10.578 2c2.275 0 4.456.913 6.065 2.54a8.717 8.717 0 0 1 2.512 6.13c0 4.788-3.84 8.67-8.577 8.67C5.84 19.34 2 15.458 2 10.67Zm17.013 6.984 2.555 2.062h.044c.517.523.517 1.37 0 1.892a1.314 1.314 0 0 1-1.871 0l-2.12-2.43a1.082 1.082 0 0 1 0-1.524.986.986 0 0 1 1.392 0Z" clip-rule="evenodd"/></symbol><symbol xmlns="http://www.w3.org/2000/svg" id="send" fill="none" viewBox="0 0 24 24"><path fill="currentColor" d="M21.435 2.582a1.933 1.933 0 0 0-1.93-.503L3.408 6.759a1.92 1.92 0 0 0-1.384 1.522c-.142.75.355 1.704 1.003 2.102l5.033 3.094a1.304 1.304 0 0 0 1.61-.194l5.763-5.799a.734.734 0 0 1 1.06 0c.29.292.29.765 0 1.067l-5.773 5.8c-.428.43-.508 1.1-.193 1.62l3.075 5.083c.36.604.98.946 1.66.946.08 0 .17 0 .251-.01.78-.1 1.4-.634 1.63-1.39l4.773-16.075c.21-.685.02-1.43-.48-1.943"/></symbol><symbol xmlns="http://www.w3.org/2000/svg" id="setting" fill="none" viewBox="0 0 24 24"><path fill="currentColor" fill-rule="evenodd" d="M20.402 13.58c.358.19.634.49.828.79.378.62.348 1.38-.02 2.05l-.716 1.2a2.13 2.13 0 0 1-1.808 1.04c-.358 0-.757-.1-1.084-.3-.265-.17-.572-.23-.9-.23-1.01 0-1.86.83-1.89 1.82 0 1.15-.94 2.05-2.115 2.05h-1.39c-1.186 0-2.126-.9-2.126-2.05-.02-.99-.868-1.82-1.88-1.82-.337 0-.644.06-.9.23-.327.2-.735.3-1.083.3-.736 0-1.44-.4-1.819-1.04l-.705-1.2c-.378-.65-.399-1.43-.02-2.05.163-.3.47-.6.817-.79.286-.14.47-.37.644-.64.511-.86.204-1.99-.664-2.5a2.044 2.044 0 0 1-.757-2.83L3.5 6.43a2.124 2.124 0 0 1 2.882-.76c.89.48 2.044.16 2.565-.69.164-.28.256-.58.235-.88-.02-.39.092-.76.286-1.06A2.195 2.195 0 0 1 11.277 2h1.44c.756 0 1.441.42 1.82 1.04.183.3.306.67.275 1.06-.02.3.072.6.235.88.521.85 1.676 1.17 2.576.69a2.112 2.112 0 0 1 2.871.76l.685 1.18c.593.99.266 2.26-.756 2.83-.869.51-1.175 1.64-.654 2.5.163.27.347.5.633.64ZM9.11 12.01c0 1.57 1.298 2.82 2.902 2.82s2.872-1.25 2.872-2.82c0-1.57-1.268-2.83-2.872-2.83-1.604 0-2.902 1.26-2.902 2.83Z" clip-rule="evenodd"/></symbol><symbol xmlns="http://www.w3.org/2000/svg" id="shieldDone" fill="none" viewBox="0 0 24 24"><path fill="currentColor" fill-rule="evenodd" d="M11.728 21.914a.765.765 0 0 0 .717-.004l3.568-1.907c1.012-.54 1.804-1.143 2.422-1.845a8.245 8.245 0 0 0 2.065-5.495l-.043-6.641a1.809 1.809 0 0 0-1.249-1.695L12.571 2.1a1.889 1.889 0 0 0-1.23.006L4.728 4.413A1.812 1.812 0 0 0 3.5 6.124l.042 6.636a8.248 8.248 0 0 0 2.139 5.473c.624.693 1.423 1.287 2.446 1.817l3.601 1.864Zm-.944-7.805a.759.759 0 0 0 .535.212.76.76 0 0 0 .533-.219l3.899-3.844a.722.722 0 0 0-.006-1.04.77.77 0 0 0-1.068.007l-3.369 3.32-1.38-1.326a.77.77 0 0 0-1.067.007.721.721 0 0 0 .007 1.04l1.916 1.843Z" clip-rule="evenodd"/></symbol><symbol xmlns="http://www.w3.org/2000/svg" id="shieldFail" fill="none" viewBox="0 0 24 24"><path fill="currentColor" fill-rule="evenodd" d="M19.201 4.329a1.8 1.8 0 0 1 1.249 1.697l.05 6.638a8.245 8.245 0 0 1-2.073 5.492c-.614.706-1.41 1.304-2.416 1.844l-3.573 1.912a.749.749 0 0 1-.352.088.789.789 0 0 1-.363-.088L8.12 20.049c-1.016-.53-1.812-1.118-2.436-1.814a8.224 8.224 0 0 1-2.143-5.472l-.04-6.64c-.01-.765.493-1.45 1.227-1.706l6.613-2.313a1.87 1.87 0 0 1 1.228 0L19.2 4.329Zm-4.78 9.758a.726.726 0 0 0 0-1.04l-1.359-1.325 1.359-1.322a.727.727 0 0 0 0-1.04.774.774 0 0 0-1.067 0l-1.359 1.324-1.359-1.325a.774.774 0 0 0-1.067 0 .727.727 0 0 0 0 1.04l1.36 1.323-1.36 1.325a.726.726 0 0 0 0 1.04.756.756 0 0 0 .534.214.723.723 0 0 0 .533-.214l1.36-1.324 1.358 1.324c.15.147.342.214.533.214a.739.739 0 0 0 .534-.214Z" clip-rule="evenodd"/></symbol><symbol xmlns="http://www.w3.org/2000/svg" id="shippingCargo" fill="none" viewBox="0 0 24 24"><path fill="currentColor" d="M6 20a2.893 2.893 0 0 1-2.125-.875A2.893 2.893 0 0 1 3 17H1V6c0-.55.196-1.02.588-1.412A1.923 1.923 0 0 1 3 4h14v4h3l3 4v5h-2c0 .833-.292 1.542-.875 2.125A2.893 2.893 0 0 1 18 20a2.893 2.893 0 0 1-2.125-.875A2.893 2.893 0 0 1 15 17H9c0 .833-.292 1.542-.875 2.125A2.893 2.893 0 0 1 6 20Zm0-2a.968.968 0 0 0 .713-.288A.967.967 0 0 0 7 17a.967.967 0 0 0-.287-.712A.968.968 0 0 0 6 16a.968.968 0 0 0-.713.288A.967.967 0 0 0 5 17c0 .283.096.52.287.712.192.192.43.288.713.288Zm12 0c.283 0 .52-.096.712-.288A.965.965 0 0 0 19 17a.965.965 0 0 0-.288-.712A.965.965 0 0 0 18 16a.965.965 0 0 0-.712.288A.965.965 0 0 0 17 17c0 .283.096.52.288.712A.965.965 0 0 0 18 18Zm-1-5h4.25L19 10h-2v3Z"/></symbol><symbol xmlns="http://www.w3.org/2000/svg" id="shippingEconomy" fill="none" viewBox="0 0 24 24"><path fill="currentColor" d="M13.409 2.275a3.75 3.75 0 0 0-2.818 0l-2.19.888 9.592 3.73 3.374-1.303a1.747 1.747 0 0 0-.46-.275l-7.498-3.04ZM22 6.953l-9.25 3.574v2.3a6.481 6.481 0 0 1 4.75-2.065c1.747 0 3.332.689 4.5 1.81v-5.62Zm-10.75 3.574v4.945a6.503 6.503 0 0 0-.25 1.79c0 .622.087 1.223.25 1.79v2.398a3.75 3.75 0 0 1-.659-.2l-7.498-3.04A1.75 1.75 0 0 1 2 16.59V6.954l9.25 3.574v-.001ZM2.633 5.59 12 9.209l3.917-1.514-9.543-3.71-3.281 1.33c-.17.069-.324.162-.46.275ZM17.5 22.762a5.5 5.5 0 1 0 0-11 5.5 5.5 0 0 0 0 11Zm2.646-7.854a.5.5 0 0 1 .708.707l-4 4a.5.5 0 0 1-.708 0l-2-2a.5.5 0 0 1 .708-.707l1.646 1.647 3.646-3.647Z"/></symbol><symbol xmlns="http://www.w3.org/2000/svg" id="shippingExpress" fill="none" viewBox="0 0 24 24"><path fill="currentColor" fill-rule="evenodd" d="M22.171 15.257h.558c.306 0 .557.25.557.557v1.115a.56.56 0 0 1-.557.557h-1.672a3.344 3.344 0 0 1-6.686 0H9.914a3.344 3.344 0 0 1-6.685 0v-4.457H8.52a.28.28 0 0 0 .279-.279v-.557a.28.28 0 0 0-.279-.279H1.28a.28.28 0 0 1-.28-.278v-.557a.28.28 0 0 1 .279-.279h8.357a.28.28 0 0 0 .278-.279v-.557a.28.28 0 0 0-.278-.278H2.393a.28.28 0 0 1-.279-.279V8.85a.28.28 0 0 1 .279-.279h8.357a.28.28 0 0 0 .279-.278v-.557a.28.28 0 0 0-.279-.279H1.279A.28.28 0 0 1 1 7.18v-.56a.28.28 0 0 1 .279-.278h1.95V4.67C3.229 3.75 3.977 3 4.9 3h8.914c.923 0 1.672.749 1.672 1.671v1.672h1.535c.443 0 .867.177 1.18.49l3.48 3.48c.313.313.49.738.49 1.18v3.764ZM4.9 17.486a1.672 1.672 0 1 0 3.343-.001 1.672 1.672 0 0 0-3.343 0Zm11.142 0a1.672 1.672 0 1 0 3.344-.001 1.672 1.672 0 0 0-3.344 0Zm-.557-5.572H20.5v-.421l-3.48-3.479h-1.535v3.9Z" clip-rule="evenodd"/></symbol><symbol xmlns="http://www.w3.org/2000/svg" id="shippingRegular" fill="none" viewBox="0 0 24 24"><path fill="currentColor" d="M13.409 2.275a3.75 3.75 0 0 0-2.818 0l-2.19.888 9.592 3.73 3.374-1.303a1.747 1.747 0 0 0-.46-.275l-7.498-3.04ZM22 6.953l-9.25 3.574V21.45a3.62 3.62 0 0 0 .659-.2l7.498-3.04A1.75 1.75 0 0 0 22 16.59V6.953ZM11.25 21.45V10.527L2 6.953v9.637a1.75 1.75 0 0 0 1.093 1.62l7.498 3.04c.215.088.435.154.659.2ZM2.633 5.59 12 9.209l3.917-1.514-9.543-3.71-3.281 1.33c-.17.069-.324.162-.46.275Z"/></symbol><symbol xmlns="http://www.w3.org/2000/svg" id="show" fill="none" viewBox="0 0 24 24"><path fill="currentColor" fill-rule="evenodd" d="M8.098 12c0 2.133 1.746 3.87 3.902 3.87 2.146 0 3.893-1.737 3.893-3.87A3.888 3.888 0 0 0 12 8.121c-2.156 0-3.902 1.736-3.902 3.879Zm9.639-5.954c1.707 1.319 3.16 3.249 4.205 5.663a.729.729 0 0 1 0 .572C19.854 17.111 16.137 20 12 20h-.01c-4.127 0-7.844-2.89-9.931-7.719a.728.728 0 0 1 0-.572C4.146 6.88 7.863 4 11.99 4H12c2.068 0 4.03.718 5.737 2.046ZM12 14.412a2.428 2.428 0 0 0 2.43-2.414A2.43 2.43 0 0 0 12 9.574c-.117 0-.234.01-.341.029a1.997 1.997 0 0 1-2 1.92h-.05c-.028.155-.048.31-.048.475 0 1.328 1.093 2.414 2.44 2.414Z" clip-rule="evenodd"/></symbol><symbol xmlns="http://www.w3.org/2000/svg" id="star" fill="none" viewBox="0 0 24 24"><path fill="currentColor" d="M17.918 14.32a1.1 1.1 0 0 0-.319.97l.89 4.92a1.08 1.08 0 0 1-.45 1.08 1.1 1.1 0 0 1-1.17.08l-4.43-2.31a1.13 1.13 0 0 0-.5-.13h-.27a.812.812 0 0 0-.27.09l-4.43 2.32c-.22.11-.468.15-.71.11a1.112 1.112 0 0 1-.89-1.27l.89-4.92a1.119 1.119 0 0 0-.32-.98l-3.61-3.5a1.08 1.08 0 0 1-.27-1.13c.134-.396.476-.685.89-.75l4.97-.72c.377-.04.71-.27.88-.61l2.19-4.49a.997.997 0 0 1 .2-.27l.09-.07a.671.671 0 0 1 .16-.13l.11-.04.17-.07h.42c.376.04.707.264.88.6l2.22 4.47c.16.327.47.554.83.61l4.97.72c.42.06.77.35.91.75.13.401.017.841-.29 1.13l-3.74 3.54Z"/></symbol><symbol xmlns="http://www.w3.org/2000/svg" id="swap" fill="none" viewBox="0 0 24 24"><path fill="currentColor" fill-rule="evenodd" d="M7.546 3.278c.166.12.434.395.434.395 1.04.976 2.608 3.4 3.111 4.631.01 0 .31.732.32 1.08v.046c0 .534-.298 1.033-.777 1.288-.198.105-.68.203-.912.25-.076.016-.126.026-.129.029-.686.105-1.738.173-2.893.173-1.212 0-2.31-.068-2.985-.197-.012 0-.629-.127-.835-.209a1.49 1.49 0 0 1-.71-.65 1.627 1.627 0 0 1-.17-.73c.01-.267.183-.766.262-.963.503-1.3 2.15-3.784 3.157-4.736.104-.106.223-.217.306-.294.044-.042.078-.073.094-.09.251-.196.56-.301.893-.301.296 0 .593.093.834.278Zm10.683 6.884a.94.94 0 0 1-.934.948.94.94 0 0 1-.934-.948l-.258-4.58a1.2 1.2 0 0 1 1.192-1.207c.657 0 1.19.54 1.19 1.208l-.256 4.579Zm2.89 3.074c.298.128.55.36.71.65.115.23.171.476.171.731-.01.266-.183.766-.263.963-.502 1.3-2.15 3.783-3.155 4.736-.103.103-.22.212-.303.29l-.098.092c-.253.197-.56.302-.892.302a1.36 1.36 0 0 1-.835-.28c-.166-.118-.434-.393-.434-.393-1.042-.974-2.608-3.401-3.111-4.632-.012 0-.31-.73-.32-1.078v-.046c0-.535.296-1.034.777-1.29.198-.103.678-.201.91-.25.078-.015.128-.025.13-.028.687-.105 1.739-.174 2.894-.174 1.212 0 2.31.07 2.985.197.011 0 .629.128.835.21ZM6.707 12.89a.94.94 0 0 0-.934.948l-.258 4.58a1.2 1.2 0 0 0 1.192 1.207c.657 0 1.19-.54 1.19-1.208l-.257-4.579a.94.94 0 0 0-.933-.947Z" clip-rule="evenodd"/></symbol><symbol xmlns="http://www.w3.org/2000/svg" id="ticket" fill="none" viewBox="0 0 24 24"><path fill="currentColor" fill-rule="evenodd" d="M21.787 10.539a.735.735 0 0 1-.512.207c-.716 0-1.296.563-1.296 1.25 0 .69.573 1.25 1.282 1.258.4.004.739.275.739.663v2.41C22 18.354 20.308 20 18.219 20h-3.153a.582.582 0 0 1-.59-.573v-2.03a.708.708 0 0 0-.726-.704.714.714 0 0 0-.725.704v2.03a.581.581 0 0 1-.589.573H5.781C3.702 20 2 18.356 2 16.326v-2.41c0-.387.34-.658.739-.662.71-.007 1.282-.568 1.282-1.259 0-.667-.56-1.174-1.296-1.174a.736.736 0 0 1-.512-.207.694.694 0 0 1-.213-.498V7.683C2 5.657 3.706 4 5.791 4h6.645c.325 0 .59.256.59.573v2.405a.72.72 0 0 0 .725.705c.406 0 .725-.32.725-.705V4.573c0-.317.264-.573.59-.573h3.153C20.307 4 22 5.644 22 7.674v2.367a.694.694 0 0 1-.213.498Zm-8.036 4.331c.406 0 .725-.32.725-.704v-3.758a.714.714 0 0 0-.726-.705.72.72 0 0 0-.725.705v3.758a.72.72 0 0 0 .726.704Z" clip-rule="evenodd"/></symbol><symbol xmlns="http://www.w3.org/2000/svg" id="ticketStar" fill="none" viewBox="0 0 24 24"><path fill="currentColor" fill-rule="evenodd" d="M19.761 12.001c0 .814.668 1.475 1.489 1.475.414 0 .75.333.75.743v2.677C22 19.159 20.142 21 17.858 21H6.143C3.859 21 2 19.159 2 16.896v-2.677c0-.41.336-.743.75-.743.822 0 1.49-.662 1.49-1.475 0-.793-.641-1.39-1.49-1.39a.752.752 0 0 1-.53-.217.74.74 0 0 1-.22-.525l.002-2.764C2.002 4.842 3.86 3 6.144 3h11.712c2.284 0 4.143 1.842 4.143 4.105L22 9.782a.741.741 0 0 1-.219.526.753.753 0 0 1-.531.218c-.821 0-1.489.662-1.489 1.475Zm-5.509.647 1.179-1.137a.73.73 0 0 0-.409-1.25l-1.629-.236-.729-1.462a.737.737 0 0 0-.662-.41H12a.74.74 0 0 0-.663.409l-.729 1.463-1.626.235a.735.735 0 0 0-.6.498.724.724 0 0 0 .187.753l1.179 1.137-.278 1.608a.727.727 0 0 0 .295.719.742.742 0 0 0 .777.054L12 14.27l1.455.757a.733.733 0 0 0 .78-.053.723.723 0 0 0 .296-.718l-.279-1.608Z" clip-rule="evenodd"/></symbol><symbol xmlns="http://www.w3.org/2000/svg" id="tickSquare" fill="none" viewBox="0 0 24 24"><path fill="currentColor" fill-rule="evenodd" d="M7.67 2h8.67C19.73 2 22 4.38 22 7.92v8.17c0 3.53-2.27 5.91-5.66 5.91H7.67C4.28 22 2 19.62 2 16.09V7.92C2 4.38 4.28 2 7.67 2Zm3.76 12.99 4.75-4.75c.34-.34.34-.89 0-1.24a.881.881 0 0 0-1.24 0l-4.13 4.13-1.75-1.75a.881.881 0 0 0-1.24 0c-.34.34-.34.89 0 1.24l2.38 2.37c.17.17.39.25.61.25.23 0 .45-.08.62-.25Z" clip-rule="evenodd"/></symbol><symbol xmlns="http://www.w3.org/2000/svg" id="timeCircle" fill="none" viewBox="0 0 24 24"><path fill="currentColor" fill-rule="evenodd" d="M12 22C6.48 22 2 17.53 2 12 2 6.48 6.48 2 12 2c5.53 0 10 4.48 10 10 0 5.53-4.47 10-10 10Zm3.19-6.29a.742.742 0 0 0 1.03-.26c.21-.35.1-.81-.26-1.03L12.4 12.3V7.68a.749.749 0 1 0-1.5 0v5.05c0 .26.14.5.37.64l3.92 2.34Z" clip-rule="evenodd"/></symbol><symbol xmlns="http://www.w3.org/2000/svg" id="timeSquare" fill="none" viewBox="0 0 24 24"><path fill="currentColor" fill-rule="evenodd" d="M7.67 2h8.67C19.73 2 22 4.38 22 7.92v8.17c0 3.53-2.27 5.91-5.66 5.91H7.67C4.28 22 2 19.62 2 16.09V7.92C2 4.38 4.28 2 7.67 2Zm7.91 13.81c.25 0 .5-.13.64-.37a.744.744 0 0 0-.26-1.03l-3.56-2.12V7.67a.75.75 0 1 0-1.5 0v5.05c0 .26.14.51.37.64l3.92 2.34c.12.08.26.11.39.11Z" clip-rule="evenodd"/></symbol><symbol xmlns="http://www.w3.org/2000/svg" xml:space="preserve" id="train-toy" fill="currentColor" viewBox="0 0 511.997 511.997"><path d="m508.4 340.149-85.3-128c-5.2-7.8-14.9-11.3-23.9-8.6-9 2.7-15.1 11-15.1 20.4v42.7h-21.3v-42.7c0-11.8-9.5-21.3-21.3-21.3H320v-85.3c0-11.8-9.5-21.3-21.3-21.3s-21.3 9.6-21.3 21.3v85.3h-42.7v-128H256c11.8 0 21.3-9.6 21.3-21.3s-9.5-21.3-21.3-21.3H21.3c-11.8-.1-21.3 9.4-21.3 21.2s9.5 21.3 21.3 21.3h21.3v128c-11.8 0-21.3 9.6-21.3 21.3v144.6c-13 11.9-21.3 28.7-21.3 47.5 0 35.3 28.7 64 64 64 27.8 0 51.2-17.9 60.1-42.7h7.9c8.8 24.8 32.3 42.7 60.1 42.7 27.8 0 51.2-17.9 60.1-42.7h7.9c8.8 24.8 32.3 42.7 60.1 42.7 35.3 0 64-28.7 64-64 0-18.8-8.3-35.6-21.3-47.4v-59.3H384v42.7c0 11.8 9.5 21.3 21.3 21.3h85.3c7.9 0 15.1-4.3 18.8-11.3 3.8-6.9 3.4-15.3-1-21.8zM64 437.249c-11.8 0-21.3-9.6-21.3-21.3 0-11.8 9.6-21.3 21.3-21.3s21.3 9.6 21.3 21.3-9.5 21.3-21.3 21.3zm21.3-362.6H192v128H85.3v-128zm106.7 362.6c-11.8 0-21.3-9.6-21.3-21.3 0-11.8 9.6-21.3 21.3-21.3s21.3 9.6 21.3 21.3-9.5 21.3-21.3 21.3zm64-106.6H128c-11.8 0-21.3-9.6-21.3-21.3 0-11.7 9.5-21.3 21.3-21.3h128c11.8 0 21.3 9.6 21.3 21.3 0 11.7-9.5 21.3-21.3 21.3zm64 106.6c-11.8 0-21.3-9.6-21.3-21.3 0-11.8 9.6-21.3 21.3-21.3 11.7 0 21.3 9.6 21.3 21.3s-9.5 21.3-21.3 21.3z"/></symbol><symbol xmlns="http://www.w3.org/2000/svg" id="unlock" fill="none" viewBox="0 0 24 24"><path fill="currentColor" fill-rule="evenodd" d="M8.226 8.711h8.005c2.358 0 4.269 1.87 4.269 4.176v4.938C20.5 20.13 18.589 22 16.231 22H7.768C5.41 22 3.5 20.13 3.5 17.825v-4.938c0-1.897 1.3-3.48 3.07-3.99l-.11.014V7.387C6.48 4.417 8.95 2 11.979 2c2.367 0 4.46 1.462 5.232 3.628a.844.844 0 0 1-.04.666.846.846 0 0 1-.509.438.906.906 0 0 1-1.138-.537c-.518-1.472-1.94-2.456-3.525-2.456-2.074 0-3.75 1.631-3.76 3.628V8.71l-.013.002Zm3.769 8.617a.88.88 0 0 0 .894-.874v-2.207a.878.878 0 0 0-.894-.864.875.875 0 0 0-.884.864v2.207c0 .487.396.874.884.874Z" clip-rule="evenodd"/></symbol><symbol xmlns="http://www.w3.org/2000/svg" id="upload" fill="none" viewBox="0 0 24 24"><path fill="currentColor" fill-rule="evenodd" d="M8.466 5.236A.764.764 0 0 0 8.55 6.24c.3.3.79.3 1.09 0l1.59-1.6v4.14h1.54V4.64l1.59 1.6.086.074a.773.773 0 0 0 1.234-.624c0-.19-.08-.39-.23-.54l-2.91-2.92-.09-.082a.764.764 0 0 0-1 .082L8.54 5.15l-.074.086ZM6.23 8.786C3.878 8.895 2 10.875 2 13.287v4.965l.005.212c.11 2.395 2.055 4.315 4.445 4.315h11.11l.209-.005c2.353-.11 4.231-2.09 4.231-4.512v-4.955l-.005-.213c-.11-2.404-2.065-4.315-4.445-4.315h-4.78v6.105l-.007.107a.775.775 0 0 1-.763.676.77.77 0 0 1-.77-.783V8.78H6.44l-.209.005Z" clip-rule="evenodd"/></symbol><symbol xmlns="http://www.w3.org/2000/svg" id="video" fill="none" viewBox="0 0 24 24"><path fill="currentColor" fill-rule="evenodd" d="M6.113 4.5h5.792c2.422 0 4.113 1.669 4.113 4.06v6.88c0 2.391-1.69 4.06-4.113 4.06H6.113C3.691 19.5 2 17.831 2 15.44V8.56C2 6.17 3.691 4.5 6.113 4.5Zm13.845 2.379c.439-.223.954-.2 1.373.064.419.263.669.72.669 1.22v7.675c0 .5-.25.957-.669 1.22a1.385 1.385 0 0 1-1.374.063l-1.481-.748a1.623 1.623 0 0 1-.888-1.457V9.083c0-.621.34-1.18.888-1.456l1.482-.748Z" clip-rule="evenodd"/></symbol><symbol xmlns="http://www.w3.org/2000/svg" id="voice" fill="none" viewBox="0 0 24 24"><path fill="currentColor" fill-rule="evenodd" d="M12.175 15.217h-.35c-2.403 0-4.351-1.924-4.351-4.297V6.297C7.474 3.924 9.422 2 11.825 2h.35c2.403 0 4.352 1.924 4.352 4.297v4.623c0 2.373-1.949 4.297-4.352 4.297Zm6.388-4.434c0-.53.434-.957.968-.957.535 0 .969.428.969.957 0 4.304-3.3 7.857-7.53 8.335v1.925A.963.963 0 0 1 12 22a.962.962 0 0 1-.968-.957v-1.925C6.799 18.64 3.5 15.087 3.5 10.783c0-.53.434-.957.969-.957.534 0 .968.428.968.957 0 3.573 2.944 6.48 6.564 6.48 3.618 0 6.562-2.907 6.562-6.48Z" clip-rule="evenodd"/></symbol><symbol xmlns="http://www.w3.org/2000/svg" id="voice2" fill="none" viewBox="0 0 24 24"><path fill="currentColor" fill-rule="evenodd" d="M12.175 15.216h-.35c-2.403 0-4.351-1.923-4.351-4.296V6.297C7.474 3.924 9.422 2 11.825 2h.35a4.345 4.345 0 0 1 4.19 3.131.388.388 0 0 1-.376.494h-1.133a.616.616 0 0 0-.62.61v.002c0 .338.278.612.62.612H15.9c.346 0 .627.277.627.618 0 .342-.28.618-.627.618h-1.044a.617.617 0 0 0-.62.613c0 .338.278.612.62.612H15.9c.346 0 .627.277.627.62 0 .34-.28.616-.627.616h-1.044a.617.617 0 0 0-.62.614c0 .337.278.61.62.61h1.077c.266 0 .456.257.372.506a4.347 4.347 0 0 1-4.13 2.94Zm6.388-4.433c0-.53.434-.957.968-.957.535 0 .969.428.969.957 0 4.304-3.3 7.857-7.53 8.335v1.925A.963.963 0 0 1 12 22a.962.962 0 0 1-.968-.957v-1.925C6.799 18.64 3.5 15.087 3.5 10.783c0-.53.434-.957.969-.957.534 0 .968.428.968.957 0 3.573 2.944 6.48 6.564 6.48 3.618 0 6.562-2.907 6.562-6.48Z" clip-rule="evenodd"/></symbol><symbol xmlns="http://www.w3.org/2000/svg" id="volumeDown" fill="none" viewBox="0 0 24 24"><path fill="currentColor" fill-rule="evenodd" d="M15.14 4.956c.129.504.181 1.008.232 1.495l.047.442c.18 1.476.18 8.728 0 10.215l-.047.459-.001.008c-.045.46-.092.936-.224 1.444-.352 1.202-1.29 1.981-2.354 1.981l-.105-.001c-.588 0-1.227-.36-1.59-.675l-3.53-2.941H5.755c-1.4 0-2.424-1.012-2.61-2.579-.214-1.566-.172-4.253 0-5.677.203-1.483 1.276-2.51 2.61-2.51h1.813l3.464-2.898c.417-.363 1.154-.721 1.737-.719 1.045 0 2.019.752 2.37 1.956Zm3.008 1.302a.91.91 0 0 1 1.278.237C20.44 7.988 21 9.943 21 12s-.56 4.012-1.574 5.505a.915.915 0 0 1-.754.404.902.902 0 0 1-.524-.167.955.955 0 0 1-.23-1.308c.803-1.183 1.245-2.758 1.245-4.434 0-1.677-.442-3.25-1.245-4.434a.955.955 0 0 1 .23-1.308Z" clip-rule="evenodd"/></symbol><symbol xmlns="http://www.w3.org/2000/svg" id="volumeOff" fill="none" viewBox="0 0 24 24"><path fill="currentColor" fill-rule="evenodd" d="M20.42 3.27a.926.926 0 1 1 1.309 1.311L4.579 21.73a.947.947 0 0 1-.654.271.963.963 0 0 1-.651-.268.93.93 0 0 1-.004-1.313l2.827-2.827h-.029c-1.409 0-2.435-.995-2.625-2.54-.213-1.545-.17-4.192 0-5.6.2-1.46 1.28-2.465 2.625-2.465h1.83l3.494-2.858c.425-.36 1.176-.7 1.758-.709 1.058 0 2.032.74 2.381 1.926.138.498.192.994.234 1.472l.084.676c.014.104.026.204.037.31L20.42 3.27Zm-5.54 10.461c.144-.14.463-.24.607-.203.389.099.465.656.459 1.095-.018 1.272-.06 2.157-.128 2.704l-.048.451v.008c-.046.454-.093.923-.227 1.424-.353 1.184-1.298 1.952-2.373 1.952l-.106-.001c-.594 0-1.237-.356-1.603-.666l-1.3-1.006c-.495-.368-.349-.954-.072-1.294.208-.253 2.697-2.538 4.005-3.738.443-.407.75-.69.787-.726Z" clip-rule="evenodd"/></symbol><symbol xmlns="http://www.w3.org/2000/svg" id="volumeUp" fill="none" viewBox="0 0 24 24"><path fill="currentColor" fill-rule="evenodd" d="M13.357 6.45c-.05-.486-.103-.99-.232-1.494C12.775 3.752 11.801 3 10.758 3c-.582-.002-1.318.356-1.736.72l-3.46 2.897h-1.81c-1.333 0-2.404 1.027-2.607 2.51-.172 1.424-.214 4.11 0 5.677.186 1.567 1.21 2.579 2.607 2.579h1.81l3.527 2.94c.362.315 1 .676 1.588.676l.105.001c1.063 0 2-.78 2.35-1.98.133-.509.18-.985.224-1.445l.001-.008.047-.459c.18-1.487.18-8.739 0-10.215l-.047-.442Zm4.05.045a.907.907 0 0 0-1.279-.237.957.957 0 0 0-.228 1.308c.802 1.182 1.243 2.756 1.243 4.434 0 1.677-.441 3.252-1.243 4.434a.956.956 0 0 0 .23 1.308.905.905 0 0 0 1.277-.237c1.012-1.492 1.571-3.447 1.571-5.505s-.559-4.013-1.571-5.505ZM19.29 3.22a.905.905 0 0 1 1.277.236C22.136 5.767 23 8.802 23 12c0 3.2-.864 6.234-2.433 8.544a.902.902 0 0 1-1.276.236.957.957 0 0 1-.23-1.308c1.356-1.999 2.104-4.653 2.104-7.472 0-2.818-.748-5.472-2.105-7.471a.958.958 0 0 1 .23-1.308Z" clip-rule="evenodd"/></symbol><symbol xmlns="http://www.w3.org/2000/svg" id="wallet" fill="none" viewBox="0 0 24 24"><path fill="currentColor" fill-rule="evenodd" d="M17.769 8.382H22C22 4.985 19.964 3 16.516 3H7.484C4.036 3 2 4.985 2 8.338v7.324C2 19.015 4.036 21 7.484 21h9.032C19.964 21 22 19.015 22 15.662v-.313h-4.231c-1.964 0-3.556-1.552-3.556-3.466 0-1.915 1.592-3.467 3.556-3.467v-.034Zm0 1.49h3.484c.413 0 .747.326.747.728v2.531a.746.746 0 0 1-.747.728H17.85c-.994.013-1.864-.65-2.089-1.595a1.982 1.982 0 0 1 .433-1.652 2.091 2.091 0 0 1 1.576-.74Zm.151 2.661h.329a.755.755 0 0 0 .764-.745.755.755 0 0 0-.764-.746h-.329a.766.766 0 0 0-.54.213.727.727 0 0 0-.224.524c0 .413.34.75.764.754ZM6.738 8.382h5.644a.755.755 0 0 0 .765-.746.755.755 0 0 0-.765-.745H6.738a.755.755 0 0 0-.765.737c0 .413.341.75.765.754Z" clip-rule="evenodd"/></symbol><symbol xmlns="http://www.w3.org/2000/svg" id="work" fill="none" viewBox="0 0 24 24"><path fill="currentColor" fill-rule="evenodd" d="M10.704 3.519c-.67 0-1.24.466-1.4 1.094h5.382a1.453 1.453 0 0 0-1.4-1.094h-2.582Zm5.503 1.094h1.981C20.29 4.613 22 6.344 22 8.47c0 0-.06.9-.08 2.154a.33.33 0 0 1-.13.255c-.48.355-.92.65-.96.67-1.661 1.113-3.591 1.897-5.647 2.287a.318.318 0 0 1-.335-.163 3.296 3.296 0 0 0-2.853-1.649 3.35 3.35 0 0 0-2.872 1.643.319.319 0 0 1-.333.16 15.49 15.49 0 0 1-5.62-2.269l-.96-.668a.286.286 0 0 1-.13-.243C2.05 10.132 2 8.471 2 8.471c0-2.127 1.71-3.858 3.812-3.858h1.97C7.974 3.144 9.205 2 10.705 2h2.582c1.5 0 2.731 1.144 2.921 2.613Zm5.453 8.202-.04.02c-2.021 1.357-4.452 2.259-7.004 2.633a.753.753 0 0 1-.82-.546 1.816 1.816 0 0 0-1.781-1.378h-.03c-.85 0-1.56.547-1.78 1.378a.753.753 0 0 1-.821.546c-2.552-.374-4.983-1.276-7.004-2.633-.01-.01-.11-.07-.19-.02-.09.05-.09.172-.09.172l.07 5.165C2.17 20.279 3.87 22 5.972 22h12.046c2.101 0 3.802-1.721 3.802-3.848l.08-5.165s0-.121-.09-.172c-.05-.03-.11-.02-.15 0Zm-8.915 4.243c0 .426-.33.76-.75.76a.754.754 0 0 1-.75-.76v-1.306c0-.415.34-.76.75-.76.42 0 .75.345.75.76v1.306Z" clip-rule="evenodd"/></symbol></svg>