<svg width="0" height="0"><symbol xmlns="http://www.w3.org/2000/svg" id="2user" fill="none" viewBox="0 0 24 24"><path stroke="currentColor" stroke-linecap="round" stroke-linejoin="round" stroke-width="1.5" d="M9.592 15.207c3.688 0 6.841.559 6.841 2.792 0 2.233-3.131 2.808-6.841 2.808-3.69 0-6.842-.554-6.842-2.788s3.13-2.812 6.842-2.812Zm0-3.187a4.386 4.386 0 1 1 4.385-4.385 4.37 4.37 0 0 1-4.354 4.385h-.031Z" clip-rule="evenodd"/><path stroke="currentColor" stroke-linecap="round" stroke-linejoin="round" stroke-width="1.5" d="M16.483 10.882A3.301 3.301 0 0 0 19.32 7.62a3.3 3.3 0 0 0-2.762-3.256m2.038 10.368c1.55.231 2.634.775 2.634 1.895 0 .771-.51 1.271-1.335 1.584"/></symbol><symbol xmlns="http://www.w3.org/2000/svg" id="3user" fill="none" viewBox="0 0 24 24"><path stroke="currentColor" stroke-linecap="round" stroke-linejoin="round" stroke-width="1.5" d="M17.888 10.897a2.875 2.875 0 0 0 2.472-2.841 2.875 2.875 0 0 0-2.406-2.836m1.775 9.03c1.35.202 2.294.675 2.294 1.65 0 .671-.445 1.107-1.163 1.381"/><path stroke="currentColor" stroke-linecap="round" stroke-linejoin="round" stroke-width="1.5" d="M11.887 14.664c-3.214 0-5.96.487-5.96 2.432 0 1.944 2.729 2.445 5.96 2.445 3.214 0 5.958-.482 5.958-2.428s-2.727-2.45-5.958-2.45Zm0-2.776a3.819 3.819 0 1 0-3.82-3.82 3.804 3.804 0 0 0 3.792 3.82h.028Z" clip-rule="evenodd"/><path stroke="currentColor" stroke-linecap="round" stroke-linejoin="round" stroke-width="1.5" d="M5.885 10.897a2.875 2.875 0 0 1-2.472-2.841A2.875 2.875 0 0 1 5.819 5.22m-1.775 9.03c-1.351.202-2.294.675-2.294 1.65 0 .671.444 1.107 1.162 1.381"/></symbol><symbol xmlns="http://www.w3.org/2000/svg" id="activity" fill="none" viewBox="0 0 24 24"><path stroke="currentColor" stroke-linecap="round" stroke-linejoin="round" stroke-width="1.5" d="m7.245 14.781 2.993-3.89 3.414 2.682 2.93-3.78"/><circle cx="19.995" cy="4.2" r="1.922" stroke="currentColor" stroke-linecap="round" stroke-linejoin="round" stroke-width="1.5"/><path stroke="currentColor" stroke-linecap="round" stroke-linejoin="round" stroke-width="1.5" d="M14.925 3.12H7.657c-3.012 0-4.879 2.133-4.879 5.144v8.083c0 3.011 1.83 5.135 4.879 5.135h8.604c3.011 0 4.879-2.124 4.879-5.135v-7.04"/></symbol><symbol xmlns="http://www.w3.org/2000/svg" id="addUser" fill="none" viewBox="0 0 24 24"><path stroke="currentColor" stroke-linecap="round" stroke-linejoin="round" stroke-width="1.5" d="M9.877 15.206c-3.844 0-7.127.581-7.127 2.91 0 2.327 3.263 2.93 7.127 2.93 3.845 0 7.126-.583 7.126-2.91s-3.261-2.93-7.126-2.93Zm0-3.32A4.568 4.568 0 1 0 5.31 7.318a4.551 4.551 0 0 0 4.536 4.568h.03Z" clip-rule="evenodd"/><path stroke="currentColor" stroke-linecap="round" stroke-linejoin="round" stroke-width="1.5" d="M19.204 8.67v4.01m2.046-2.006h-4.09"/></symbol><symbol xmlns="http://www.w3.org/2000/svg" id="arrowDown" fill="none" viewBox="0 0 24 24"><path stroke="currentColor" stroke-linecap="round" stroke-linejoin="round" stroke-width="1.5" d="M12.274 19.75v-15m6.025 8.95-6.024 6.05L6.25 13.7"/></symbol><symbol xmlns="http://www.w3.org/2000/svg" id="arrowDown2" fill="none" viewBox="0 0 24 24"><path stroke="currentColor" stroke-linecap="round" stroke-linejoin="round" stroke-width="1.5" d="m19 8.5-7 7-7-7"/></symbol><symbol xmlns="http://www.w3.org/2000/svg" id="arrowDown3" fill="none" viewBox="0 0 24 24"><path stroke="currentColor" stroke-linecap="round" stroke-linejoin="round" stroke-width="1.5" d="M12.251 12.7V3.75"/><path stroke="currentColor" stroke-linecap="round" stroke-linejoin="round" stroke-width="1.5" d="m7.25 12.7 5.001 7.937 5.001-7.937H7.25Z" clip-rule="evenodd"/></symbol><symbol xmlns="http://www.w3.org/2000/svg" id="arrowDownCircle" fill="none" viewBox="0 0 24 24"><path stroke="currentColor" stroke-linecap="round" stroke-linejoin="round" stroke-width="1.5" d="M2.75 12a9.25 9.25 0 1 0 18.5 0 9.25 9.25 0 0 0-18.5 0Z" clip-rule="evenodd"/><path stroke="currentColor" stroke-linecap="round" stroke-linejoin="round" stroke-width="1.5" d="M8.53 10.558 12 14.044l3.471-3.486"/></symbol><symbol xmlns="http://www.w3.org/2000/svg" id="arrowDownSquare" fill="none" viewBox="0 0 24 24"><path stroke="currentColor" stroke-linecap="round" stroke-linejoin="round" stroke-width="1.5" d="M7.666 21.25h8.669c3.02 0 4.915-2.139 4.915-5.166V7.916c0-3.027-1.885-5.166-4.915-5.166H7.666c-3.03 0-4.916 2.139-4.916 5.166v8.168c0 3.027 1.886 5.166 4.916 5.166Z" clip-rule="evenodd"/><path stroke="currentColor" stroke-linecap="round" stroke-linejoin="round" stroke-width="1.5" d="M12 16.086V7.914m3.748 4.408L12 16.086l-3.748-3.764"/></symbol><symbol xmlns="http://www.w3.org/2000/svg" id="arrowLeft" fill="none" viewBox="0 0 24 24"><path stroke="currentColor" stroke-linecap="round" stroke-linejoin="round" stroke-width="1.5" d="M4.25 12.274h15m-8.95 6.025-6.05-6.024L10.3 6.25"/></symbol><symbol xmlns="http://www.w3.org/2000/svg" id="arrowLeft2" fill="none" viewBox="0 0 24 24"><path stroke="currentColor" stroke-linecap="round" stroke-linejoin="round" stroke-width="1.5" d="m15.5 19-7-7 7-7"/></symbol><symbol xmlns="http://www.w3.org/2000/svg" id="arrowLeft3" fill="none" viewBox="0 0 24 24"><path stroke="currentColor" stroke-linecap="round" stroke-linejoin="round" stroke-width="1.5" d="M11.3 12.251h8.95"/><path stroke="currentColor" stroke-linecap="round" stroke-linejoin="round" stroke-width="1.5" d="m11.3 7.25-7.937 5.001 7.937 5.001V7.25Z" clip-rule="evenodd"/></symbol><symbol xmlns="http://www.w3.org/2000/svg" id="arrowLeftCircle" fill="none" viewBox="0 0 24 24"><path stroke="currentColor" stroke-linecap="round" stroke-linejoin="round" stroke-width="1.5" d="M12 2.75a9.25 9.25 0 1 0 0 18.5 9.25 9.25 0 0 0 0-18.5Z" clip-rule="evenodd"/><path stroke="currentColor" stroke-linecap="round" stroke-linejoin="round" stroke-width="1.5" d="M13.442 8.53 9.956 12l3.486 3.471"/></symbol><symbol xmlns="http://www.w3.org/2000/svg" id="arrowLeftSquare" fill="none" viewBox="0 0 24 24"><path stroke="currentColor" stroke-linecap="round" stroke-linejoin="round" stroke-width="1.5" d="M2.75 7.666v8.669c0 3.02 2.139 4.915 5.166 4.915h8.168c3.027 0 5.166-1.885 5.166-4.915v-8.67c0-3.03-2.139-4.915-5.166-4.915H7.916c-3.027 0-5.166 1.886-5.166 4.916Z" clip-rule="evenodd"/><path stroke="currentColor" stroke-linecap="round" stroke-linejoin="round" stroke-width="1.5" d="M7.914 12h8.172m-4.408 3.748L7.914 12l3.764-3.748"/></symbol><symbol xmlns="http://www.w3.org/2000/svg" id="arrowRight" fill="none" viewBox="0 0 24 24"><path stroke="currentColor" stroke-linecap="round" stroke-linejoin="round" stroke-width="1.5" d="M19.75 11.726h-15m8.95-6.025 6.05 6.024-6.05 6.025"/></symbol><symbol xmlns="http://www.w3.org/2000/svg" id="arrowRight2" fill="none" viewBox="0 0 24 24"><path stroke="currentColor" stroke-linecap="round" stroke-linejoin="round" stroke-width="1.5" d="m8.5 5 7 7-7 7"/></symbol><symbol xmlns="http://www.w3.org/2000/svg" id="arrowRight3" fill="none" viewBox="0 0 24 24"><path stroke="currentColor" stroke-linecap="round" stroke-linejoin="round" stroke-width="1.5" d="M12.7 11.749H3.75"/><path stroke="currentColor" stroke-linecap="round" stroke-linejoin="round" stroke-width="1.5" d="m12.7 16.75 7.937-5.001L12.7 6.748V16.75Z" clip-rule="evenodd"/></symbol><symbol xmlns="http://www.w3.org/2000/svg" id="arrowRightCircle" fill="none" viewBox="0 0 24 24"><path stroke="currentColor" stroke-linecap="round" stroke-linejoin="round" stroke-width="1.5" d="M12 21.25a9.25 9.25 0 1 0 0-18.5 9.25 9.25 0 0 0 0 18.5Z" clip-rule="evenodd"/><path stroke="currentColor" stroke-linecap="round" stroke-linejoin="round" stroke-width="1.5" d="M10.558 15.47 14.044 12l-3.486-3.471"/></symbol><symbol xmlns="http://www.w3.org/2000/svg" id="arrowRightSquare" fill="none" viewBox="0 0 24 24"><path stroke="currentColor" stroke-linecap="round" stroke-linejoin="round" stroke-width="1.5" d="M21.25 16.334V7.665c0-3.02-2.139-4.915-5.166-4.915H7.916c-3.027 0-5.166 1.885-5.166 4.915v8.67c0 3.03 2.139 4.915 5.166 4.915h8.168c3.027 0 5.166-1.886 5.166-4.916Z" clip-rule="evenodd"/><path stroke="currentColor" stroke-linecap="round" stroke-linejoin="round" stroke-width="1.5" d="M16.086 12H7.914m4.408-3.748L16.086 12l-3.764 3.748"/></symbol><symbol xmlns="http://www.w3.org/2000/svg" id="arrowUp" fill="none" viewBox="0 0 24 24"><path stroke="currentColor" stroke-linecap="round" stroke-linejoin="round" stroke-width="1.5" d="M11.726 4.25v15M5.701 10.3l6.024-6.05 6.025 6.05"/></symbol><symbol xmlns="http://www.w3.org/2000/svg" id="arrowUp2" fill="none" viewBox="0 0 24 24"><path stroke="currentColor" stroke-linecap="round" stroke-linejoin="round" stroke-width="1.5" d="m5 15.5 7-7 7 7"/></symbol><symbol xmlns="http://www.w3.org/2000/svg" id="arrowUp3" fill="none" viewBox="0 0 24 24"><path stroke="currentColor" stroke-linecap="round" stroke-linejoin="round" stroke-width="1.5" d="M11.749 11.3v8.95"/><path stroke="currentColor" stroke-linecap="round" stroke-linejoin="round" stroke-width="1.5" d="m16.75 11.3-5.001-7.937L6.748 11.3H16.75Z" clip-rule="evenodd"/></symbol><symbol xmlns="http://www.w3.org/2000/svg" id="arrowUpCircle" fill="none" viewBox="0 0 24 24"><path stroke="currentColor" stroke-linecap="round" stroke-linejoin="round" stroke-width="1.5" d="M21.25 12a9.25 9.25 0 1 0-18.5 0 9.25 9.25 0 0 0 18.5 0Z" clip-rule="evenodd"/><path stroke="currentColor" stroke-linecap="round" stroke-linejoin="round" stroke-width="1.5" d="M15.47 13.442 12 9.956l-3.471 3.486"/></symbol><symbol xmlns="http://www.w3.org/2000/svg" id="arrowUpSquare" fill="none" viewBox="0 0 24 24"><path stroke="currentColor" stroke-linecap="round" stroke-linejoin="round" stroke-width="1.5" d="M16.334 2.75H7.665c-3.02 0-4.915 2.139-4.915 5.166v8.168c0 3.027 1.885 5.166 4.915 5.166h8.669c3.03 0 4.916-2.139 4.916-5.166V7.916c0-3.027-1.886-5.166-4.916-5.166Z" clip-rule="evenodd"/><path stroke="currentColor" stroke-linecap="round" stroke-linejoin="round" stroke-width="1.5" d="M12 7.914v8.172m-3.748-4.408L12 7.914l3.748 3.764"/></symbol><symbol xmlns="http://www.w3.org/2000/svg" id="bag" fill="none" viewBox="0 0 24 24"><path stroke="currentColor" stroke-linecap="round" stroke-linejoin="round" stroke-width="1.5" d="M16.514 21.5H8.166c-3.067 0-5.419-1.108-4.75-5.565l.777-6.041c.412-2.225 1.83-3.076 3.076-3.076h10.178c1.263 0 2.6.915 3.076 3.076l.778 6.04c.567 3.955-1.721 5.566-4.787 5.566Z" clip-rule="evenodd"/><path stroke="currentColor" stroke-linecap="round" stroke-linejoin="round" stroke-width="1.5" d="M16.651 6.598a4.32 4.32 0 0 0-4.32-4.32v0a4.32 4.32 0 0 0-4.34 4.32h0m7.305 4.504h-.045m-5.785 0H9.42"/></symbol><symbol xmlns="http://www.w3.org/2000/svg" id="bag3" fill="none" viewBox="0 0 24 24"><path stroke="currentColor" stroke-linecap="round" stroke-linejoin="round" stroke-width="1.5" d="M15.773 9.305V6.273A3.772 3.772 0 0 0 12 2.5a3.773 3.773 0 0 0-3.79 3.756v3.049"/><path stroke="currentColor" stroke-linecap="round" stroke-linejoin="round" stroke-width="1.5" d="M16.742 21H7.258A4.256 4.256 0 0 1 3 16.745V11.23a4.256 4.256 0 0 1 4.258-4.255h9.484A4.256 4.256 0 0 1 21 11.23v5.516A4.256 4.256 0 0 1 16.742 21Z" clip-rule="evenodd"/></symbol><symbol xmlns="http://www.w3.org/2000/svg" id="bookmark" fill="none" viewBox="0 0 24 24"><path stroke="currentColor" stroke-linecap="round" stroke-linejoin="round" stroke-width="1.5" d="M19.739 6.154c0-2.751-1.88-3.854-4.589-3.854H8.791C6.167 2.3 4.2 3.328 4.2 5.97v14.724a.95.95 0 0 0 1.413.828l6.382-3.58 6.327 3.574a.95.95 0 0 0 1.417-.827V6.154Z" clip-rule="evenodd"/><path stroke="currentColor" stroke-linecap="round" stroke-linejoin="round" stroke-width="1.5" d="M8.271 9.028h7.318"/></symbol><symbol xmlns="http://www.w3.org/2000/svg" id="buy" fill="none" viewBox="0 0 24 24"><path stroke="currentColor" stroke-linecap="round" stroke-linejoin="round" stroke-width="1.5" d="m2.75 3.25 2.08.36.963 11.473a1.8 1.8 0 0 0 1.8 1.653h10.909a1.8 1.8 0 0 0 1.785-1.546l.949-6.558a1.341 1.341 0 0 0-1.135-1.52C20.037 7.105 5.164 7.1 5.164 7.1m8.961 3.695h2.773"/><path fill="currentColor" fill-rule="evenodd" stroke="currentColor" stroke-linecap="round" stroke-linejoin="round" stroke-width="1.5" d="M7.154 20.203a.544.544 0 1 1 0 1.087.544.544 0 0 1 0-1.087Zm11.281 0a.545.545 0 1 1 0 1.09.545.545 0 0 1 0-1.09Z" clip-rule="evenodd"/></symbol><symbol xmlns="http://www.w3.org/2000/svg" id="calendar" fill="none" viewBox="0 0 24 24"><path stroke="currentColor" stroke-linecap="round" stroke-linejoin="round" stroke-width="1.5" d="M3.093 9.404h17.823m-4.474 3.906h.01m-4.447 0h.009m-4.456 0h.01m8.874 3.886h.01m-4.447 0h.009m-4.456 0h.01M16.044 2v3.29M7.965 2v3.29"/><path stroke="currentColor" stroke-linecap="round" stroke-linejoin="round" stroke-width="1.5" d="M16.238 3.58H7.771C4.834 3.58 3 5.214 3 8.221v9.05C3 20.326 4.834 22 7.771 22h8.458C19.175 22 21 20.355 21 17.348V8.222c.01-3.007-1.816-4.643-4.762-4.643Z" clip-rule="evenodd"/></symbol><symbol xmlns="http://www.w3.org/2000/svg" id="call" fill="none" viewBox="0 0 24 24"><path stroke="currentColor" stroke-linecap="round" stroke-linejoin="round" stroke-width="1.5" d="M11.532 12.472c3.989 3.988 4.894-.625 7.434 1.913 2.448 2.448 3.856 2.938.753 6.04-.388.312-2.857 4.07-11.534-4.605C-.493 7.144 3.262 4.672 3.574 4.284c3.11-3.11 3.592-1.695 6.04.753 2.54 2.54-2.071 3.447 1.918 7.435Z" clip-rule="evenodd"/></symbol><symbol xmlns="http://www.w3.org/2000/svg" id="calling" fill="none" viewBox="0 0 24 24"><path stroke="currentColor" stroke-linecap="round" stroke-linejoin="round" stroke-width="1.5" d="M14.353 2.5a7.97 7.97 0 0 1 7.04 7.032m-7.04-3.489a4.426 4.426 0 0 1 3.5 3.5"/><path stroke="currentColor" stroke-linecap="round" stroke-linejoin="round" stroke-width="1.5" d="M11.031 12.472c3.99 3.988 4.894-.625 7.434 1.913 2.449 2.448 3.857 2.938.754 6.04-.389.312-2.858 4.07-11.535-4.605C-.993 7.144 2.762 4.672 3.074 4.284c3.11-3.11 3.593-1.695 6.041.753 2.54 2.54-2.072 3.447 1.916 7.435Z" clip-rule="evenodd"/></symbol><symbol xmlns="http://www.w3.org/2000/svg" id="callMissed" fill="none" viewBox="0 0 24 24"><path stroke="currentColor" stroke-linecap="round" stroke-linejoin="round" stroke-width="1.5" d="m21.315 3.75-6 6m0-6 6 6"/><path stroke="currentColor" stroke-linecap="round" stroke-linejoin="round" stroke-width="1.5" d="M11.031 12.472c3.99 3.988 4.894-.625 7.434 1.913 2.449 2.448 3.857 2.938.754 6.04-.389.312-2.858 4.07-11.535-4.605C-.993 7.144 2.762 4.672 3.074 4.284c3.11-3.11 3.593-1.695 6.041.753 2.54 2.54-2.072 3.447 1.916 7.435Z" clip-rule="evenodd"/></symbol><symbol xmlns="http://www.w3.org/2000/svg" id="callSilent" fill="none" viewBox="0 0 24 24"><path stroke="currentColor" stroke-linecap="round" stroke-linejoin="round" stroke-width="1.5" d="M6.585 14.205C.154 6.918 3.37 4.74 3.655 4.385c3.068-3.112 3.544-1.695 5.955.752 2.03 2.07-.602 3.058.477 5.516m2.403 2.729c3.28 2.694 4.206-1.159 6.53 1.202 2.396 2.447 3.774 2.941.735 6.043-.357.31-2.66 3.842-10.555-3.885M4.5 21.5l15-16"/></symbol><symbol xmlns="http://www.w3.org/2000/svg" id="camera" fill="none" viewBox="0 0 24 24"><path stroke="currentColor" stroke-linecap="round" stroke-linejoin="round" stroke-width="1.5" d="M15.04 4.051c1.01.402 1.32 1.802 1.732 2.252.413.45 1.004.603 1.331.603a3.147 3.147 0 0 1 3.147 3.146v5.795a4.22 4.22 0 0 1-4.22 4.22H6.97a4.22 4.22 0 0 1-4.22-4.22v-5.795a3.147 3.147 0 0 1 3.147-3.146c.326 0 .917-.153 1.331-.603.413-.45.721-1.85 1.731-2.252 1.011-.402 5.071-.402 6.081 0Z" clip-rule="evenodd"/><path stroke="currentColor" stroke-linecap="round" stroke-linejoin="round" stroke-width="2" d="M17.495 9.5h.01"/><path stroke="currentColor" stroke-linecap="round" stroke-linejoin="round" stroke-width="1.5" d="M15.179 13.128a3.179 3.179 0 1 0-6.357 0 3.179 3.179 0 0 0 6.357 0Z" clip-rule="evenodd"/></symbol><symbol xmlns="http://www.w3.org/2000/svg" id="category" fill="none" viewBox="0 0 24 24"><path stroke="currentColor" stroke-linecap="round" stroke-linejoin="round" stroke-width="1.5" d="M3 6.5C3 3.875 3.028 3 6.5 3s3.5.875 3.5 3.5.011 3.5-3.5 3.5S3 9.125 3 6.5Zm11 0c0-2.625.028-3.5 3.5-3.5s3.5.875 3.5 3.5.011 3.5-3.5 3.5S14 9.125 14 6.5Zm-11 11c0-2.625.028-3.5 3.5-3.5s3.5.875 3.5 3.5.011 3.5-3.5 3.5S3 20.125 3 17.5Zm11 0c0-2.625.028-3.5 3.5-3.5s3.5.875 3.5 3.5.011 3.5-3.5 3.5-3.5-.875-3.5-3.5Z" clip-rule="evenodd"/></symbol><symbol xmlns="http://www.w3.org/2000/svg" id="chart" fill="none" viewBox="0 0 24 24"><path stroke="currentColor" stroke-linecap="round" stroke-linejoin="round" stroke-width="1.5" d="M7.371 10.202v6.86M12.038 6.92v10.142m4.59-3.235v3.235"/><path stroke="currentColor" stroke-linecap="round" stroke-linejoin="round" stroke-width="1.5" d="M16.686 2H7.314C4.048 2 2 4.312 2 7.585v8.83C2 19.688 4.038 22 7.314 22h9.372C19.962 22 22 19.688 22 16.415v-8.83C22 4.312 19.962 2 16.686 2Z" clip-rule="evenodd"/></symbol><symbol xmlns="http://www.w3.org/2000/svg" id="chat" fill="none" viewBox="0 0 24 24"><path stroke="currentColor" stroke-linecap="round" stroke-linejoin="round" stroke-width="1.5" d="M19.071 19.07c-3.056 3.056-7.581 3.717-11.285 2.004-.546-.22-.995-.398-1.42-.398-1.188.007-2.665 1.158-3.433.391-.767-.768.384-2.246.384-3.44 0-.427-.17-.867-.39-1.415C1.212 12.51 1.873 7.982 4.93 4.927c3.902-3.903 10.24-3.903 14.141 0 3.909 3.908 3.902 10.241 0 14.143Z" clip-rule="evenodd"/><path stroke="currentColor" stroke-linecap="round" stroke-linejoin="round" stroke-width="2" d="M15.94 12.413h.008m-4.018 0h.01m-4.019 0h.01"/></symbol><symbol xmlns="http://www.w3.org/2000/svg" id="closeSquare" fill="none" viewBox="0 0 24 24"><path stroke="currentColor" stroke-linecap="round" stroke-linejoin="round" stroke-width="1.5" d="m14.396 9.595-4.792 4.792m4.793.003L9.601 9.593"/><path stroke="currentColor" stroke-linecap="round" stroke-linejoin="round" stroke-width="1.5" d="M16.334 2.75H7.665c-3.02 0-4.915 2.14-4.915 5.166v8.168c0 3.027 1.885 5.166 4.915 5.166h8.669c3.03 0 4.916-2.139 4.916-5.166V7.916c0-3.027-1.886-5.166-4.916-5.166Z" clip-rule="evenodd"/></symbol><symbol xmlns="http://www.w3.org/2000/svg" id="dangerCircle" fill="none" viewBox="0 0 24 24"><path stroke="currentColor" stroke-linecap="round" stroke-linejoin="round" stroke-width="1.5" d="M12 2.75a9.25 9.25 0 1 1 0 18.5 9.25 9.25 0 0 1 0-18.5Z" clip-rule="evenodd"/><path stroke="currentColor" stroke-linecap="round" stroke-linejoin="round" stroke-width="1.5" d="M11.995 8.204v4.42"/><path stroke="currentColor" stroke-linecap="round" stroke-linejoin="round" stroke-width="2" d="M11.995 15.796h.01"/></symbol><symbol xmlns="http://www.w3.org/2000/svg" id="dangerTriangle" fill="none" viewBox="0 0 24 24"><path stroke="currentColor" stroke-linecap="round" stroke-linejoin="round" stroke-width="1.5" d="M4.814 20.437h14.383c1.582 0 2.575-1.71 1.79-3.084L13.8 4.788c-.79-1.383-2.785-1.384-3.577-.001L3.025 17.352c-.786 1.374.206 3.085 1.79 3.085Z" clip-rule="evenodd"/><path stroke="currentColor" stroke-linecap="round" stroke-linejoin="round" stroke-width="1.5" d="M12.003 13.415v-3.1"/><path stroke="currentColor" stroke-linecap="round" stroke-linejoin="round" stroke-width="2" d="M11.995 16.5h.01"/></symbol><symbol xmlns="http://www.w3.org/2000/svg" id="delete" fill="none" viewBox="0 0 24 24"><path stroke="currentColor" stroke-linecap="round" stroke-linejoin="round" stroke-width="1.5" d="M19.325 9.468s-.543 6.735-.858 9.572c-.15 1.355-.987 2.15-2.358 2.174-2.609.047-5.221.05-7.829-.005-1.319-.027-2.142-.83-2.289-2.162-.317-2.862-.857-9.579-.857-9.579M20.708 6.24H3.75m13.69 0a1.648 1.648 0 0 1-1.614-1.324L15.583 3.7a1.28 1.28 0 0 0-1.237-.95h-4.233a1.28 1.28 0 0 0-1.237.95l-.243 1.216A1.648 1.648 0 0 1 7.018 6.24"/></symbol><symbol xmlns="http://www.w3.org/2000/svg" id="discount" fill="none" viewBox="0 0 24 24"><path stroke="currentColor" stroke-linecap="round" stroke-linejoin="round" stroke-width="1.5" d="M4.795 7.056a2.262 2.262 0 0 1 2.261-2.262h1.029c.597 0 1.169-.237 1.593-.657l.719-.72a2.262 2.262 0 0 1 3.199-.009l.001.001.009.008.72.72a2.26 2.26 0 0 0 1.593.657h1.028a2.262 2.262 0 0 1 2.262 2.262v1.027c0 .597.236 1.17.657 1.594l.72.72c.886.881.891 2.313.01 3.199l-.001.001-.009.009-.72.72a2.256 2.256 0 0 0-.657 1.592v1.029a2.26 2.26 0 0 1-2.261 2.261h-1.031a2.26 2.26 0 0 0-1.593.658l-.72.719a2.261 2.261 0 0 1-3.2.009l-.009-.009-.719-.719a2.263 2.263 0 0 0-1.593-.658H7.056a2.26 2.26 0 0 1-2.261-2.261v-1.031c0-.597-.237-1.169-.658-1.592l-.719-.72a2.26 2.26 0 0 1-.009-3.2l.009-.009.719-.72c.421-.424.658-.996.658-1.594V7.056m4.637 7.516 5.14-5.14"/><path stroke="currentColor" stroke-linecap="round" stroke-linejoin="round" stroke-width="2" d="M14.495 14.5h.01m-5.01-5h.01"/></symbol><symbol xmlns="http://www.w3.org/2000/svg" id="discovery" fill="none" viewBox="0 0 24 24"><path stroke="currentColor" stroke-linecap="round" stroke-linejoin="round" stroke-width="1.5" d="m8.27 14.952 1.593-5.09 5.089-1.592-1.593 5.09-5.089 1.592Z" clip-rule="evenodd"/><circle cx="11.611" cy="11.611" r="9.611" stroke="currentColor" stroke-linecap="round" stroke-linejoin="round" stroke-width="1.5"/></symbol><symbol xmlns="http://www.w3.org/2000/svg" id="document" fill="none" viewBox="0 0 24 24"><path stroke="currentColor" stroke-linecap="round" stroke-linejoin="round" stroke-width="1.5" d="M15.716 16.223h-7.22m7.22-4.186h-7.22m2.755-4.177H8.496"/><path stroke="currentColor" stroke-linecap="round" stroke-linejoin="round" stroke-width="1.5" d="m15.909 2.75-7.69.004C5.46 2.77 3.75 4.587 3.75 7.357v9.196c0 2.784 1.722 4.607 4.506 4.607l7.69-.003c2.76-.017 4.47-1.834 4.47-4.604V7.357c0-2.784-1.724-4.607-4.508-4.607Z" clip-rule="evenodd"/></symbol><symbol xmlns="http://www.w3.org/2000/svg" id="download" fill="none" viewBox="0 0 24 24"><path stroke="currentColor" stroke-linecap="round" stroke-linejoin="round" stroke-width="1.5" d="M12.122 15.436V3.396m2.916 9.112-2.916 2.928-2.916-2.928"/><path stroke="currentColor" stroke-linecap="round" stroke-linejoin="round" stroke-width="1.5" d="M16.755 8.128h.933a3.684 3.684 0 0 1 3.684 3.685v4.884a3.675 3.675 0 0 1-3.675 3.675H6.557a3.685 3.685 0 0 1-3.685-3.685v-4.885a3.675 3.675 0 0 1 3.675-3.674h.942"/></symbol><symbol xmlns="http://www.w3.org/2000/svg" id="edit" fill="none" viewBox="0 0 24 24"><path stroke="currentColor" stroke-linecap="round" stroke-linejoin="round" stroke-width="1.5" d="M13.747 20.443H21"/><path stroke="currentColor" stroke-linecap="round" stroke-linejoin="round" stroke-width="1.5" d="M12.78 3.795a2.245 2.245 0 0 1 3.116-.303l1.733 1.347a2.142 2.142 0 0 1 .72 2.984c-.034.054-9.537 11.942-9.537 11.942a1.699 1.699 0 0 1-1.31.632l-3.638.046-.82-3.47a1.63 1.63 0 0 1 .316-1.396l9.42-11.782Z" clip-rule="evenodd"/><path stroke="currentColor" stroke-linecap="round" stroke-linejoin="round" stroke-width="1.5" d="m11.02 6 5.453 4.188"/></symbol><symbol xmlns="http://www.w3.org/2000/svg" id="editSquare" fill="none" viewBox="0 0 24 24"><path stroke="currentColor" stroke-linecap="round" stroke-linejoin="round" stroke-width="1.5" d="M11.492 2.789H7.753c-3.075 0-5.003 2.177-5.003 5.259v8.314c0 3.082 1.92 5.259 5.003 5.259h8.824c3.085 0 5.004-2.177 5.004-5.26v-4.027"/><path stroke="currentColor" stroke-linecap="round" stroke-linejoin="round" stroke-width="1.5" d="M8.828 10.92 16.3 3.449c.93-.93 2.44-.93 3.37 0l1.218 1.217a2.383 2.383 0 0 1 0 3.37l-7.51 7.51a2.17 2.17 0 0 1-1.534.636H8.099l.094-3.78a2.17 2.17 0 0 1 .635-1.48Z" clip-rule="evenodd"/><path stroke="currentColor" stroke-linecap="round" stroke-linejoin="round" stroke-width="1.5" d="m15.165 4.602 4.566 4.566"/></symbol><symbol xmlns="http://www.w3.org/2000/svg" id="filter" fill="none" viewBox="0 0 24 24"><path stroke="currentColor" stroke-linecap="round" stroke-linejoin="round" stroke-width="1.5" d="M10.33 16.593h-6.3M13.14 6.9h6.301"/><path stroke="currentColor" stroke-linecap="round" stroke-linejoin="round" stroke-width="1.5" d="M8.726 6.846A2.355 2.355 0 0 0 6.363 4.5 2.355 2.355 0 0 0 4 6.846a2.355 2.355 0 0 0 2.363 2.347 2.355 2.355 0 0 0 2.363-2.347ZM20 16.554a2.354 2.354 0 0 0-2.362-2.346 2.355 2.355 0 0 0-2.364 2.346 2.355 2.355 0 0 0 2.364 2.346A2.354 2.354 0 0 0 20 16.554Z" clip-rule="evenodd"/></symbol><symbol xmlns="http://www.w3.org/2000/svg" id="filter3" fill="none" viewBox="0 0 24 24"><path stroke="currentColor" stroke-linecap="round" stroke-linejoin="round" stroke-width="1.5" d="M4.565 3C3.701 3 3 3.713 3 4.59v.936c0 .65.247 1.276.69 1.746l4.845 5.152.002-.003A5.157 5.157 0 0 1 10 16.023v4.572c0 .306.32.5.585.357l2.76-1.504a1.31 1.31 0 0 0 .676-1.15v-2.287c0-1.342.519-2.631 1.446-3.587l4.846-5.152c.44-.47.688-1.096.688-1.746V4.59C21 3.713 20.3 3 19.436 3H4.566Z" clip-rule="evenodd"/></symbol><symbol xmlns="http://www.w3.org/2000/svg" id="folder" fill="none" viewBox="0 0 24 24"><path stroke="currentColor" stroke-linecap="round" stroke-linejoin="round" stroke-width="1.5" d="M21.419 15.732c0 3.578-2.109 5.687-5.687 5.687H7.95c-3.587 0-5.7-2.109-5.7-5.687v-7.8c0-3.573 1.314-5.682 4.893-5.682h2a2.28 2.28 0 0 1 1.824.913l.913 1.214a2.29 2.29 0 0 0 1.826.913h2.83c3.587 0 4.911 1.826 4.911 5.477l-.028 4.965Z" clip-rule="evenodd"/><path stroke="currentColor" stroke-linecap="round" stroke-linejoin="round" stroke-width="1.5" d="M7.481 14.463h8.735"/></symbol><symbol xmlns="http://www.w3.org/2000/svg" id="game" fill="none" viewBox="0 0 24 24"><path stroke="currentColor" stroke-linecap="round" stroke-linejoin="round" stroke-width="1.5" d="M8.848 12.314v3.745m1.912-1.872H6.937m8.429-1.759h-.107m1.921 3.575h-.107M8.072 2c0 .74.613 1.34 1.368 1.34h1.057c1.165.005 2.11.93 2.115 2.073v.675"/><path stroke="currentColor" stroke-linecap="round" stroke-linejoin="round" stroke-width="1.5" d="M16.428 21.963c-3.005.05-5.955.048-8.855 0C4.353 21.963 2 19.666 2 16.51v-4.65c0-3.154 2.354-5.45 5.573-5.45 2.916-.05 5.868-.05 8.855 0 3.22 0 5.572 2.297 5.572 5.45v4.65c0 3.155-2.352 5.452-5.572 5.452Z" clip-rule="evenodd"/></symbol><symbol xmlns="http://www.w3.org/2000/svg" id="graph" fill="none" viewBox="0 0 24 24"><path stroke="currentColor" stroke-linecap="round" stroke-linejoin="round" stroke-width="1.5" d="M17.278 13.89c.675 0 1.241.556 1.138 1.222-.605 3.92-3.961 6.83-8.009 6.83A8.107 8.107 0 0 1 2.3 13.837c0-3.688 2.802-7.124 5.957-7.9.678-.168 1.373.309 1.373 1.007 0 4.728.158 5.951 1.056 6.617.898.665 1.954.33 6.592.33Z" clip-rule="evenodd"/><path stroke="currentColor" stroke-linecap="round" stroke-linejoin="round" stroke-width="1.5" d="M21.693 9.952c.053-3.038-3.678-7.935-8.226-7.851a.679.679 0 0 0-.652.654c-.115 2.498.04 5.734.126 7.202a.89.89 0 0 0 .841.842c1.508.086 4.863.204 7.325-.168a.694.694 0 0 0 .586-.68Z" clip-rule="evenodd"/></symbol><symbol xmlns="http://www.w3.org/2000/svg" id="heart" fill="none" viewBox="0 0 24 24"><path stroke="currentColor" stroke-linecap="round" stroke-linejoin="round" stroke-width="1.5" d="M2.872 11.598c-1.073-3.35.18-7.179 3.698-8.312a6.007 6.007 0 0 1 5.43.912c1.455-1.125 3.572-1.505 5.42-.912 3.517 1.133 4.779 4.962 3.707 8.312-1.67 5.31-9.127 9.4-9.127 9.4s-7.402-4.028-9.128-9.4Z" clip-rule="evenodd"/><path stroke="currentColor" stroke-linecap="round" stroke-linejoin="round" stroke-width="1.5" d="M16 6.7a2.781 2.781 0 0 1 1.917 2.422"/></symbol><symbol xmlns="http://www.w3.org/2000/svg" id="hide" fill="none" viewBox="0 0 24 24"><path stroke="currentColor" stroke-linecap="round" stroke-linejoin="round" stroke-width="1.5" d="M9.76 14.367a3.123 3.123 0 0 1-.925-2.23A3.16 3.16 0 0 1 12 8.973c.867 0 1.665.35 2.23.925m.875 2.801a3.158 3.158 0 0 1-2.537 2.542"/><path stroke="currentColor" stroke-linecap="round" stroke-linejoin="round" stroke-width="1.5" d="M6.655 17.472c-1.587-1.246-2.931-3.066-3.905-5.335.984-2.279 2.337-4.109 3.934-5.365C8.27 5.516 10.1 4.834 11.999 4.834c1.91 0 3.74.692 5.336 1.957m2.113 2.199a15.358 15.358 0 0 1 1.802 3.147c-1.968 4.557-5.444 7.302-9.25 7.302a7.98 7.98 0 0 1-2.532-.413M19.887 4.25 4.113 20.024"/></symbol><symbol xmlns="http://www.w3.org/2000/svg" id="home" fill="none" viewBox="0 0 24 24"><path stroke="currentColor" stroke-linecap="round" stroke-linejoin="round" stroke-width="1.5" d="M9.157 20.771v-3.066c0-.78.636-1.414 1.424-1.42h2.886c.792 0 1.433.636 1.433 1.42v3.076c0 .662.534 1.204 1.203 1.219h1.924c1.918 0 3.473-1.54 3.473-3.438v0-8.724a2.44 2.44 0 0 0-.962-1.905l-6.58-5.248a3.18 3.18 0 0 0-3.945 0L3.462 7.943A2.42 2.42 0 0 0 2.5 9.847v8.715C2.5 20.46 4.055 22 5.973 22h1.924c.685 0 1.241-.55 1.241-1.229v0"/></symbol><symbol xmlns="http://www.w3.org/2000/svg" id="image" fill="none" viewBox="0 0 24 24"><path stroke="currentColor" stroke-linecap="round" stroke-linejoin="round" stroke-width="1.5" d="M21.21 7.9v8.15c0 3.02-1.89 5.15-4.91 5.15H7.65c-3.02 0-4.9-2.13-4.9-5.15V7.9c0-3.02 1.89-5.15 4.9-5.15h8.65c3.02 0 4.91 2.13 4.91 5.15Z" clip-rule="evenodd"/><path stroke="currentColor" stroke-linecap="round" stroke-linejoin="round" stroke-width="1.5" d="m5.281 16.43 1.528-1.612a1.401 1.401 0 0 1 1.98-.06l.937.952a1.434 1.434 0 0 0 2.027.02c.037-.036 2.334-2.822 2.334-2.822a1.687 1.687 0 0 1 2.375-.23c.048.04 2.218 2.268 2.218 2.268"/><path stroke="currentColor" stroke-linecap="round" stroke-linejoin="round" stroke-width="1.5" d="M10.313 9.133a1.754 1.754 0 1 1-3.508.001 1.754 1.754 0 0 1 3.508 0Z" clip-rule="evenodd"/></symbol><symbol xmlns="http://www.w3.org/2000/svg" id="image3" fill="none" viewBox="0 0 24 24"><path stroke="currentColor" stroke-linecap="round" stroke-linejoin="round" stroke-width="1.5" d="M16.303 2.75H7.65c-3.012 0-4.901 2.134-4.901 5.154v8.146c0 3.02 1.88 5.154 4.9 5.154h8.648c3.025 0 4.905-2.134 4.905-5.154V7.904c.004-3.02-1.877-5.154-4.9-5.154Z" clip-rule="evenodd"/><path stroke="currentColor" stroke-linecap="round" stroke-linejoin="round" stroke-width="1.5" d="M10.703 8.785a1.845 1.845 0 1 1-3.69.001 1.845 1.845 0 0 1 3.69-.001Z" clip-rule="evenodd"/><path stroke="currentColor" stroke-linecap="round" stroke-linejoin="round" stroke-width="1.5" d="M21.207 14.95c-.923-.95-2.698-2.868-4.628-2.868-1.931 0-3.044 4.233-4.901 4.233-1.857 0-3.544-1.914-5.032-.687C5.158 16.854 3.75 19.36 3.75 19.36"/></symbol><symbol xmlns="http://www.w3.org/2000/svg" id="infoSquare" fill="none" viewBox="0 0 24 24"><path stroke="currentColor" stroke-linecap="round" stroke-linejoin="round" stroke-width="1.5" d="M16.334 2.75H7.665c-3.021 0-4.915 2.14-4.915 5.166v8.168c0 3.027 1.885 5.166 4.915 5.166h8.668c3.031 0 4.917-2.139 4.917-5.166V7.916c0-3.027-1.886-5.166-4.916-5.166Z" clip-rule="evenodd"/><path stroke="currentColor" stroke-linecap="round" stroke-linejoin="round" stroke-width="1.5" d="M11.995 16v-4"/><path stroke="currentColor" stroke-linecap="round" stroke-linejoin="round" stroke-width="2" d="M11.99 8.204H12"/></symbol><symbol xmlns="http://www.w3.org/2000/svg" id="location" fill="none" viewBox="0 0 24 24"><path stroke="currentColor" stroke-linecap="round" stroke-linejoin="round" stroke-width="1.5" d="M14.5 10.5a2.5 2.5 0 1 0-5 0 2.5 2.5 0 0 0 5 0Z" clip-rule="evenodd"/><path stroke="currentColor" stroke-linecap="round" stroke-linejoin="round" stroke-width="1.5" d="M12 21c-1.199 0-7.5-5.102-7.5-10.437C4.5 6.387 7.857 3 12 3c4.142 0 7.5 3.387 7.5 7.563C19.5 15.898 13.198 21 12 21Z" clip-rule="evenodd"/></symbol><symbol xmlns="http://www.w3.org/2000/svg" id="lock" fill="none" viewBox="0 0 24 24"><path stroke="currentColor" stroke-linecap="round" stroke-linejoin="round" stroke-width="1.5" d="M16.424 9.448V7.3a4.552 4.552 0 0 0-4.551-4.551 4.55 4.55 0 0 0-4.57 4.53v2.168"/><path stroke="currentColor" stroke-linecap="round" stroke-linejoin="round" stroke-width="1.5" d="M15.683 21.25h-7.64a3.792 3.792 0 0 1-3.793-3.792v-4.29a3.792 3.792 0 0 1 3.792-3.791h7.641a3.792 3.792 0 0 1 3.792 3.792v4.289a3.792 3.792 0 0 1-3.792 3.792Z" clip-rule="evenodd"/><path stroke="currentColor" stroke-linecap="round" stroke-linejoin="round" stroke-width="1.5" d="M11.863 14.203v2.22"/></symbol><symbol xmlns="http://www.w3.org/2000/svg" id="login" fill="none" viewBox="0 0 24 24"><path stroke="currentColor" stroke-linecap="round" stroke-linejoin="round" stroke-width="1.5" d="M15.813 12.022H3.77m9.115-2.916 2.928 2.916-2.928 2.916"/><path stroke="currentColor" stroke-linecap="round" stroke-linejoin="round" stroke-width="1.5" d="M8.504 7.389v-.933a3.684 3.684 0 0 1 3.685-3.684h4.884a3.675 3.675 0 0 1 3.675 3.675v11.14a3.685 3.685 0 0 1-3.685 3.685h-4.885a3.675 3.675 0 0 1-3.674-3.675v-.942"/></symbol><symbol xmlns="http://www.w3.org/2000/svg" id="logout" fill="none" viewBox="0 0 24 24"><path stroke="currentColor" stroke-linecap="round" stroke-linejoin="round" stroke-width="1.5" d="M15.016 7.39v-.934a3.685 3.685 0 0 0-3.685-3.685H6.456a3.685 3.685 0 0 0-3.684 3.685v11.13a3.685 3.685 0 0 0 3.684 3.686h4.885a3.675 3.675 0 0 0 3.675-3.674v-.944m6.794-4.633H9.769m9.112-2.915 2.928 2.915-2.928 2.916"/></symbol><symbol xmlns="http://www.w3.org/2000/svg" id="message" fill="none" viewBox="0 0 24 24"><path stroke="currentColor" stroke-linecap="round" stroke-linejoin="round" stroke-width="1.5" d="m17.903 8.851-4.444 3.613c-.84.666-2.02.666-2.86 0L6.12 8.851"/><path stroke="currentColor" stroke-linecap="round" stroke-linejoin="round" stroke-width="1.5" d="M16.909 21C19.95 21.008 22 18.51 22 15.438V8.57C22 5.499 19.95 3 16.909 3H7.09C4.05 3 2 5.499 2 8.57v6.868C2 18.51 4.05 21.008 7.091 21h9.818Z" clip-rule="evenodd"/></symbol><symbol xmlns="http://www.w3.org/2000/svg" id="moreCircle" fill="none" viewBox="0 0 24 24"><path stroke="currentColor" stroke-linecap="round" stroke-linejoin="round" stroke-width="1.5" d="M12 2.75a9.25 9.25 0 1 1 0 18.5 9.25 9.25 0 0 1 0-18.5Z" clip-rule="evenodd"/><path stroke="currentColor" stroke-linecap="round" stroke-linejoin="round" stroke-width="2" d="M15.94 12.013h.008m-4.018 0h.01m-4.018 0h.009"/></symbol><symbol xmlns="http://www.w3.org/2000/svg" id="moreSquare" fill="none" viewBox="0 0 24 24"><path stroke="currentColor" stroke-linecap="round" stroke-linejoin="round" stroke-width="1.5" d="M16.334 2.75H7.665c-3.02 0-4.915 2.14-4.915 5.166v8.168c0 3.027 1.884 5.166 4.915 5.166h8.668c3.031 0 4.917-2.139 4.917-5.166V7.916c0-3.027-1.886-5.166-4.916-5.166Z" clip-rule="evenodd"/><path stroke="currentColor" stroke-linecap="round" stroke-linejoin="round" stroke-width="2" d="M15.94 12.013h.008m-4.018 0h.01m-4.018 0h.009"/></symbol><symbol xmlns="http://www.w3.org/2000/svg" id="notification" fill="none" viewBox="0 0 24 24"><path stroke="currentColor" stroke-linecap="round" stroke-linejoin="round" stroke-width="1.5" d="M12 17.848c5.64 0 8.248-.724 8.5-3.627 0-2.902-1.819-2.716-1.819-6.276C18.681 5.165 16.045 2 12 2S5.319 5.164 5.319 7.945c0 3.56-1.819 3.374-1.819 6.275.253 2.915 2.862 3.628 8.5 3.628Z" clip-rule="evenodd"/><path stroke="currentColor" stroke-linecap="round" stroke-linejoin="round" stroke-width="1.5" d="M14.389 20.857c-1.364 1.515-3.492 1.533-4.87 0"/></symbol><symbol xmlns="http://www.w3.org/2000/svg" id="paper" fill="none" viewBox="0 0 24 24"><path stroke="currentColor" stroke-linecap="round" stroke-linejoin="round" stroke-width="1.5" d="M14.738 2.762H8.085A3.82 3.82 0 0 0 4.25 6.49v10.713a3.828 3.828 0 0 0 3.742 3.91c.03 0 .06.002.092 0h7.989a3.887 3.887 0 0 0 3.729-3.91V8.038l-5.065-5.276Z" clip-rule="evenodd"/><path stroke="currentColor" stroke-linecap="round" stroke-linejoin="round" stroke-width="1.5" d="M14.475 2.75v2.909a2.574 2.574 0 0 0 2.568 2.575h2.755m-5.51 7.124h-5.4m3.355-3.752H8.887"/></symbol><symbol xmlns="http://www.w3.org/2000/svg" id="paperDownload" fill="none" viewBox="0 0 24 24"><path stroke="currentColor" stroke-linecap="round" stroke-linejoin="round" stroke-width="1.5" d="M14.737 2.762H8.085A3.82 3.82 0 0 0 4.25 6.49v10.737a3.807 3.807 0 0 0 3.724 3.887h8.098a3.867 3.867 0 0 0 3.73-3.887v-9.19l-5.066-5.276Z" clip-rule="evenodd"/><path stroke="currentColor" stroke-linecap="round" stroke-linejoin="round" stroke-width="1.5" d="M14.475 2.75v2.91a2.575 2.575 0 0 0 2.569 2.574h2.754m-8.156 7.716V9.909m-2.346 3.686 2.345 2.354 2.345-2.354"/></symbol><symbol xmlns="http://www.w3.org/2000/svg" id="paperFail" fill="none" viewBox="0 0 24 24"><path stroke="currentColor" stroke-linecap="round" stroke-linejoin="round" stroke-width="1.5" d="M14.737 2.762H7.98a3.729 3.729 0 0 0-3.73 3.729V17.34a3.798 3.798 0 0 0 3.822 3.777l.118-.002h7.883a3.768 3.768 0 0 0 3.73-3.775v-9.3l-5.066-5.278Z" clip-rule="evenodd"/><path stroke="currentColor" stroke-linecap="round" stroke-linejoin="round" stroke-width="1.5" d="M14.474 2.75v2.91a2.574 2.574 0 0 0 2.568 2.574h2.755m-6.221 6.414-3.466-3.466m.001 3.466 3.466-3.466"/></symbol><symbol xmlns="http://www.w3.org/2000/svg" id="paperNegative" fill="none" viewBox="0 0 24 24"><path stroke="currentColor" stroke-linecap="round" stroke-linejoin="round" stroke-width="1.5" d="M14.737 2.762H8.085A3.819 3.819 0 0 0 4.25 6.49v10.85a3.714 3.714 0 0 0 3.65 3.777c.06 0 .123 0 .185-.002h7.988a3.769 3.769 0 0 0 3.73-3.775v-9.3l-5.066-5.278Z" clip-rule="evenodd"/><path stroke="currentColor" stroke-linecap="round" stroke-linejoin="round" stroke-width="1.5" d="M14.473 2.75v2.91a2.575 2.575 0 0 0 2.57 2.574h2.753m-5.503 5.513h-4.9"/></symbol><symbol xmlns="http://www.w3.org/2000/svg" id="paperPlus" fill="none" viewBox="0 0 24 24"><path stroke="currentColor" stroke-linecap="round" stroke-linejoin="round" stroke-width="1.5" d="M14.737 2.762H8.085A3.82 3.82 0 0 0 4.25 6.49v10.85a3.714 3.714 0 0 0 3.65 3.777c.06 0 .123 0 .185-.002h7.988a3.769 3.769 0 0 0 3.73-3.775v-9.3l-5.066-5.278Z" clip-rule="evenodd"/><path stroke="currentColor" stroke-linecap="round" stroke-linejoin="round" stroke-width="1.5" d="M14.474 2.75v2.91a2.575 2.575 0 0 0 2.57 2.574h2.753m-5.503 4.68h-4.9m2.451 2.45v-4.9"/></symbol><symbol xmlns="http://www.w3.org/2000/svg" id="paperUpload" fill="none" viewBox="0 0 24 24"><path stroke="currentColor" stroke-linecap="round" stroke-linejoin="round" stroke-width="1.5" d="M14.737 2.762H8.085A3.82 3.82 0 0 0 4.25 6.49v10.737a3.807 3.807 0 0 0 3.724 3.887h8.098a3.867 3.867 0 0 0 3.73-3.887v-9.19l-5.066-5.276Z" clip-rule="evenodd"/><path stroke="currentColor" stroke-linecap="round" stroke-linejoin="round" stroke-width="1.5" d="M14.475 2.75v2.91a2.575 2.575 0 0 0 2.569 2.574h2.754M11.64 9.909v6.04m2.347-3.685L11.642 9.91l-2.345 2.355"/></symbol><symbol xmlns="http://www.w3.org/2000/svg" id="password" fill="none" viewBox="0 0 24 24"><path stroke="currentColor" stroke-linecap="round" stroke-linejoin="round" stroke-width="1.5" d="M16.334 2.75H7.665c-3.021 0-4.915 2.14-4.915 5.166v8.168c0 3.027 1.885 5.166 4.915 5.166h8.668c3.031 0 4.917-2.139 4.917-5.166V7.916c0-3.027-1.886-5.166-4.916-5.166Z" clip-rule="evenodd"/><path stroke="currentColor" stroke-linecap="round" stroke-linejoin="round" stroke-width="1.5" d="M10.69 12a1.852 1.852 0 1 1-1.853-1.852h.003A1.852 1.852 0 0 1 10.69 12Z" clip-rule="evenodd"/><path stroke="currentColor" stroke-linecap="round" stroke-linejoin="round" stroke-width="1.5" d="M10.692 12h6.318v1.852m-2.828 0V12"/></symbol><symbol xmlns="http://www.w3.org/2000/svg" id="play" fill="none" viewBox="0 0 24 24"><path stroke="currentColor" stroke-linecap="round" stroke-linejoin="round" stroke-width="1.5" d="M12 2.5a9.5 9.5 0 0 1 0 19A9.5 9.5 0 0 1 2.5 12 9.5 9.5 0 0 1 12 2.5Z" clip-rule="evenodd"/><path stroke="currentColor" stroke-linecap="round" stroke-linejoin="round" stroke-width="1.5" d="M15 11.995c0-.811-4.158-3.406-4.63-2.94-.47.467-.516 5.369 0 5.88.518.512 4.63-2.129 4.63-2.94Z" clip-rule="evenodd"/></symbol><symbol xmlns="http://www.w3.org/2000/svg" id="plus" fill="none" viewBox="0 0 24 24"><path stroke="currentColor" stroke-linecap="round" stroke-linejoin="round" stroke-width="1.5" d="M12 8.327v7.327m3.667-3.664H8.333"/><path stroke="currentColor" stroke-linecap="round" stroke-linejoin="round" stroke-width="1.5" d="M16.686 2H7.314C4.048 2 2 4.312 2 7.585v8.83C2 19.688 4.038 22 7.314 22h9.372C19.962 22 22 19.688 22 16.415v-8.83C22 4.312 19.962 2 16.686 2Z" clip-rule="evenodd"/></symbol><symbol xmlns="http://www.w3.org/2000/svg" id="profile" fill="none" viewBox="0 0 24 24"><path stroke="currentColor" stroke-linecap="round" stroke-linejoin="round" stroke-width="1.5" d="M11.985 15.346c-3.868 0-7.17.585-7.17 2.927s3.281 2.948 7.17 2.948c3.867 0 7.17-.586 7.17-2.927s-3.282-2.948-7.17-2.948Z" clip-rule="evenodd"/><path stroke="currentColor" stroke-linecap="round" stroke-linejoin="round" stroke-width="1.429" d="M11.985 12.006A4.596 4.596 0 1 0 7.388 7.41a4.58 4.58 0 0 0 4.564 4.596h.033Z" clip-rule="evenodd"/></symbol><symbol xmlns="http://www.w3.org/2000/svg" id="scan" fill="none" viewBox="0 0 24 24"><path stroke="currentColor" stroke-linecap="round" stroke-linejoin="round" stroke-width="1.5" d="M22.5 12.806h-21m19.13-4.211V7.082a3.732 3.732 0 0 0-3.733-3.732h-1.205M3.37 8.595V7.082A3.732 3.732 0 0 1 7.103 3.35H8.34m12.29 9.455v4.074a3.733 3.733 0 0 1-3.733 3.733h-1.205M3.37 12.805v4.074a3.733 3.733 0 0 0 3.733 3.733H8.34"/></symbol><symbol xmlns="http://www.w3.org/2000/svg" id="search" fill="none" viewBox="0 0 24 24"><circle cx="11.767" cy="11.767" r="8.989" stroke="currentColor" stroke-linecap="round" stroke-linejoin="round" stroke-width="1.5"/><path stroke="currentColor" stroke-linecap="round" stroke-linejoin="round" stroke-width="1.5" d="M18.018 18.485 21.542 22"/></symbol><symbol xmlns="http://www.w3.org/2000/svg" id="send" fill="none" viewBox="0 0 24 24"><path stroke="currentColor" stroke-linecap="round" stroke-linejoin="round" stroke-width="1.5" d="m15.832 8.175-5.723 5.784-6.51-4.071c-.932-.584-.738-2 .317-2.31L19.37 3.054c.966-.283 1.862.62 1.575 1.589l-4.573 15.445c-.313 1.056-1.722 1.245-2.3.308l-3.967-6.435"/></symbol><symbol xmlns="http://www.w3.org/2000/svg" id="setting" fill="none" viewBox="0 0 24 24"><path stroke="currentColor" stroke-linecap="round" stroke-linejoin="round" stroke-width="1.5" d="m20.807 7.624-.623-1.08a1.913 1.913 0 0 0-2.608-.705v0a1.904 1.904 0 0 1-2.61-.678 1.832 1.832 0 0 1-.255-.915v0a1.913 1.913 0 0 0-1.914-1.968h-1.254A1.904 1.904 0 0 0 9.64 4.191v0a1.913 1.913 0 0 1-1.913 1.886 1.83 1.83 0 0 1-.916-.257v0a1.913 1.913 0 0 0-2.608.705l-.669 1.099a1.913 1.913 0 0 0 .696 2.608v0a1.913 1.913 0 0 1 0 3.314v0a1.904 1.904 0 0 0-.696 2.6v0l.632 1.089a1.913 1.913 0 0 0 2.609.741v0a1.895 1.895 0 0 1 2.6.696c.164.277.252.593.255.915v0c0 1.056.857 1.913 1.913 1.913h1.255a1.91 1.91 0 0 0 1.912-1.904v0a1.904 1.904 0 0 1 1.914-1.913c.321.009.636.097.915.256v0a1.913 1.913 0 0 0 2.609-.695v0l.659-1.099a1.904 1.904 0 0 0-.696-2.608v0a1.904 1.904 0 0 1-.696-2.609c.166-.29.406-.53.696-.696v0a1.913 1.913 0 0 0 .696-2.6v0-.008Z" clip-rule="evenodd"/><circle cx="12.175" cy="11.889" r="2.636" stroke="currentColor" stroke-linecap="round" stroke-linejoin="round" stroke-width="1.5"/></symbol><symbol xmlns="http://www.w3.org/2000/svg" id="shieldDone" fill="none" viewBox="0 0 24 24"><path stroke="currentColor" stroke-linecap="round" stroke-linejoin="round" stroke-width="1.5" d="M11.985 21.606s7.672-2.323 7.672-8.727c0-6.405.278-6.905-.337-7.521-.616-.616-6.33-2.608-7.335-2.608-1.006 0-6.72 1.992-7.334 2.608-.616.616-.338 1.116-.338 7.521 0 6.404 7.672 8.727 7.672 8.727Z" clip-rule="evenodd"/><path stroke="currentColor" stroke-linecap="round" stroke-linejoin="round" stroke-width="1.5" d="m9.386 11.875 1.892 1.895 3.898-3.9"/></symbol><symbol xmlns="http://www.w3.org/2000/svg" id="shieldFail" fill="none" viewBox="0 0 24 24"><path stroke="currentColor" stroke-linecap="round" stroke-linejoin="round" stroke-width="1.5" d="M11.985 21.606s7.672-2.323 7.672-8.727c0-6.405.278-6.905-.338-7.521-.615-.616-6.328-2.608-7.334-2.608-1.006 0-6.72 1.992-7.335 2.608-.615.616-.337 1.116-.337 7.521 0 6.404 7.672 8.727 7.672 8.727Z" clip-rule="evenodd"/><path stroke="currentColor" stroke-linecap="round" stroke-linejoin="round" stroke-width="1.5" d="m13.864 13.825-3.758-3.758m0 3.758 3.758-3.758"/></symbol><symbol xmlns="http://www.w3.org/2000/svg" id="show" fill="none" viewBox="0 0 24 24"><path stroke="currentColor" stroke-linecap="round" stroke-linejoin="round" stroke-width="1.5" d="M15.161 12.053a3.162 3.162 0 1 1-6.323-.001 3.162 3.162 0 0 1 6.323.001Z" clip-rule="evenodd"/><path stroke="currentColor" stroke-linecap="round" stroke-linejoin="round" stroke-width="1.5" d="M11.998 19.355c3.808 0 7.291-2.738 9.252-7.302-1.961-4.564-5.444-7.302-9.252-7.302h.004c-3.808 0-7.291 2.738-9.252 7.302 1.961 4.564 5.444 7.302 9.252 7.302h-.004Z" clip-rule="evenodd"/></symbol><symbol xmlns="http://www.w3.org/2000/svg" id="star" fill="none" viewBox="0 0 24 24"><path stroke="currentColor" stroke-linecap="round" stroke-linejoin="round" stroke-width="1.5" d="m13.104 4.177 1.828 3.65c.179.36.524.608.925.665l4.088.589c1.01.145 1.412 1.37.681 2.07l-2.956 2.841c-.29.28-.423.681-.354 1.076l.698 4.01c.172.992-.884 1.749-1.787 1.28l-3.654-1.895a1.248 1.248 0 0 0-1.146 0l-3.654 1.894c-.903.47-1.959-.287-1.786-1.28l.697-4.01a1.203 1.203 0 0 0-.354-1.075l-2.956-2.84c-.731-.701-.33-1.926.68-2.071l4.089-.589c.4-.057.747-.306.926-.664l1.827-3.651c.452-.903 1.756-.903 2.208 0Z" clip-rule="evenodd"/></symbol><symbol xmlns="http://www.w3.org/2000/svg" id="swap" fill="none" viewBox="0 0 24 24"><path stroke="currentColor" stroke-linecap="round" stroke-linejoin="round" stroke-width="1.5" d="M16.84 20.164V6.546m4.077 9.522-4.078 4.097-4.077-4.097M6.911 3.833V17.45M2.833 7.929l4.078-4.097L10.99 7.93"/></symbol><symbol xmlns="http://www.w3.org/2000/svg" id="ticket" fill="none" viewBox="0 0 24 24"><path stroke="currentColor" stroke-linecap="round" stroke-linejoin="round" stroke-width="1.5" d="M13.85 4.25v2.42m0 11.09v2.024m0-5.459V9.504"/><path stroke="currentColor" stroke-linecap="round" stroke-linejoin="round" stroke-width="1.5" d="M18.702 20C20.524 20 22 18.543 22 16.743v-2.592A2.159 2.159 0 0 1 19.823 12c0-1.19.971-2.15 2.177-2.15l-.001-2.594c0-1.8-1.477-3.257-3.298-3.257H5.3C3.478 4 2 5.457 2 7.257v2.678c1.206 0 2.177.875 2.177 2.066A2.16 2.16 0 0 1 2 14.151v2.592C2 18.543 3.476 20 5.298 20h13.404Z" clip-rule="evenodd"/></symbol><symbol xmlns="http://www.w3.org/2000/svg" id="ticketStar" fill="none" viewBox="0 0 24 24"><path stroke="currentColor" stroke-linecap="round" stroke-linejoin="round" stroke-width="1.5" d="M17.857 20.417a3.393 3.393 0 0 0 3.393-3.39v-2.704a2.24 2.24 0 0 1 0-4.478h0v-2.7a3.392 3.392 0 0 0-3.388-3.396H6.144A3.394 3.394 0 0 0 2.75 7.142v2.791a2.162 2.162 0 0 1 2.24 2.152 2.237 2.237 0 0 1-2.234 2.24H2.75v2.7a3.392 3.392 0 0 0 3.391 3.392h11.716Z" clip-rule="evenodd"/><path stroke="currentColor" stroke-linecap="round" stroke-linejoin="round" stroke-width="1.5" d="m12.371 9.063.616 1.247c.06.122.176.207.311.227l1.377.201c.341.05.476.468.23.707l-.996.97a.417.417 0 0 0-.12.367l.235 1.37a.414.414 0 0 1-.6.437l-1.232-.647a.412.412 0 0 0-.386 0l-1.23.647a.415.415 0 0 1-.602-.437l.235-1.37a.414.414 0 0 0-.12-.367l-.995-.97a.414.414 0 0 1 .23-.707l1.376-.2a.416.416 0 0 0 .312-.228l.615-1.247a.415.415 0 0 1 .744 0Z" clip-rule="evenodd"/></symbol><symbol xmlns="http://www.w3.org/2000/svg" id="tickSquare" fill="none" viewBox="0 0 24 24"><path stroke="currentColor" stroke-linecap="round" stroke-linejoin="round" stroke-width="1.5" d="M16.334 2.75H7.665c-3.02 0-4.915 2.14-4.915 5.166v8.168c0 3.027 1.885 5.166 4.915 5.166h8.669c3.03 0 4.916-2.139 4.916-5.166V7.916c0-3.027-1.886-5.166-4.916-5.166Z" clip-rule="evenodd"/><path stroke="currentColor" stroke-linecap="round" stroke-linejoin="round" stroke-width="1.5" d="m8.44 12 2.374 2.373 4.746-4.746"/></symbol><symbol xmlns="http://www.w3.org/2000/svg" id="timeCircle" fill="none" viewBox="0 0 24 24"><path stroke="currentColor" stroke-linecap="round" stroke-linejoin="round" stroke-width="1.5" d="M21.25 12A9.25 9.25 0 0 1 12 21.25 9.25 9.25 0 0 1 2.75 12 9.25 9.25 0 0 1 12 2.75 9.25 9.25 0 0 1 21.25 12Z" clip-rule="evenodd"/><path stroke="currentColor" stroke-linecap="round" stroke-linejoin="round" stroke-width="1.5" d="m15.431 14.943-3.77-2.25V7.848"/></symbol><symbol xmlns="http://www.w3.org/2000/svg" id="timeSquare" fill="none" viewBox="0 0 24 24"><path stroke="currentColor" stroke-linecap="round" stroke-linejoin="round" stroke-width="1.5" d="M16.335 2.75h-8.67c-3.02 0-4.914 2.14-4.914 5.166v8.168c0 3.027 1.884 5.166 4.915 5.166h8.668c3.03 0 4.917-2.139 4.917-5.166V7.916c0-3.027-1.886-5.166-4.916-5.166Z" clip-rule="evenodd"/><path stroke="currentColor" stroke-linecap="round" stroke-linejoin="round" stroke-width="1.5" d="m15.391 14.018-3.39-2.023V7.634"/></symbol><symbol xmlns="http://www.w3.org/2000/svg" id="unlock" fill="none" viewBox="0 0 24 24"><path stroke="currentColor" stroke-linecap="round" stroke-linejoin="round" stroke-width="1.5" d="M16.424 5.562A4.554 4.554 0 0 0 12.122 2.5a4.551 4.551 0 0 0-4.57 4.531v2.167"/><path stroke="currentColor" stroke-linecap="round" stroke-linejoin="round" stroke-width="1.5" d="M15.933 21H8.292A3.793 3.793 0 0 1 4.5 17.207V12.92a3.793 3.793 0 0 1 3.792-3.793h7.641a3.793 3.793 0 0 1 3.792 3.793v4.288A3.793 3.793 0 0 1 15.933 21Z" clip-rule="evenodd"/><path stroke="currentColor" stroke-linecap="round" stroke-linejoin="round" stroke-width="1.5" d="M12.113 13.953v2.222"/></symbol><symbol xmlns="http://www.w3.org/2000/svg" id="upload" fill="none" viewBox="0 0 24 24"><path stroke="currentColor" stroke-linecap="round" stroke-linejoin="round" stroke-width="1.5" d="M7.39 8.984h-.934a3.685 3.685 0 0 0-3.685 3.685v4.875a3.685 3.685 0 0 0 3.685 3.684h11.13a3.685 3.685 0 0 0 3.686-3.684v-4.885a3.675 3.675 0 0 0-3.674-3.675h-.944M12.021 2.19v12.042M9.106 5.119l2.915-2.928 2.916 2.928"/></symbol><symbol xmlns="http://www.w3.org/2000/svg" id="video" fill="none" viewBox="0 0 24 24"><path stroke="currentColor" stroke-linecap="round" stroke-linejoin="round" stroke-width="1.5" d="M16.297 15.538c.08 1.832-1.398 3.382-3.302 3.46-.14.005-6.98-.008-6.98-.008-1.895.144-3.554-1.218-3.703-3.044-.012-.136-.009-7.474-.009-7.474-.084-1.834 1.393-3.387 3.299-3.468.142-.007 6.972.006 6.972.006 1.904-.142 3.568 1.23 3.716 3.064.01.132.007 7.464.007 7.464Z" clip-rule="evenodd"/><path stroke="currentColor" stroke-linecap="round" stroke-linejoin="round" stroke-width="1.5" d="m16.3 9.98 3.293-2.695c.816-.668 2.04-.086 2.039.967L21.62 15.6c-.001 1.053-1.226 1.63-2.04.962l-3.28-2.695"/></symbol><symbol xmlns="http://www.w3.org/2000/svg" id="voice" fill="none" viewBox="0 0 24 24"><path stroke="currentColor" stroke-linecap="round" stroke-linejoin="round" stroke-width="1.5" d="M12 22v-3.161"/><path stroke="currentColor" stroke-linecap="round" stroke-linejoin="round" stroke-width="1.5" d="M12 14.848v0c-2.243 0-4.062-1.826-4.062-4.08V6.081C7.938 3.827 9.757 2 12 2c2.244 0 4.062 1.827 4.062 4.08v4.688A4.07 4.07 0 0 1 12 14.848Z" clip-rule="evenodd"/><path stroke="currentColor" stroke-linecap="round" stroke-linejoin="round" stroke-width="1.5" d="M20 10.8c0 4.44-3.581 8.038-8 8.038-4.419 0-8-3.599-8-8.037"/></symbol><symbol xmlns="http://www.w3.org/2000/svg" id="voice3" fill="none" viewBox="0 0 24 24"><path stroke="currentColor" stroke-linecap="round" stroke-linejoin="round" stroke-width="1.5" d="M12 22v-3.161"/><path stroke="currentColor" stroke-linecap="round" stroke-linejoin="round" stroke-width="1.5" d="M12 14.848v0a4.07 4.07 0 0 1-4.062-4.08V6.081C7.938 3.827 9.756 2 12 2c2.243 0 4.061 1.827 4.061 4.08v4.688c0 2.254-1.818 4.08-4.06 4.08Z" clip-rule="evenodd"/><path stroke="currentColor" stroke-linecap="round" stroke-linejoin="round" stroke-width="1.5" d="M20 10.8c0 4.44-3.582 8.038-8 8.038-4.42 0-8-3.599-8-8.037m10.069-4.045h1.99m-2.989 3.337h2.99"/></symbol><symbol xmlns="http://www.w3.org/2000/svg" id="volumeDown" fill="none" viewBox="0 0 24 24"><path stroke="currentColor" stroke-linecap="round" stroke-linejoin="round" stroke-width="1.5" d="M4.002 12c-.003 1.23-.058 2.907.703 3.534.71.585 1.209.434 2.504.53 1.297.095 4.033 3.906 6.142 2.7 1.088-.855 1.17-2.649 1.17-6.764s-.082-5.909-1.17-6.764C11.242 4.029 8.506 7.84 7.21 7.937c-1.295.095-1.794-.055-2.504.53C3.946 9.093 4 10.77 4.003 12Z" clip-rule="evenodd"/><path stroke="currentColor" stroke-linecap="round" stroke-linejoin="round" stroke-width="1.5" d="M18.581 8.314a7.399 7.399 0 0 1 0 7.372"/></symbol><symbol xmlns="http://www.w3.org/2000/svg" id="volumeOff" fill="none" viewBox="0 0 24 24"><path stroke="currentColor" stroke-linecap="round" stroke-linejoin="round" stroke-width="1.5" d="m14.533 9.467-6.82 6.82c-.177-.103-.345-.168-.494-.177-1.297-.094-1.8.056-2.51-.55-.764-.654-.708-2.399-.708-3.677s-.056-3.022.709-3.675c.709-.607 1.212-.448 2.51-.55 1.296-.103 4.038-4.06 6.156-2.809.858.7 1.091 2.006 1.157 4.618Z" clip-rule="evenodd"/><path stroke="currentColor" stroke-linecap="round" stroke-linejoin="round" stroke-width="1.5" d="M14.533 13.917c-.037 2.874-.261 4.273-1.157 5-.98.58-2.09.047-3.134-.708M4.001 20l3.713-3.713 6.82-6.82L20 4"/></symbol><symbol xmlns="http://www.w3.org/2000/svg" id="volumeUp" fill="none" viewBox="0 0 24 24"><path stroke="currentColor" stroke-linecap="round" stroke-linejoin="round" stroke-width="1.5" d="M2.502 12c-.003 1.23-.058 2.907.703 3.534.71.585 1.209.434 2.504.53 1.297.095 4.033 3.906 6.142 2.7 1.088-.855 1.17-2.649 1.17-6.764s-.082-5.909-1.17-6.764C9.741 4.029 7.006 7.84 5.71 7.937c-1.295.095-1.794-.055-2.504.53-.76.626-.706 2.303-.703 3.533Z" clip-rule="evenodd"/><path stroke="currentColor" stroke-linecap="round" stroke-linejoin="round" stroke-width="1.5" d="M19.584 5.904a10.656 10.656 0 0 1 0 12.192m-2.503-9.782a7.399 7.399 0 0 1 0 7.372"/></symbol><symbol xmlns="http://www.w3.org/2000/svg" id="wallet" fill="none" viewBox="0 0 24 24"><path stroke="currentColor" stroke-linecap="round" stroke-linejoin="round" stroke-width="1.5" d="M21.639 14.396H17.59a2.693 2.693 0 0 1-2.693-2.692 2.693 2.693 0 0 1 2.693-2.69h4.048m-3.589 2.629h-.312"/><path stroke="currentColor" stroke-linecap="round" stroke-linejoin="round" stroke-width="1.5" d="M7.748 3h8.643a5.248 5.248 0 0 1 5.248 5.248v7.177a5.248 5.248 0 0 1-5.248 5.247H7.748A5.248 5.248 0 0 1 2.5 15.425V8.248A5.248 5.248 0 0 1 7.748 3Z" clip-rule="evenodd"/><path stroke="currentColor" stroke-linecap="round" stroke-linejoin="round" stroke-width="1.5" d="M7.036 7.538h5.399"/></symbol><symbol xmlns="http://www.w3.org/2000/svg" id="work" fill="none" viewBox="0 0 24 24"><path stroke="currentColor" stroke-linecap="round" stroke-linejoin="round" stroke-width="1.5" d="M11.995 16.677V14.14"/><path stroke="currentColor" stroke-linecap="round" stroke-linejoin="round" stroke-width="1.5" d="M18.19 5.33c1.69 0 3.05 1.37 3.05 3.06v3.44c-2.46 1.44-5.71 2.31-9.25 2.31s-6.78-.87-9.24-2.31V8.38c0-1.69 1.37-3.05 3.06-3.05h12.38Z" clip-rule="evenodd"/><path stroke="currentColor" stroke-linecap="round" stroke-linejoin="round" stroke-width="1.5" d="M15.495 5.326V4.96c0-1.22-.99-2.21-2.21-2.21h-2.58c-1.22 0-2.21.99-2.21 2.21v.366M2.774 15.483l.19 2.509a3.242 3.242 0 0 0 3.231 2.998h11.6a3.242 3.242 0 0 0 3.231-2.998l.19-2.51"/></symbol><symbol xmlns="http://www.w3.org/2000/svg" id="alif" fill="none" viewBox="0 0 30 36"><mask id="a" width="30" height="36" x="0" y="0" maskUnits="userSpaceOnUse"><path fill="currentColor" d="M30 0H0v36h30V0Z"/></mask><g mask="url(#a)"><path fill="currentColor" fill-rule="evenodd" d="M16.301 35.92a17.859 17.859 0 0 1-6.834-2.05C5.442 31.667 2.328 27.946.885 23.238A17.658 17.658 0 0 1 2.404 9.72C5.29 4.405 10.834.76 16.757 0h.152l1.519 3.797h-.152C13.264 4.101 8.25 7.063 5.82 11.543c-1.746 3.114-2.202 6.91-1.139 10.556a13.619 13.619 0 0 0 6.683 8.277c1.67.912 3.493 1.443 5.392 1.671 4.177.38 8.05-.987 11.087-3.417.152-.152.304-.228.456-.38l1.519 3.797A19.509 19.509 0 0 1 16.3 35.92Zm4.101-27.035h-4.784L9.315 24.453h4.1l4.633-12.075 4.632 12.075h4.101L20.402 8.885Z" clip-rule="evenodd"/></g></symbol><symbol xmlns="http://www.w3.org/2000/svg" id="bag2" fill="none" viewBox="0 0 24 24"><path fill="currentColor" fill-rule="evenodd" d="M16.418 6.47h.205c2.692 0 4.877 2.25 4.877 5.01V17c0 2.76-2.185 5-4.877 5H7.377C4.685 22 2.5 19.76 2.5 17v-5.52c0-2.76 2.185-5.01 4.877-5.01h.205a4.57 4.57 0 0 1 1.307-3.16c.838-.85 1.911-1.28 3.12-1.31 2.42 0 4.38 2 4.41 4.47ZM9.913 4.38c-.546.56-.849 1.3-.868 2.09h5.91C14.926 4.83 13.62 3.5 12.01 3.5c-.751 0-1.532.31-2.097.88Zm5.793 5.94a.74.74 0 0 0 .732-.75V8.41a.74.74 0 0 0-.732-.75c-.4 0-.731.34-.731.75v1.16c0 .41.332.75.731.75Zm-6.769-.75a.74.74 0 0 1-.731.75c-.4 0-.732-.34-.732-.75V8.41c0-.41.332-.75.732-.75.41 0 .731.34.731.75v1.16Z" clip-rule="evenodd"/></symbol><symbol xmlns="http://www.w3.org/2000/svg" id="chat2" fill="none" viewBox="0 0 24 24"><path fill="currentColor" fill-rule="evenodd" d="M2 12.015C2 6.747 6.21 2 12.02 2 17.7 2 22 6.657 22 11.985 22 18.165 16.96 22 12 22c-1.64 0-3.46-.44-4.92-1.302-.51-.31-.94-.54-1.49-.36l-2.02.6c-.51.16-.97-.24-.82-.78l.67-2.244c.11-.31.09-.641-.07-.902C2.49 15.43 2 13.697 2 12.015Zm8.7 0c0 .711.57 1.282 1.28 1.292a1.283 1.283 0 0 0 0-2.564c-.7-.01-1.28.571-1.28 1.272Zm4.61.01c0 .701.57 1.282 1.28 1.282a1.283 1.283 0 0 0 0-2.564c-.71 0-1.28.571-1.28 1.282Zm-7.94 1.282c-.7 0-1.28-.58-1.28-1.282 0-.711.57-1.282 1.28-1.282.71 0 1.28.571 1.28 1.282a1.29 1.29 0 0 1-1.28 1.282Z" clip-rule="evenodd"/></symbol><symbol xmlns="http://www.w3.org/2000/svg" id="danger" fill="none" viewBox="0 0 24 24"><path fill="currentColor" fill-rule="evenodd" d="m14.477 4.442 7.269 12.615c.16.377.23.683.25 1.001a2.76 2.76 0 0 1-.73 2.021 2.84 2.84 0 0 1-1.95.921H4.68c-.31-.019-.62-.09-.91-.198-1.45-.585-2.15-2.23-1.56-3.656L9.53 4.433a2.73 2.73 0 0 1 1.099-1.08 2.85 2.85 0 0 1 3.85 1.09Zm-1.61 8.314c0 .475-.39.873-.87.873a.885.885 0 0 1-.88-.873V9.952c0-.476.4-.862.88-.862s.87.386.87.862v2.804Zm-.87 4.262a.884.884 0 0 1-.88-.872c0-.477.4-.873.88-.873s.87.387.87.862c0 .485-.39.883-.87.883Z" clip-rule="evenodd"/></symbol><symbol xmlns="http://www.w3.org/2000/svg" id="dc" fill="none" viewBox="0 0 39 17"><g clip-path="url(#a)"><mask id="b" width="39" height="17" x="0" y="0" maskUnits="userSpaceOnUse"><path fill="currentColor" d="M38.55.25H.45v16.5h38.1V.25Z"/></mask><g fill="currentColor" mask="url(#b)"><path fill-rule="evenodd" d="M8.1 10.228h.005l.485-3.554.677-4.989H5.09l-1.16 8.543-.179 1.32h.014l-.103.756a6.523 6.523 0 0 1 3.048-.756h1.223l.15-1.102H8.07l.03-.218Zm1.716-4.446h3.216c1.374 0 2.344 1.13 2.154 2.512l-.25 1.84c-.187 1.384-1.463 2.512-2.836 2.512h1.027a6.597 6.597 0 0 0 3.748-1.183 6.665 6.665 0 0 0 2.425-3.11c.02-3.57-2.91-6.672-6.628-6.672h-2.299l-.557 4.101Z" clip-rule="evenodd"/><path fill-rule="evenodd" d="M2.14 14.356A6.646 6.646 0 0 0 .45 16.75h12.01a6.584 6.584 0 0 0 4.323-1.631 6.665 6.665 0 0 0 2.208-4.082l.25-1.838a6.45 6.45 0 0 0 .06-.841 6.665 6.665 0 0 1-2.425 3.11 6.598 6.598 0 0 1-3.749 1.184h-6.58a6.567 6.567 0 0 0-4.407 1.709M27.275 8.01h-3.061c-.97 0-1.657-.8-1.524-1.778l.176-1.302c.133-.976 1.036-1.777 2.008-1.777h-.728a4.667 4.667 0 0 0-2.65.838 4.714 4.714 0 0 0-1.715 2.2c-.014 2.527 2.059 4.72 4.688 4.72h3.406l.394-2.903-.994.002Zm1.385 2.902h.802l.395-2.902h-.803l-.394 2.902Z" clip-rule="evenodd"/><path fill-rule="evenodd" d="M30.701 1.945A4.715 4.715 0 0 0 31.897.25h-7.279a4.659 4.659 0 0 0-3.06 1.154 4.716 4.716 0 0 0-1.562 2.889l-.177 1.301a4.498 4.498 0 0 0-.042.595 4.714 4.714 0 0 1 1.714-2.2 4.667 4.667 0 0 1 2.651-.839h3.434a4.648 4.648 0 0 0 3.12-1.207" clip-rule="evenodd"/><path d="M33.378 10.608a.296.296 0 0 1-.085.218.298.298 0 0 1-.217.086h-1.027a.286.286 0 0 1-.218-.085.293.293 0 0 1-.085-.22V7.116a.296.296 0 0 1 .085-.22.29.29 0 0 1 .218-.084h1.027a.291.291 0 0 1 .302.304v.945h-.363v-.927h-.906v3.457h.906V9.58h.363v1.028Zm1.02.304h-.363V6.81h.363v4.1Zm2.078-3.78h-.63v3.78h-.362v-3.78h-.634v-.325h1.627v.326Zm2.074-.298-.498 1.658a9.598 9.598 0 0 0-.249.832v1.588h-.362V9.324a2.82 2.82 0 0 0-.113-.42c-.081-.251-.129-.388-.136-.412l-.498-1.658v-.023h.371l.566 2.051.562-2.051h.363v.023M22.964 16.01a.718.718 0 0 1-.746.74h-.93v-4.09h.93a.723.723 0 0 1 .696.452.73.73 0 0 1 .05.288v2.61Zm-.362-.036V13.43a.435.435 0 0 0-.127-.325.443.443 0 0 0-.323-.124h-.501v3.448h.48a.483.483 0 0 0 .341-.122.427.427 0 0 0 .131-.334h-.002Zm2.68.473a.293.293 0 0 1-.085.218.29.29 0 0 1-.216.082h-1.083a.284.284 0 0 1-.218-.085.29.29 0 0 1-.083-.219V12.66h.36v3.77h.963v-3.77h.363v3.787Zm2.234 0a.29.29 0 0 1-.184.284.285.285 0 0 1-.118.02h-.997a.289.289 0 0 1-.301-.304v-1.025h.36v1.008h.879v-.977l-1.123-1.362a.474.474 0 0 1-.116-.31v-.813a.293.293 0 0 1 .184-.284.287.287 0 0 1 .117-.02h.997a.285.285 0 0 1 .283.185.29.29 0 0 1 .019.119v.939h-.361v-.925h-.878v.864l1.131 1.36a.47.47 0 0 1 .112.306l-.004.935Zm2.34.303h-.361v-1.965h-.98v1.965h-.36v-4.09h.36v1.799h.98V12.66h.36v4.09Zm2.287 0h-.357l-.143-.905h-.808l-.143.905h-.346v-.01l.723-4.09h.357l.717 4.1Zm-.547-1.226-.356-2.22-.36 2.22h.716Zm2.71 1.226h-.249l-1.085-3.01v3.01h-.341v-4.09h.27l1.065 2.956V12.66h.34v4.09Zm2.274-.303a.29.29 0 0 1-.302.303h-1.323v-4.09h1.315a.293.293 0 0 1 .218.082.293.293 0 0 1 .08.218v1.34c0 .074-.047.135-.144.185l-.285.118.306.131a.182.182 0 0 1 .134.172v1.54Zm-.372-2.238v-1.227h-.891v1.471h.535l.356-.244Zm.01 2.22v-1.418l-.366-.244h-.538v1.66l.905.003Zm2.33.321h-1.334v-4.09h1.32v.326h-.957v1.525h.872v.325h-.872v1.596h.97v.318Z"/></g></g></symbol><symbol xmlns="http://www.w3.org/2000/svg" id="filter2" fill="none" viewBox="0 0 24 24"><path fill="currentColor" fill-rule="evenodd" d="M4.128 2h15.744C21.048 2 22 2.981 22 4.192v1.532c0 .587-.23 1.152-.637 1.563l-6.505 6.58a.586.586 0 0 1-.423.177l-5.446-.017a.591.591 0 0 1-.437-.195L2.575 7.257A2.23 2.23 0 0 1 2 5.757V4.194C2 2.983 2.952 2 4.128 2ZM9.28 15.824l4.855.015a.558.558 0 0 1 .547.565v2.731a.799.799 0 0 1-.453.725l-4.406 2.069a.76.76 0 0 1-.739-.055.802.802 0 0 1-.355-.67V16.39c0-.312.247-.566.551-.565Z" clip-rule="evenodd"/></symbol><symbol xmlns="http://www.w3.org/2000/svg" id="home2" fill="none" viewBox="0 0 24 24"><path stroke="currentColor" stroke-linecap="round" stroke-linejoin="round" stroke-width="1.5" d="M9 17h6M3 14.6v-2.47c0-1.149 0-1.723.148-2.252a4 4 0 0 1 .636-1.3c.327-.442.78-.794 1.687-1.5l2.6-2.022c1.405-1.093 2.108-1.64 2.884-1.85a4 4 0 0 1 2.09 0c.776.21 1.479.757 2.884 1.85l2.6 2.022c.907.706 1.36 1.058 1.687 1.5.29.39.505.832.636 1.3.148.53.148 1.103.148 2.252v2.47c0 2.24 0 3.36-.436 4.216a4 4 0 0 1-1.748 1.748C17.96 21 16.84 21 14.6 21H9.4c-2.24 0-3.36 0-4.216-.436a4 4 0 0 1-1.748-1.748C3 17.96 3 16.84 3 14.6Z"/></symbol><symbol xmlns="http://www.w3.org/2000/svg" id="image2" fill="none" viewBox="0 0 24 24"><path fill="currentColor" fill-rule="evenodd" d="M7.638 3.395c-2.577 0-4.242 1.767-4.242 4.493v8.214c0 .765.142 1.448.385 2.04l.537-.656 1.44-1.752c.692-.79 1.99-1.968 3.696-1.255.373.155.705.368 1.01.563l.09.056c.572.383.91.563 1.26.533.145-.02.28-.063.41-.143.486-.3 1.748-2.087 2.126-2.622l.104-.147c1.09-1.42 2.77-1.8 4.17-.96.188.112 1.535 1.053 1.98 1.431V7.888c0-2.726-1.665-4.493-4.25-4.493H7.638ZM16.354 2C19.73 2 22 4.362 22 7.888v8.214c0 .09-.01.172-.02.255-.006.059-.012.117-.015.177a3.641 3.641 0 0 0-.005.11 2.726 2.726 0 0 1-.007.145.554.554 0 0 1-.009.056c-.004.018-.008.036-.01.055a6.805 6.805 0 0 1-.155.905c-.016.073-.036.143-.055.214l-.005.015c-.08.282-.174.551-.287.808a4.55 4.55 0 0 1-.061.128l-.041.084c-.122.245-.254.48-.407.698a2.35 2.35 0 0 1-.09.117l-.058.075a5.073 5.073 0 0 1-.513.582 1.854 1.854 0 0 1-.12.101l-.075.062a5.05 5.05 0 0 1-.607.461c-.047.03-.097.055-.147.08a1.448 1.448 0 0 0-.096.05 5.316 5.316 0 0 1-.688.332c-.058.023-.12.039-.183.055a2.805 2.805 0 0 0-.131.036l-.065.02a5.095 5.095 0 0 1-.667.175c-.136.024-.28.033-.423.042a9.364 9.364 0 0 0-.186.013c-.067.005-.132.013-.197.021a2.613 2.613 0 0 1-.323.026H7.638c-.376 0-.735-.038-1.082-.095l-.037-.006c-1.353-.233-2.476-.886-3.263-1.87-.006 0-.008-.004-.011-.01a.048.048 0 0 0-.007-.01C2.447 19.013 2 17.674 2 16.102V7.888C2 4.362 4.27 2 7.638 2h8.716ZM11 8.515C11 9.87 9.866 11 8.505 11a2.52 2.52 0 0 1-2.446-2.006A2.409 2.409 0 0 1 6 8.469a2.475 2.475 0 0 1 4.26-1.707c.455.451.74 1.074.74 1.753Z" clip-rule="evenodd"/></symbol><symbol xmlns="http://www.w3.org/2000/svg" id="infoCircle" fill="none" viewBox="0 0 24 24"><path fill="currentColor" fill-rule="evenodd" d="M2 12C2 6.48 6.48 2 12 2c5.53 0 10 4.48 10 10s-4.47 10-10 10C6.48 22 2 17.52 2 12Zm9.12-3.79c0-.48.4-.88.88-.88s.87.4.87.88v4.42a.87.87 0 0 1-.87.87.879.879 0 0 1-.88-.87V8.21Zm.89 8.47c-.49 0-.88-.4-.88-.88s.39-.87.87-.87c.49 0 .88.39.88.87s-.39.88-.87.88Z" clip-rule="evenodd"/></symbol><symbol xmlns="http://www.w3.org/2000/svg" id="logo" fill="none" viewBox="0 0 240 103"><path fill="currentColor" fill-rule="evenodd" d="M47.72 55.559h.036l3.153-23.101L55.312.026h-27.16l-7.54 55.533-1.167 8.584h.09l-.668 4.913a42.397 42.397 0 0 1 19.815-4.913h7.95l.972-7.161h-.079l.195-1.423Zm11.16-28.898h20.907c8.933 0 15.238 7.346 14.003 16.326l-1.623 11.969c-1.219 8.991-9.516 16.327-18.438 16.327h6.673a42.895 42.895 0 0 0 24.367-7.691 43.321 43.321 0 0 0 15.761-20.224C120.662 20.161 101.615 0 77.444 0H62.5l-3.62 26.66Z" clip-rule="evenodd"/><path fill="currentColor" fill-rule="evenodd" d="M10.982 87.258A43.21 43.21 0 0 0 0 102.823h78.07a42.805 42.805 0 0 0 28.106-10.605 43.327 43.327 0 0 0 14.351-26.533l1.624-11.948c.248-1.812.378-3.639.388-5.468a43.325 43.325 0 0 1-15.762 20.223 42.89 42.89 0 0 1-24.366 7.691H39.634a42.695 42.695 0 0 0-28.652 11.106m217.102-4.769c4.173 2.482 7.457 5.554 9.612 8.989h-68.337c-9.043-.011-17.776-2.186-24.602-6.125-6.825-3.939-11.284-9.38-12.562-15.325l-1.421-6.9a16.146 16.146 0 0 1-.34-3.158c2.716 4.73 7.526 8.802 13.797 11.68 6.27 2.878 13.706 4.427 21.328 4.442h37.444c9.266.007 18.2 2.292 25.081 6.414" clip-rule="evenodd"/><g clip-path="url(#a)"><path fill="currentColor" d="M160.52 44.191c1.564 0 2.723.618 3.476 1.853.753 1.236 1.129 2.723 1.129 4.46 0 1.719-.222 4.325-.666 7.82h-5.068l-.637-6.719c-.116-1.158-.27-1.93-.464-2.317-.193-.386-.521-.58-.984-.58-1.101 0-1.719.976-1.854 2.926l-.492 6.69h-5.155l-.637-6.719c-.116-1.158-.271-1.93-.464-2.317-.193-.386-.521-.58-.984-.58-1.139 0-1.757.976-1.854 2.926l-.289 6.69h-5.329l-.608-13.727h6.545l-.116 2.75a6.04 6.04 0 0 0 .145-.318c.077-.154.251-.415.521-.782.29-.367.608-.685.956-.956.347-.27.82-.52 1.419-.752a5.561 5.561 0 0 1 1.969-.348c1.12 0 2.027.357 2.723 1.072.714.714 1.177 1.506 1.39 2.374.289-.482.54-.868.753-1.158.212-.29.531-.637.955-1.043.869-.83 2.076-1.245 3.62-1.245Zm11.308 14.423c-1.487 0-2.713-.435-3.678-1.304-.946-.869-1.419-2.095-1.419-3.678 0-1.602.54-2.76 1.621-3.475 1.082-.734 2.385-1.1 3.91-1.1 1.525 0 2.848.24 3.968.724-.251-1.603-1.265-2.404-3.041-2.404-.811 0-1.815.164-3.012.492l-.724-2.606c1.738-.715 3.504-1.072 5.3-1.072 5.174 0 7.761 2.201 7.761 6.603 0 1.506-.174 3.591-.521 6.256l-.145 1.274h-4.778l-.174-1.593c-1.313 1.255-3.002 1.883-5.068 1.883Zm2.606-3.592c.869 0 1.612-.24 2.23-.724l-.174-1.911a2.815 2.815 0 0 0-1.621-.492c-.58 0-1.062.144-1.448.434-.367.29-.551.647-.551 1.072 0 .424.145.8.435 1.13.289.327.666.491 1.129.491Zm16.236-8.543c1.023-1.525 2.288-2.288 3.794-2.288a3.85 3.85 0 0 1 1.969.521l-.695 4.75a4.437 4.437 0 0 0-2.606-.811c-.927 0-1.555.386-1.883 1.158a5.764 5.764 0 0 0-.376 1.39l-.551 7.125h-5.213l-.868-13.727h5.705l.724 1.882Zm17.816 11.845a1128.71 1128.71 0 0 1-4.866-4.72l-.202 4.72h-5.329l-.782-18.796h6.893l-.348 8.92 2.925-3.852h5.85l-4.083 5.735 4.662 7.993h-4.72Zm12.868.29c-2.182 0-4.016-.628-5.502-1.883-1.468-1.274-2.201-3.137-2.201-5.59 0-1.544.376-2.857 1.129-3.938 1.371-2.008 3.495-3.012 6.371-3.012 2.202 0 3.881.444 5.039 1.332 1.159.87 1.738 2.076 1.738 3.62 0 1.197-.483 2.172-1.448 2.925-.946.734-2.336 1.1-4.17 1.1a10.73 10.73 0 0 1-2.028-.173l-.318-.058c.096.695.396 1.217.898 1.564.521.328 1.139.492 1.853.492 1.178 0 2.182-.357 3.012-1.071l1.796 2.172a7.124 7.124 0 0 1-1.101 1.042c-.425.31-1.1.638-2.027.985-.927.328-1.941.493-3.041.493Zm2.346-9.731c0-.387-.154-.705-.463-.956-.29-.251-.695-.377-1.217-.377-.521 0-1.014.232-1.477.696a2.305 2.305 0 0 0-.666 1.65c.425.193.975.29 1.651.29.695 0 1.226-.116 1.593-.348.386-.25.579-.57.579-.955Zm13.495 4.286c-.019 1.12.376 1.68 1.187 1.68.232 0 .512-.107.84-.319l.608 2.81c-.116.096-.28.221-.492.376-.193.135-.627.318-1.303.55a6.137 6.137 0 0 1-2.057.348c-1.312 0-2.384-.444-3.214-1.333-.83-.907-1.275-2.056-1.332-3.446l-.261-5.474h-2.23l.347-3.764h1.738l-.116-2.839 6.864-1.39-.203 4.228h1.68l.347 3.765h-2.201l-.202 4.808Z"/></g><path fill="currentColor" d="M195.846 15.723a.589.589 0 0 0-.171.52l.477 2.638a.579.579 0 0 1-.242.58.59.59 0 0 1-.627.043l-2.375-1.24a.612.612 0 0 0-.269-.07h-.145a.438.438 0 0 0-.145.049l-2.376 1.244c-.117.06-.25.08-.38.06a.596.596 0 0 1-.478-.682l.478-2.639a.602.602 0 0 0-.171-.525l-1.937-1.877a.579.579 0 0 1-.144-.606.602.602 0 0 1 .476-.402l2.666-.387a.596.596 0 0 0 .472-.327l1.174-2.408a.55.55 0 0 1 .108-.144l.048-.038a.358.358 0 0 1 .086-.07l.059-.021.091-.038h.226a.602.602 0 0 1 .472.322l1.19 2.397a.595.595 0 0 0 .445.327l2.665.387a.606.606 0 0 1 .488.402.581.581 0 0 1-.155.606l-2.006 1.899Zm-21.984 15.419a.589.589 0 0 0-.171.52l.476 2.639a.578.578 0 0 1-.241.579.59.59 0 0 1-.627.043l-2.376-1.24a.604.604 0 0 0-.268-.07h-.145a.433.433 0 0 0-.145.049l-2.376 1.245a.626.626 0 0 1-.381.059.596.596 0 0 1-.477-.682l.477-2.639a.599.599 0 0 0-.171-.525l-1.936-1.877a.58.58 0 0 1-.145-.606.603.603 0 0 1 .477-.402l2.666-.387a.599.599 0 0 0 .472-.326l1.174-2.408a.57.57 0 0 1 .107-.145l.049-.038a.358.358 0 0 1 .086-.07l.058-.021.092-.038h.225a.6.6 0 0 1 .472.322l1.19 2.398a.597.597 0 0 0 .446.326l2.665.387a.608.608 0 0 1 .488.402c.07.215.01.451-.155.606l-2.006 1.899Zm42.904-.134a.589.589 0 0 0-.171.52l.477 2.639a.579.579 0 0 1-.242.58.59.59 0 0 1-.627.042l-2.375-1.239a.61.61 0 0 0-.269-.07h-.145a.438.438 0 0 0-.145.048l-2.376 1.245c-.117.06-.25.08-.38.06a.596.596 0 0 1-.478-.683l.478-2.638a.605.605 0 0 0-.171-.525l-1.937-1.877a.579.579 0 0 1-.144-.606.6.6 0 0 1 .476-.403l2.666-.386a.596.596 0 0 0 .472-.327l1.174-2.408a.55.55 0 0 1 .108-.145l.048-.037a.358.358 0 0 1 .086-.07l.059-.022.091-.037h.226a.602.602 0 0 1 .472.322l1.19 2.397a.596.596 0 0 0 .445.327l2.665.386a.606.606 0 0 1 .488.403.581.581 0 0 1-.155.606l-2.006 1.898Z"/></symbol><symbol xmlns="http://www.w3.org/2000/svg" id="minus" fill="none" viewBox="0 0 24 24"><path fill="currentColor" d="M5 11.7a.7.7 0 0 1 .7-.7h12.6a.7.7 0 0 1 .7.7v.6a.7.7 0 0 1-.7.7H5.7a.7.7 0 0 1-.7-.7v-.6Z"/></symbol><symbol xmlns="http://www.w3.org/2000/svg" id="money" fill="none" viewBox="0 0 24 24"><path fill="currentColor" d="M21 4H3a1 1 0 0 0-1 1v14a1 1 0 0 0 1 1h18a1 1 0 0 0 1-1V5a1 1 0 0 0-1-1Zm-1 11a3 3 0 0 0-3 3H7a3 3 0 0 0-3-3V9a3 3 0 0 0 3-3h10a3 3 0 0 0 3 3v6Z"/><path fill="currentColor" d="M12 8c-2.206 0-4 1.794-4 4s1.794 4 4 4 4-1.794 4-4-1.794-4-4-4Zm0 6c-1.103 0-2-.897-2-2s.897-2 2-2 2 .897 2 2-.897 2-2 2Z"/></symbol><symbol xmlns="http://www.w3.org/2000/svg" id="plus2" fill="none" viewBox="0 0 24 24"><path fill="currentColor" d="M19 11.7a.7.7 0 0 0-.7-.7h-4.6a.7.7 0 0 1-.7-.7V5.7a.7.7 0 0 0-.7-.7h-.6a.7.7 0 0 0-.7.7v4.6a.7.7 0 0 1-.7.7H5.7a.7.7 0 0 0-.7.7v.6a.7.7 0 0 0 .7.7h4.6a.7.7 0 0 1 .7.7v4.6a.7.7 0 0 0 .7.7h.6a.7.7 0 0 0 .7-.7v-4.6a.7.7 0 0 1 .7-.7h4.6a.7.7 0 0 0 .7-.7v-.6Z"/></symbol><symbol xmlns="http://www.w3.org/2000/svg" id="shippingCargo" fill="none" viewBox="0 0 24 24"><path fill="currentColor" d="M6 20a2.893 2.893 0 0 1-2.125-.875A2.893 2.893 0 0 1 3 17H1V6c0-.55.196-1.02.588-1.412A1.923 1.923 0 0 1 3 4h14v4h3l3 4v5h-2c0 .833-.292 1.542-.875 2.125A2.893 2.893 0 0 1 18 20a2.893 2.893 0 0 1-2.125-.875A2.893 2.893 0 0 1 15 17H9c0 .833-.292 1.542-.875 2.125A2.893 2.893 0 0 1 6 20Zm0-2a.968.968 0 0 0 .713-.288A.967.967 0 0 0 7 17a.967.967 0 0 0-.287-.712A.968.968 0 0 0 6 16a.968.968 0 0 0-.713.288A.967.967 0 0 0 5 17c0 .283.096.52.287.712.192.192.43.288.713.288Zm12 0c.283 0 .52-.096.712-.288A.965.965 0 0 0 19 17a.965.965 0 0 0-.288-.712A.965.965 0 0 0 18 16a.965.965 0 0 0-.712.288A.965.965 0 0 0 17 17c0 .283.096.52.288.712A.965.965 0 0 0 18 18Zm-1-5h4.25L19 10h-2v3Z"/></symbol><symbol xmlns="http://www.w3.org/2000/svg" id="shippingEconomy" fill="none" viewBox="0 0 24 24"><path fill="currentColor" d="M13.409 2.275a3.75 3.75 0 0 0-2.818 0l-2.19.888 9.592 3.73 3.374-1.303a1.747 1.747 0 0 0-.46-.275l-7.498-3.04ZM22 6.953l-9.25 3.574v2.3a6.481 6.481 0 0 1 4.75-2.065c1.747 0 3.332.689 4.5 1.81v-5.62Zm-10.75 3.574v4.945a6.503 6.503 0 0 0-.25 1.79c0 .622.087 1.223.25 1.79v2.398a3.75 3.75 0 0 1-.659-.2l-7.498-3.04A1.75 1.75 0 0 1 2 16.59V6.954l9.25 3.574v-.001ZM2.633 5.59 12 9.209l3.917-1.514-9.543-3.71-3.281 1.33c-.17.069-.324.162-.46.275ZM17.5 22.762a5.5 5.5 0 1 0 0-11 5.5 5.5 0 0 0 0 11Zm2.646-7.854a.5.5 0 0 1 .708.707l-4 4a.5.5 0 0 1-.708 0l-2-2a.5.5 0 0 1 .708-.707l1.646 1.647 3.646-3.647Z"/></symbol><symbol xmlns="http://www.w3.org/2000/svg" id="shippingExpress" fill="none" viewBox="0 0 24 24"><path fill="currentColor" fill-rule="evenodd" d="M22.171 15.257h.558c.306 0 .557.25.557.557v1.115a.56.56 0 0 1-.557.557h-1.672a3.344 3.344 0 0 1-6.686 0H9.914a3.344 3.344 0 0 1-6.685 0v-4.457H8.52a.28.28 0 0 0 .279-.279v-.557a.28.28 0 0 0-.279-.279H1.28a.28.28 0 0 1-.28-.278v-.557a.28.28 0 0 1 .279-.279h8.357a.28.28 0 0 0 .278-.279v-.557a.28.28 0 0 0-.278-.278H2.393a.28.28 0 0 1-.279-.279V8.85a.28.28 0 0 1 .279-.279h8.357a.28.28 0 0 0 .279-.278v-.557a.28.28 0 0 0-.279-.279H1.279A.28.28 0 0 1 1 7.18v-.56a.28.28 0 0 1 .279-.278h1.95V4.67C3.229 3.75 3.977 3 4.9 3h8.914c.923 0 1.672.749 1.672 1.671v1.672h1.535c.443 0 .867.177 1.18.49l3.48 3.48c.313.313.49.738.49 1.18v3.764ZM4.9 17.486a1.672 1.672 0 1 0 3.343-.001 1.672 1.672 0 0 0-3.343 0Zm11.142 0a1.672 1.672 0 1 0 3.344-.001 1.672 1.672 0 0 0-3.344 0Zm-.557-5.572H20.5v-.421l-3.48-3.479h-1.535v3.9Z" clip-rule="evenodd"/></symbol><symbol xmlns="http://www.w3.org/2000/svg" id="shippingRegular" fill="none" viewBox="0 0 24 24"><path fill="currentColor" d="M13.409 2.275a3.75 3.75 0 0 0-2.818 0l-2.19.888 9.592 3.73 3.374-1.303a1.747 1.747 0 0 0-.46-.275l-7.498-3.04ZM22 6.953l-9.25 3.574V21.45a3.62 3.62 0 0 0 .659-.2l7.498-3.04A1.75 1.75 0 0 0 22 16.59V6.953ZM11.25 21.45V10.527L2 6.953v9.637a1.75 1.75 0 0 0 1.093 1.62l7.498 3.04c.215.088.435.154.659.2ZM2.633 5.59 12 9.209l3.917-1.514-9.543-3.71-3.281 1.33c-.17.069-.324.162-.46.275Z"/></symbol><symbol xmlns="http://www.w3.org/2000/svg" id="voice2" fill="none" viewBox="0 0 24 24"><path fill="currentColor" fill-rule="evenodd" d="M12.175 15.216h-.35c-2.403 0-4.351-1.923-4.351-4.296V6.297C7.474 3.924 9.422 2 11.825 2h.35a4.345 4.345 0 0 1 4.19 3.131.388.388 0 0 1-.376.494h-1.133a.616.616 0 0 0-.62.61v.002c0 .338.278.612.62.612H15.9c.346 0 .627.277.627.618 0 .342-.28.618-.627.618h-1.044a.617.617 0 0 0-.62.613c0 .338.278.612.62.612H15.9c.346 0 .627.277.627.62 0 .34-.28.616-.627.616h-1.044a.617.617 0 0 0-.62.614c0 .337.278.61.62.61h1.077c.266 0 .456.257.372.506a4.347 4.347 0 0 1-4.13 2.94Zm6.388-4.433c0-.53.434-.957.968-.957.535 0 .969.428.969.957 0 4.304-3.3 7.857-7.53 8.335v1.925A.963.963 0 0 1 12 22a.962.962 0 0 1-.968-.957v-1.925C6.799 18.64 3.5 15.087 3.5 10.783c0-.53.434-.957.969-.957.534 0 .968.428.968.957 0 3.573 2.944 6.48 6.564 6.48 3.618 0 6.562-2.907 6.562-6.48Z" clip-rule="evenodd"/></symbol></svg>